<mxfile host="embed.diagrams.net" agent="Mozilla/5.0 (Windows NT 10.0; Win64; x64) AppleWebKit/537.36 (KHTML, like Gecko) Chrome/130.0.0.0 Safari/537.36 OPR/115.0.0.0" version="26.0.9" pages="5">
  <diagram id="a1CM92kortd_3TSKzZD8" name="Page login">
    <mxGraphModel grid="0" page="1" gridSize="10" guides="1" tooltips="1" connect="1" arrows="1" fold="1" pageScale="1" pageWidth="827" pageHeight="1169" math="0" shadow="0">
      <root>
        <mxCell id="0" />
        <mxCell id="1" parent="0" />
        <mxCell id="_kdLUK49tvb7IZpMSKxE-1" value="Page login" style="strokeWidth=1;shadow=0;dashed=0;align=center;html=1;shape=mxgraph.mockup.containers.window;align=left;verticalAlign=top;spacingLeft=8;strokeColor2=#008cff;strokeColor3=#c4c4c4;fontColor=#666666;mainText=;fontSize=17;labelBackgroundColor=none;whiteSpace=wrap;" vertex="1" parent="1">
          <mxGeometry x="49" y="-85" width="735" height="721" as="geometry" />
        </mxCell>
        <UserObject label="&lt;font style=&quot;font-size: 20px;&quot;&gt;BTN_REJOINDRE_PARTIE&lt;/font&gt;" link="data:page/id,bKSdQM1iCLOh8_31JJWo" id="LOhq7NbMW0C0xegu9z6j-3">
          <mxCell style="rounded=1;whiteSpace=wrap;html=1;" vertex="1" parent="1">
            <mxGeometry x="252.5" y="254" width="328" height="54" as="geometry" />
          </mxCell>
        </UserObject>
        <mxCell id="LOhq7NbMW0C0xegu9z6j-2" value="&lt;font style=&quot;font-size: 36px;&quot;&gt;LB_NOM_APP&lt;/font&gt;" style="text;html=1;align=center;verticalAlign=middle;resizable=0;points=[];autosize=1;strokeColor=none;fillColor=none;" vertex="1" parent="1">
          <mxGeometry x="287.5" y="49" width="258" height="55" as="geometry" />
        </mxCell>
        <UserObject label="&lt;span style=&quot;font-size: 20px;&quot;&gt;BTN_CREER_PARTIE&lt;/span&gt;" link="data:page/id,Ow6QsW9B_3lOtmuynqcJ" id="LOhq7NbMW0C0xegu9z6j-4">
          <mxCell style="rounded=1;whiteSpace=wrap;html=1;" vertex="1" parent="1">
            <mxGeometry x="252.5" y="336" width="328" height="54" as="geometry" />
          </mxCell>
        </UserObject>
        <mxCell id="OuMxpYJrLzOyyDiScU_g-1" value="&lt;font style=&quot;font-size: 14px;&quot;&gt;&lt;b&gt;LB = Libellé&lt;/b&gt;&lt;/font&gt;" style="text;html=1;align=center;verticalAlign=middle;resizable=0;points=[];autosize=1;strokeColor=none;fillColor=none;" vertex="1" parent="1">
          <mxGeometry x="22" y="760" width="97" height="29" as="geometry" />
        </mxCell>
        <mxCell id="OuMxpYJrLzOyyDiScU_g-3" value="&lt;font style=&quot;font-size: 14px;&quot;&gt;&lt;b&gt;BTN = Bouton&lt;/b&gt;&lt;/font&gt;" style="text;html=1;align=center;verticalAlign=middle;resizable=0;points=[];autosize=1;strokeColor=none;fillColor=none;" vertex="1" parent="1">
          <mxGeometry x="22" y="810" width="112" height="29" as="geometry" />
        </mxCell>
      </root>
    </mxGraphModel>
  </diagram>
  <diagram id="bKSdQM1iCLOh8_31JJWo" name="Vue rejoindre">
    <mxGraphModel grid="0" page="1" gridSize="10" guides="1" tooltips="1" connect="1" arrows="1" fold="1" pageScale="1" pageWidth="827" pageHeight="1169" math="0" shadow="0">
      <root>
        <mxCell id="0" />
        <mxCell id="1" parent="0" />
        <mxCell id="wbyfUinJXCyWQ3V1fBXf-14" value="Vue rejoindre" style="strokeWidth=1;shadow=0;dashed=0;align=center;html=1;shape=mxgraph.mockup.containers.window;align=left;verticalAlign=top;spacingLeft=8;strokeColor2=#008cff;strokeColor3=#c4c4c4;fontColor=#666666;mainText=;fontSize=17;labelBackgroundColor=none;whiteSpace=wrap;" vertex="1" parent="1">
          <mxGeometry x="81" y="43" width="665" height="697" as="geometry" />
        </mxCell>
        <mxCell id="yP3Qw5Ghdt1-N84hwhlL-1" value="&lt;font style=&quot;font-size: 24px;&quot;&gt;LB_REJOINDRE_PARTIE&lt;/font&gt;" style="text;html=1;align=center;verticalAlign=middle;whiteSpace=wrap;rounded=0;" vertex="1" parent="1">
          <mxGeometry x="268" y="237" width="292" height="36" as="geometry" />
        </mxCell>
        <mxCell id="3AGig6VZYXPLEdhQuEXN-1" value="CHAMP_ADR_IP" style="rounded=1;whiteSpace=wrap;html=1;" vertex="1" parent="1">
          <mxGeometry x="220" y="351" width="388" height="34" as="geometry" />
        </mxCell>
        <mxCell id="3AGig6VZYXPLEdhQuEXN-2" value="CHAMP_MDP" style="rounded=1;whiteSpace=wrap;html=1;" vertex="1" parent="1">
          <mxGeometry x="220" y="385" width="388" height="34" as="geometry" />
        </mxCell>
        <UserObject label="BTN_REJOINDRE" link="data:page/id,bK0DZaCJDcP4-gr4oKM1" id="3AGig6VZYXPLEdhQuEXN-4">
          <mxCell style="rounded=1;whiteSpace=wrap;html=1;" vertex="1" parent="1">
            <mxGeometry x="262" y="442" width="303" height="34" as="geometry" />
          </mxCell>
        </UserObject>
        <mxCell id="7lBewsKptjSHcq--gSPx-1" value="" style="shape=mxgraph.signs.travel.arrow_west;html=1;pointerEvents=1;fillColor=#000000;strokeColor=none;verticalLabelPosition=bottom;verticalAlign=top;align=center;" vertex="1" parent="1">
          <mxGeometry x="100" y="111" width="22" height="20" as="geometry" />
        </mxCell>
        <mxCell id="7lBewsKptjSHcq--gSPx-2" value="LB_RETOUR" style="text;html=1;align=center;verticalAlign=middle;whiteSpace=wrap;rounded=0;" vertex="1" parent="1">
          <mxGeometry x="136" y="106" width="60" height="30" as="geometry" />
        </mxCell>
        <mxCell id="L6jEF0fSl0TcNF1tdewO-1" value="LB_RETOUR = Renvoi sur la page login" style="text;html=1;align=left;verticalAlign=middle;whiteSpace=wrap;rounded=0;" vertex="1" parent="1">
          <mxGeometry x="81" y="842" width="262" height="30" as="geometry" />
        </mxCell>
        <mxCell id="Q2iRoiHj_hnhk0q5aIXb-1" value="&lt;span style=&quot;text-align: center;&quot;&gt;CHAMP_ADR_IP = champ de texte de l&#39;adresse IP avec vérification de format, par défaut 127.0.0.1&lt;/span&gt;" style="text;html=1;align=left;verticalAlign=middle;whiteSpace=wrap;rounded=0;" vertex="1" parent="1">
          <mxGeometry x="81" y="881" width="569" height="30" as="geometry" />
        </mxCell>
        <mxCell id="Q2iRoiHj_hnhk0q5aIXb-3" value="&lt;span style=&quot;text-align: center;&quot;&gt;CHAMP_MDP = Champ de texte avec ou sans masquage des caractères&lt;/span&gt;" style="text;html=1;align=left;verticalAlign=middle;whiteSpace=wrap;rounded=0;" vertex="1" parent="1">
          <mxGeometry x="81" y="920" width="535" height="30" as="geometry" />
        </mxCell>
      </root>
    </mxGraphModel>
  </diagram>
  <diagram name="Vue créer" id="Ow6QsW9B_3lOtmuynqcJ">
    <mxGraphModel grid="0" page="1" gridSize="10" guides="1" tooltips="1" connect="1" arrows="1" fold="1" pageScale="1" pageWidth="827" pageHeight="1169" math="0" shadow="0">
      <root>
        <mxCell id="R9Filmxr_205woRJCk-5-0" />
        <mxCell id="R9Filmxr_205woRJCk-5-1" parent="R9Filmxr_205woRJCk-5-0" />
        <mxCell id="R9Filmxr_205woRJCk-5-2" value="Vue créer" style="strokeWidth=1;shadow=0;dashed=0;align=center;html=1;shape=mxgraph.mockup.containers.window;align=left;verticalAlign=top;spacingLeft=8;strokeColor2=#008cff;strokeColor3=#c4c4c4;fontColor=#666666;mainText=;fontSize=17;labelBackgroundColor=none;whiteSpace=wrap;" parent="R9Filmxr_205woRJCk-5-1" vertex="1">
          <mxGeometry x="81" y="43" width="665" height="697" as="geometry" />
        </mxCell>
        <mxCell id="R9Filmxr_205woRJCk-5-3" value="&lt;font style=&quot;font-size: 24px;&quot;&gt;LB_CREER_PARTIE&lt;/font&gt;" style="text;html=1;align=center;verticalAlign=middle;whiteSpace=wrap;rounded=0;" parent="R9Filmxr_205woRJCk-5-1" vertex="1">
          <mxGeometry x="268" y="237" width="292" height="36" as="geometry" />
        </mxCell>
        <mxCell id="R9Filmxr_205woRJCk-5-4" value="CHAMP_ADR_IP" style="rounded=1;whiteSpace=wrap;html=1;" parent="R9Filmxr_205woRJCk-5-1" vertex="1">
          <mxGeometry x="220" y="351" width="388" height="34" as="geometry" />
        </mxCell>
        <mxCell id="R9Filmxr_205woRJCk-5-5" value="CHAMP_MDP" style="rounded=1;whiteSpace=wrap;html=1;" parent="R9Filmxr_205woRJCk-5-1" vertex="1">
          <mxGeometry x="220" y="385" width="388" height="34" as="geometry" />
        </mxCell>
        <UserObject label="BTN_CREER" link="data:page/id,bK0DZaCJDcP4-gr4oKM1" id="R9Filmxr_205woRJCk-5-6">
          <mxCell style="rounded=1;whiteSpace=wrap;html=1;" parent="R9Filmxr_205woRJCk-5-1" vertex="1">
            <mxGeometry x="248" y="442" width="303" height="34" as="geometry" />
          </mxCell>
        </UserObject>
        <mxCell id="itPkYaFVsQiah3Cm0X7c-0" value="" style="shape=mxgraph.signs.travel.arrow_west;html=1;pointerEvents=1;fillColor=#000000;strokeColor=none;verticalLabelPosition=bottom;verticalAlign=top;align=center;" vertex="1" parent="R9Filmxr_205woRJCk-5-1">
          <mxGeometry x="100" y="111" width="22" height="20" as="geometry" />
        </mxCell>
        <mxCell id="itPkYaFVsQiah3Cm0X7c-1" value="LB_RETOUR" style="text;html=1;align=center;verticalAlign=middle;whiteSpace=wrap;rounded=0;" vertex="1" parent="R9Filmxr_205woRJCk-5-1">
          <mxGeometry x="136" y="106" width="60" height="30" as="geometry" />
        </mxCell>
        <mxCell id="ominEPJtQ4loZkLpmUOa-1" value="" style="sketch=0;pointerEvents=1;shadow=0;dashed=0;html=1;strokeColor=none;fillColor=#505050;labelPosition=center;verticalLabelPosition=bottom;verticalAlign=top;outlineConnect=0;align=center;shape=mxgraph.office.concepts.clipboard;" vertex="1" parent="R9Filmxr_205woRJCk-5-1">
          <mxGeometry x="571" y="447" width="20" height="24" as="geometry" />
        </mxCell>
        <mxCell id="JTwp5QMGpV0ESSJ_7qpc-0" value="" style="sketch=0;pointerEvents=1;shadow=0;dashed=0;html=1;strokeColor=none;fillColor=#505050;labelPosition=center;verticalLabelPosition=bottom;verticalAlign=top;outlineConnect=0;align=center;shape=mxgraph.office.concepts.clipboard;" vertex="1" parent="R9Filmxr_205woRJCk-5-1">
          <mxGeometry x="104" y="819" width="20" height="24" as="geometry" />
        </mxCell>
        <mxCell id="JTwp5QMGpV0ESSJ_7qpc-1" value="= Copie les infos de connection pour un meilleur partage" style="text;html=1;align=center;verticalAlign=middle;whiteSpace=wrap;rounded=0;" vertex="1" parent="R9Filmxr_205woRJCk-5-1">
          <mxGeometry x="100" y="816" width="370" height="30" as="geometry" />
        </mxCell>
      </root>
    </mxGraphModel>
  </diagram>
  <diagram id="bK0DZaCJDcP4-gr4oKM1" name="Page principale">
    <mxGraphModel grid="0" page="1" gridSize="10" guides="1" tooltips="1" connect="1" arrows="1" fold="1" pageScale="1" pageWidth="827" pageHeight="1169" math="0" shadow="0">
      <root>
        <mxCell id="0" />
        <mxCell id="1" parent="0" />
        <mxCell id="aPT7ZNVOTUbdclBfcqsg-1" value="Page principale" style="strokeWidth=1;shadow=0;dashed=0;align=center;html=1;shape=mxgraph.mockup.containers.window;align=left;verticalAlign=top;spacingLeft=8;strokeColor2=#008cff;strokeColor3=#c4c4c4;fontColor=#666666;mainText=;fontSize=17;labelBackgroundColor=none;whiteSpace=wrap;" vertex="1" parent="1">
          <mxGeometry x="86" y="43.5" width="926" height="811" as="geometry" />
        </mxCell>
        <mxCell id="aPT7ZNVOTUbdclBfcqsg-6" value="" style="shape=mxgraph.signs.travel.arrow_west;html=1;pointerEvents=1;fillColor=#000000;strokeColor=none;verticalLabelPosition=bottom;verticalAlign=top;align=center;" vertex="1" parent="1">
          <mxGeometry x="99" y="104.24" width="22" height="20" as="geometry" />
        </mxCell>
        <mxCell id="aPT7ZNVOTUbdclBfcqsg-7" value="LB_RETOUR" style="text;html=1;align=center;verticalAlign=middle;whiteSpace=wrap;rounded=0;" vertex="1" parent="1">
          <mxGeometry x="135" y="99.24" width="60" height="30" as="geometry" />
        </mxCell>
        <mxCell id="aPT7ZNVOTUbdclBfcqsg-14" value="" style="line;strokeWidth=2;direction=south;html=1;" vertex="1" parent="1">
          <mxGeometry x="279" y="73.5" width="10" height="781" as="geometry" />
        </mxCell>
        <mxCell id="aPT7ZNVOTUbdclBfcqsg-16" value="CADRE_CANVA_PREVISUALISATION" style="swimlane;" vertex="1" parent="1">
          <mxGeometry x="285" y="74" width="726" height="780" as="geometry" />
        </mxCell>
        <mxCell id="aPT7ZNVOTUbdclBfcqsg-19" value="" style="verticalLabelPosition=bottom;shadow=0;dashed=0;align=center;html=1;verticalAlign=top;strokeWidth=1;shape=mxgraph.mockup.graphics.simpleIcon;strokeColor=#999999;" vertex="1" parent="aPT7ZNVOTUbdclBfcqsg-16">
          <mxGeometry x="2" y="58" width="724" height="721" as="geometry" />
        </mxCell>
        <mxCell id="7agsbNEgHjkrXoOdGPLp-1" value="" style="ellipse;whiteSpace=wrap;html=1;aspect=fixed;" vertex="1" parent="aPT7ZNVOTUbdclBfcqsg-16">
          <mxGeometry x="2" y="404" width="29" height="29" as="geometry" />
        </mxCell>
        <mxCell id="aPT7ZNVOTUbdclBfcqsg-15" value="" style="html=1;verticalLabelPosition=bottom;labelBackgroundColor=#ffffff;verticalAlign=top;shadow=0;dashed=0;strokeWidth=2;shape=mxgraph.ios7.misc.left;strokeColor=#0080f0;" vertex="1" parent="aPT7ZNVOTUbdclBfcqsg-16">
          <mxGeometry x="9.73" y="408" width="13.54" height="21" as="geometry" />
        </mxCell>
        <mxCell id="7agsbNEgHjkrXoOdGPLp-12" value="" style="shape=image;verticalLabelPosition=bottom;labelBackgroundColor=default;verticalAlign=top;aspect=fixed;imageAspect=0;image=data:image/png,iVBORw0KGgoAAAANSUhEUgAAACoAAAA+CAYAAABdhInWAAAAAXNSR0IArs4c6QAAAARnQU1BAACxjwv8YQUAAAAJcEhZcwAADsMAAA7DAcdvqGQAAAVzSURBVGhD7ZpdSFtXHMB/Meb63dQuMTPU0HV+dNPOgVI765y6sdhQthXZk2+F4UOg0NGCowwcY7A3oWBB9K04UtrVPazFTrbCPmCxMttCxTJHwNak6exsiebL3GQP2pgcrTU317QFf3Dg8v+fc/hxc86995wcTVVVVYyXAI0oqtFJFB38hMK33qPg7fcTUxnBN3YZ/+3f8V2/TGwpHI8nieqMFsq6v8P3x/fwz3W03mkkSYpX3mqCwSAx8z40FQ0UHvyYmW8+JfKfBxJFNbocXvv2Zx4Ofk6Rz00gECAcDrO0tCT2t2XodDokSSIvL4+FV16nuPMrXF98AHIErcFg6AHQN3UgP7xHvsvJ48ePCQaDRKNRsa8tJRqNsrS0RCQSoVBeJJRXjDZfT+jeFFlPKhXUthGb+p1AIJDRu7ge4XCYcDiMPPlrfJ6sita8S/b8LKFQKLHNGgwGA4ODgxgMBjH1TFJpGwwG0f7rIr/6ECSKkqVF0mUTiUQSqq9FkiTq6+sVTbJU2kYiESRNlKycfEicTBUDU4S+/pAHDx6IbZIwmUxcvXoVr9eLLMtiekO0Wi0mkwmbzYbb7RbTaygpKSHny5/4+7N9qYsCOJ1OLl68yJ07d8TUhuzZs4djx47R0NDwzCGGGqLnz59neHgYh8Mhpjakvb2dEydOYLVaxdS6JIqujtEUmJmZobKyErPZnFLZv38/09PTYnebQtEd7ezs5NSpU2J4UwwMDNDX1yeG1yXtOzo0NITX66W3txebzcbo6Cijo6NrrhNLb28vXq9305IiikQBZFlmfn4et3v5dRsIBNZcJ5b5+fmUnxKJKBbNNFsi+qyXhhJUF3U4HJw9e1YMp40qosPDw9y4cQOAyclJ5ubmxCppo4roxMQEly5dEsOqolhUlmWys7PF8JahWNTtdlNSUiKGn0pxcTGPHj0Sw5tGsejs7CxmsxlWlhBGoxGLxUJFRQWVlZVYLBaMRiO5ubmw8paZnZ0Vetk8ikU9Hg8Wi4XW1laOHDlCU1MTdXV11NTUUF1dTV1dHU1NTRw+fJi2tjbKyso29Wn3NBSLer1eTCYTO3fuFFNr0Ov1mEwmPJ7lFaUSFItOTExQWloa/2k3QpIkysvLuXXrlpjaNIpF7969i8vlio/Tjdi1axdzc3NMTk6KqU2jWBTgypUrtLa2otFoxFQSbW1tjIyMiOGUSEvU4XBgNBrZvXu3mIpjMpnYu3cv586dE1MpkZaoz+djaGiIjo4OcnJyxDSSJNHR0cGFCxfSfq2mJQrQ19fH/fv3sVqta4ZAS0sLCwsLnDlzJimuhLRFZVmmu7ubqqoqmpub4/H6+npqa2s5ffo0fr8/qY0S0hYFcLlc2O12Dhw4QGNjI42NjfEVZzozPRFVRFl5rh4/fpzy8nKqq6s5efIkTqdTrKYY1UQBxsfHOXr0KDabjWvXronptFBVdCvZFlWbl1fU7/e/MCURRXtPmSLtvafnwbao2myLqs22qNqoItrf37/uPx1Wq5X+/n4xrAhVRHt6erDb7UmyVqsVu91OT09PUl2lqCLq8Xjo6uqKyz6R7OrqSmt3JBFVRBFk1ZZETVESZNWWRG1RVmTVkNRoNMRiq8ddVkWjMkuRzO4ib0R2djahqIZoaPlzLy7qn3IS0b+67o7H8yA3N5eYcQ+LN5cXiXFR3/gIvNFMXl4eOp0usU3GkSQJSZLIqm7Bf/s3SBL98weKDnXgKzKj1+spKCjIuLBOp6OgoIAdO3awaCgnv7YN39hl2OjcU2x6DK13OqNDIRQKES2t2vjc0xOydLkUvfMR+W82UljXnpjKCAt/jbJ48xd8Yz8Si6yeFloj+qKi+nN0q/gfg4uPp0KjleEAAAAASUVORK5CYII=;" vertex="1" parent="aPT7ZNVOTUbdclBfcqsg-16">
          <mxGeometry x="342" y="24" width="22.35" height="33" as="geometry" />
        </mxCell>
        <mxCell id="7agsbNEgHjkrXoOdGPLp-7" value="&lt;font size=&quot;3&quot;&gt;BTN_CHOISIR_FILE&lt;/font&gt;" style="rounded=1;whiteSpace=wrap;html=1;" vertex="1" parent="1">
          <mxGeometry x="108" y="239" width="153" height="60" as="geometry" />
        </mxCell>
        <mxCell id="7agsbNEgHjkrXoOdGPLp-8" value="&lt;font size=&quot;3&quot;&gt;BTN_ENVOYER&lt;/font&gt;" style="rounded=1;whiteSpace=wrap;html=1;" vertex="1" parent="1">
          <mxGeometry x="108" y="665" width="153" height="60" as="geometry" />
        </mxCell>
        <mxCell id="7agsbNEgHjkrXoOdGPLp-9" value="" style="shape=image;verticalLabelPosition=bottom;labelBackgroundColor=default;verticalAlign=top;aspect=fixed;imageAspect=0;image=data:image/png,iVBORw0KGgoAAAANSUhEUgAAAS0AAAAdCAYAAAD/7jr3AAAAAXNSR0IArs4c6QAAAARnQU1BAACxjwv8YQUAAAAJcEhZcwAADsMAAA7DAcdvqGQAABFhSURBVHhe7ZxZdxvneYCfwTJYCIIERYIECFIUQYoSwE0LJdEWbStJ3cRNdE5TZ+mpT3ORi9zkD/QqvetVcpWe094lPccnXRy3yandSInt2JbMSCJFUbIoiZu4YCFFkFiJfekFRdsaY6AZgGrjFs/l+47waIbfvPjmmw+v0H/MU+KPCkEaqFOnTp1P0EgDderUqfPHTL1o1alT5wtFvWjVqVPnC0W9aNWpU+cLhaBmId7pcNDR0YHZbMLa2AhALBYjmU4TDAQJbmxI/4lKyi/COx0OnE4n3V0uGiwNACQSCdbW1wn4D8JbHqfDQWdHB4fNFhoen28iFmM1ncAf2HimXpejgxGrFfNjbzIW51Y8iu8Ze7ucHZzoasJseexNxJhej+LzP2NvVzsnhk2YzY+9yRjTt9L4fM/W2+Fy0NzXSmODBYDYboLo/BbBZzyuOjpdmN2DWM1mAGK7uySX7hD0+5+p1+F00dY6gMWy540ndgmF7hHwB56pt9PpxN3a+8T9uxRaxl+FV1HRslgsjI4MQ6nI0uIioVCI7e1tAFpbW2lra6PX7aZQKDEzO0sqlZJ+hAI+X7AsFgvnzp5heGgQnVZDJpP55LPNZjOiKFIoFpmZmWXy2vUqvZ/HYrEwPjLCiZKIYXGVbChMansHAFNrC2LbIbLubm4UUkzO3jpQ74ujo3zb3MCAL4A2HKEUjgAgtNjItTSz2OnkF/Eov585WO+Fs6O8NtTIoDaIPhOBVHgvabaRFm3cKzr4+UyY964dsPeFYV77TpHBgQX0uhCU9sYVQivpbBv3Fvr4+S+KvPf+7QP1nnzuFI0vOQi2xAkX40SycQBsohWbYMERthJ5d53pq9MH6h0dn4DnvsmS1U0or2U7UwSg1aihTZOjN/GQwodvMPPRBwfqHTv1PHbnV4nEnMTjEI0XAGiy6rA2Fmhu3CCw/hY3pq8eqPf50+M87zhHU7yJfDxPJpYBwNhkQGPRErfG+WD9ClemJhV7n1q0+vv6ONzdxb25u0xOTpLJ7EmlGI1Gzk9M0NfXz/LKKg8fPpQe8hSeLFr9fX1MTDzPIVszm5ub5PP5J/L76HQ6HE4nW1sh3nv/Ax4+XJEeoor+vj5e6u7FPrfM1uQUhUxWeggAOqMB+8Q5gn0u3llZOBDvd/v7eXk9gP7mLciW9woGA9mxU1zqaOP1B/cPxPvaxFEu2oI0bM5CvrwXnYGk8yS/2mrlZ+/fOxjvd11c/OpdGsRJoPy4AiPJ3AS/+q+j/Oz1lQPxDnxthODxNLd2F8gWc9JDADBoRE41HqP1Yy1zb908EO/hP3mVe71fYjKmI1Mof9sZtQLnm/P0LbzL8qV/PhDv8OhFEqnT3J/Pk8uV94qiBu9xHQbddWZu/vuBeF8e/QrudC/x+SiF3F5xlqIVtTQda2ZBt8DbNy8p8moPtbb9rTS4T5/bjb3tEJcvXWJ2dpZCYa86lyOfz7O8vEw4vMPQ4CAarY5IZG+WoIxPi1af283Fb7xCqVhga2uLYrH8CQMUi0Vi0ShWayNej4eNzUcqvZ/S53bzzbZOdJeusD17l1KF8y3mC8SXV2kOx/EODhLQUpP3R0d6ee7aFJp796GCl0IB7do6x3ZTeAYHmS0UavL+3TfcfKU4jbj1AIoVvMUC+qiPIWsaj2eQ6c18bd4ftfCViUuImlmggpc8eu0yQ8d38BwfZHpW7bj6lD63m/7vn2bascr93VUKJflxVSgVWM9sknIKDHm85JYTNXntr/0Nl21nmI2BTL0CIF+C5ZSGsP0oQ57jaFY/rsl78vQPWVodYHklR4XbiEKhxMZmgSKHGfIeZzcxX5P3r8f+ikMrNuIrMUpF+RMuFUqkNlO004Zn0MtKYu2pXtmiZbFYGPR6uHzpEmtra9K0LOFwmEQ8ztjYaYLBDdkZ0ufZK1oWi4Wvv/I1isUC0WhUepAsqVQKgyjicDiYn59X4d3DYrFw0TuM9tJVYms+aVqWdDiCMZ6kfWyUB8FAVd4fnDzJ+LUpiv6ANC1LKRqlI5VGGB7ips9XlfeHr5ziy8VpiAalaXlSUZximoJjkKn5Kr0/OM6Xz1+CovJxRSmMsyNOgTGmptWMqz0sFgunv3Oe6Y5VAqktaVqWaC5B2lpkyNqH7+OVqryDf/F9LtvGWNutVJyfJJwtkWhoY6xFQ3Bupirv8xOvsbR6lM1HMrPnMsQTBQpFGwP9RlYf3q7K+62Jb9KyYmN3a1ealiWbyGIpNtDS38zcw3sVvWXfHgqCwOjIMPfm7qoqWPssLi6ytLDAyMiINFURQRAYP3eGlpZmVQVrn52dHTra2zhzZkyaqoggCDw3MkL73ENVBWuf8OJDXAs+zoyMSlMVEQSBCydG+dN1v6qCtU9hZZU/23zE+RMnpKmKCILAl8+NcrElqK5g7bOzxqvt20ycqcJ7YYiLX72rrmDtU1zk1a/PM3F+WJqpiCAInDx/iuDxtKqCtc/qbpDt4SKj46ekqYoIgsDo8y9yr/dLqgrWPovxAktHX2bk3PPSVEUEQWDs9AS76dOqCtY+/kCGXGGcU6fGpamKCILA+dPjuNO9qgrWPvFAnGOFAc6dOitNPUHZouXo6KBYyDM5OSlNKebKlSvodRrsdrs0JYujo4OhQS8bKt8mfJaNjQ1Ojo6o9o4WtGxOTklTitm6cp0xnUm199sGE5qbs9KUYoxTM3y30ara+9qgGeNG9V7Lxk2+N9qk3vutPEZd9ePKYrrC9/5S/bhqeKGDW4kFaUoxN5MPaLngUu0tnvtzJqNlbzNFXImL6CdeVe1ta3+Zew/Kr9cpYe5+kc6uV1R7n+sYJzpf+fGuEvEHcV7sPl/RW/ZqOpwOlhYXZRfdlZBMJllZWaHT6ZSmZOnq7kKr0VScGj6NXC6HXtTj6nRIU7J0O52Ii2uyi+5KyCVTGFcCuJzKvUc6nfT7g7KL7koopVIc3dyiS4W3t7sTj2ZDftFdCbk0XjFEl4rr3HvEgefoYoVFdwWUkngHVuhyKfc6ezoJ2uKyi+5KSBUyPGpL0qnC6zh8hKXGXtlFdyUk8yVWmtx0ujqlKVlcrh4icafsorsS0pkisV0Xrk7l9+9hVzfWWKPsorsS8pk8TbvNFb1li5bV0kgwWMVjg4SA34+lYW9fRmX21rMOd7kUv/asRDqVwuVyScOy9FispIKPpGHVZP0bdDdYpWFZhpttaB6pf1yRYtzcxNvcLA3LMtLVjD4VkoZVY049YtilwjtsQa+rfVyZjX6GvUrG1R4tfXa2CtV/+++zVYxg622ThmWx9noI5sreYqoIFAxYeo5Lw7LY7UfZCVdfsPYJRzS0th6VhmVx23vJRWr4InxMIZKnt+2INPwJZa+oXtQfTPFIpxFFvTQsi8ViIZer/ttwn3w+j+XxZkElWESRfCotDasmn05jEQ3SsCw2gwHStXtL6czeZynkkMUAudq95DPYGozSqCyHWvRQqn1cQRqbTZQGZTFazWQKNczuHpMpZjFYTdKwLHqrjVS+9uKRLpQQG23SsCxGs41stvrZzj7ZbBGjqUkalsVqtpLPql+7k1LMFmg07m0yLkfZogW1X+h91HySIMj8d6pA+PxeVVlUHPpUBBVnrJUGakCjXItWzcV5ChpBuVh7cH9eNGpO+AC9qgaL5uD+wiVVf7ODPGHlnyWoOPZpCBUudFlLLpvHZFL+jSKH0Wgkl1U+c4rHY+j1ymdmcuh0OuKJhDQsSzybRWdSPmOQQ2c0ElexPhXKZMBYu1cwGtjOKp9JPIqnQV+7F52B7YQKbygHQu3jCoxsbysfV+lIEoNW+UxUDoNGJBNVPlPMRUKYdPI3n1KMWoFcbO8XGUpIJ7cRxbK3tipEUUN6/5cRCogmI+jE2gu1RtQSS8ek4U8oe2aJ3V0cDuULjnI4OzvZTSp/9bnu8x9MsTSZ8Pn90rAsa7txTA75txVKETs7WE/KX2wpH0cjFO3K10jkSLe3MxdVvmZz2xclZ2qVhlWTNNm541fh/ThJLl/7uEqmO7kzp3xcRZZCtGmVr73J0aZpJrKsfC0wsXIPh772xzSnNsPuyn1pWJat0AItttqLpa25SGhb+RvX5dAK+mblj+1yaJt1PAzJ74wvW7QCwSDuvj4MKtZJpJjNZnp6evAHlC+8rq37KBSL6HQ6aUoxer2eXDaHX8W+p9VgkGxfN1pD9RdcbzaR7nHiU3G+y4EgC50OEKv3CiYT8+1trKvxrgeYK3aArnoveiN3s62s+1V4HwaZm+8Dqh9XCGbuPuhh3afc61/14wg3Imqqn8WbtAbsW2ZV4yqwuoI7voxBW30BMesEeqJL+P3K9w/6fKs0NwbQ66v3Gg0arA0+/Cq+/Fd9a8SscbT6smVFETqDjmhDpOKko+ynBwIBNFodZ86ckaYUMz4+TqFQYnNzU5qS8OmFDQQC3L17n/b29ieOUIPdbmf29h02N5W/DQwEAtzWFmlTuVnysxwaP8XNQlq1981MmsLIkDSlmPTJEd5IxFR7f3E3Tbp9UJpSTNw+wuu3o+q9v9STzlc/ruLJcV7/t5Jqb/LKJkMNbmlKMSOmPqIf+FV7Ndd/zRlr9YvT45YshY/+Q7U39OgdBvqrL9ID/QJB3yXV3mub17H2KX+DLsXSb+Gqb7Kit2zRKpVK3L59B+/gEF1dXdL0U3G73RwdOMbMrLrNi6VSick//IFINEZTk/K3Fvu0tLQQ2g4zee26NFWRUqnER7dnCQ32Ye1Svh9mn2Z3DxsDh5mcvSVNVaRUKvHOrVu829OFRsU+q300h7u57Ojg9zPqvb/7wwxvR13QpN5LSze/3rbz3rUqvO/e4e13hkBQP67QuPn1pWO89/5taaYipVKJmQ+ncS004Kjisbi7wYF9TmT66rQ0VZFSqcTtK+/hXfuQrgb1az3uRi1Hl99l5qMPpKmKlEolpqbep9F8C3ub+tm002HAZJjixvRVaaoipVKJD6eustKwjrltr/WNGhodFhbEZa5MVd58LPvbw0w2i14U8Xo9hHd2FP+sxu1288KLL7G67mNrS8kepCensJlslsTuLl7PcbRareINri0tLehFA7+5/Fu2tpSvO+yTyWaJi1q83uPod2JkosrWpprdPWhePMtb60tVe/0aAa/HQ1s8QSm+1yLlaWgOd3P31Cg/nb9ftXdtF7ye43RoE5BR+OKipZtpcYSfXL5Xvdcv4vV46LDvQEnZuELjZvrOS/zk731Ve9nJ4fV4SDRkieeT0kPK0t3gYDTSzdy/3qjaq48E8Ho8hE2tRBVu+HQ3ankh9YDVN/+xam8h/wiv5ziZXBO7Cn9G5HQYcB/2Mz31T1V7w/kwXo8HU9ZELqnshUmjw8Lu4TS/vPHmU72yRQtge3sbo9HE2NgYloYGgsGgbKcHo9HISxcuMDZ2hjWfX0Vrms8/d29v7xAK7dDpctFut5NKpWQ7Peh0OjpdLqLRGL+5/FtFrS3k2N7e4ZFRj3PsBO0NFlLBTdlODzqjgY4L5wmNDfKWb6lm78caDeLoMEesVrSPtmQ7PQgGA7nxs7w94Oan8w9q9t4KCWhcw/TarYipkHynB52BpOsMb0R7+fHl2lrTbG/vcOuOGY1ujN4jDYjaYIVOD0aSuQu88Z9n+fFPfTV7hdUMwy1Haeq0sZWPyHZ6MGhEzlq99M5ZmfuXGzV7jf45xtpELM4egjmtbKcHo1bgpZYCY8u/Ze3Nf6jZm80scWygEZuti3CkJNvpQRQ1DA/qOdR0nempn9fs9aX9tA604mxxkotkZTs9aEUtNm8Ly00PeePGm4q8T+2nxeNNn8+uCeDni9Y+lnoTwHoTwHoTwJqx/H9rAvhZnk27ZfmitU+93XK93fKzoN5u+f9wu+Vnx9MLVp06dep8lrJvD/9nqBesOnXqqOd/sWjVqVOnjnrqRatOnTpfKP4bjeDBB+di2/IAAAAASUVORK5CYII=;" vertex="1" parent="1">
          <mxGeometry x="285" y="98" width="342.52" height="33" as="geometry" />
        </mxCell>
        <mxCell id="7agsbNEgHjkrXoOdGPLp-10" value="" style="shape=image;verticalLabelPosition=bottom;labelBackgroundColor=default;verticalAlign=top;aspect=fixed;imageAspect=0;image=data:image/png,iVBORw0KGgoAAAANSUhEUgAAACAAAAAmCAYAAAClI5npAAAAAXNSR0IArs4c6QAAAARnQU1BAACxjwv8YQUAAAAJcEhZcwAADsMAAA7DAcdvqGQAAAJGSURBVFhH7ZQxa+pQGIaf3l4ChUBBCOgSSCmcTRwkoFjaxSHQQaWhQ8HFH+Jv8B+4ukQJgkOWQofSTsWhdAh0EodCoRAQhHDvJvgRa+IFywWf8XtfyMM5J9+RUuoPP8gvOdg3B4GDwP8rUCgUME1TjjNztOse6Pf76LrO7e0tcRzLODU7nUC5XMayLAzD4OLiQsaZ2Emg0Wgwm80Iw5BmsynjTGQWKBQKVKtVfN/H8zxKpRKWZclaajILNBoN4jhmPB4TBAFRFP3TKWQS0DQNx3GYTCZEUcRyuWQ8HuM4Drquy3oqMgnU63VOT0/xfX81G41GaJrG9fX1WjctmQRarRbT6ZQwDFez+XzO4+PjzteQWqBYLHJ+fs5oNJIRnueRz+epVqsy2kpqgZubGz4/P7m/v5cRz8/PzGaznU4hlUAul6NWq+H7/satNxwOsW0783pOtYo7nQ7tdpswDImiSMYAnJycoJTC8zx6vZ6MN7JVQNM0BoMBX19fvL29yXiNs7MzTNOk2WyyWCxknMhvOZBcXl6Sy+XodrtMp1MZr2FZFv1+H8dx8DxPxolsfQOu6xKG4daPA7y/v/Py8pLpMX4roJRCKbW2eLYxHA4xTRPbtmWUyLcCrusSRRGTyURGG3l4eODj44NWqyWjRBIFbNsmCALq9Tq6rnN3dycrG3FdF8MwqFQqBEHA1dWVrKyR+BcYhoHjOBwfHwPw9PTE6+urrCWilFptxDiOCYKA+XwuaysSBfZJ4hXsk4PAQeAgcBD4cYG/Kie8uTleB9QAAAAASUVORK5CYII=;" vertex="1" parent="1">
          <mxGeometry x="918" y="97.92" width="28" height="33.24" as="geometry" />
        </mxCell>
        <mxCell id="7agsbNEgHjkrXoOdGPLp-11" value="" style="shape=image;verticalLabelPosition=bottom;labelBackgroundColor=default;verticalAlign=top;aspect=fixed;imageAspect=0;image=data:image/png,iVBORw0KGgoAAAANSUhEUgAAACcAAAAiCAYAAADcbsCGAAAAAXNSR0IArs4c6QAAAARnQU1BAACxjwv8YQUAAAAJcEhZcwAADsMAAA7DAcdvqGQAAAIHSURBVFhH7dYxaBNRGMDxf9KjoRcTciS0SHFKIaMiTqlLZj0kgyZdbg5kc+8a0Dm6HGS4oaLQwalbhia7hNRWRFuLSymnIUTxQhriYqR9aN7d9aEd8h/f9x38OB7HRXK53IQrWlQ8uErNcWGb48KmBJdOpdiq13nTbvPiWZ3rmbS4EqrIZT8l6VSKne1tEskkZx8/oGXX+PH9Gw8elfh8eiquB+pSb+48bNje5ezokGF7l6X4NV6/esmN5WXxkUCFxomwiecBMPE8ZcBQuL/BpqkCBsbJYNNUAAPh/MKmnQc+f/pEHEvzjQsKmzbxPEbvDsjevCWOpPnChYUBoGlo2TUOu11xIk2K03WdLcchubrK6OBtYFgsv84oGuXx5qY4lTYTp+s6tm0z1jQ+7XVZvH2HaDojrv25KWxB42GpxPvjY3FD2kxcpVLBMAwsy+JeqczR/j6x/LocqACGDFcoFHAcB9d1GY/H3N/YkAMVwZDhWq0WxWIRXdcB5ECFMGS4RqNBIpHAtm05UDEMGc51XSzLwjCMmcCFlRXlMGQ4fAIX83eVw/CDYwYwFovxdTTiy8mJchhBfzYzmQyO4zAYDGg2m5imSTwep1ar0e/3L+wOh0M6nc6Fs6AFwvELWK1WKZfLRCIRcfw713UxTZNeryeOfBcY9y/zdef+V3Nc2Oa4sM1xYfsJFa4fE3rcZPEAAAAASUVORK5CYII=;" vertex="1" parent="1">
          <mxGeometry x="662" y="98.00333333333337" width="39" height="34" as="geometry" />
        </mxCell>
        <mxCell id="7agsbNEgHjkrXoOdGPLp-15" value="" style="shape=image;verticalLabelPosition=bottom;labelBackgroundColor=default;verticalAlign=top;aspect=fixed;imageAspect=0;image=data:image/png,iVBORw0KGgoAAAANSUhEUgAAAF4AAAAxCAYAAABTcB7hAAAAAXNSR0IArs4c6QAAAARnQU1BAACxjwv8YQUAAAAJcEhZcwAADsMAAA7DAcdvqGQAAANeSURBVHhe7du/Szp/HMDx5/tUhJJcovwDzu0IBxsN3IvAQYhoCfwDKmhpcmkQKsSxJYgWqaFNKEiIaGiJoM0hcLFRI0k67z5Lyufe+vlCeD++4Pux9Xq/I3iq59HdCcMwbBTfafJA8YcKHxAVPiDi72O8pmnMzMwQDocJh8POncqvfH9/Y5om3W4X2x79Gh2Gj0QixGIxbNvGsiwsy5L3Kr8ghCAUCiGE4OPjA9M0HesaP+/02dlZTNPENE0V3QW2bQ97xmIxhBCOdQ0gGo1iWdbYj4QymcERJBqNOuYaQCgUUu9yD1mWNfKdOQyveEcIgaY5TyDV6aQPbNsef4xX/KfCB0SFD4gKHxAVPiAqfEBU+IC4Gr5UKlGtVuUxhUKB6+trHh8fubu7o1KpkEgk5G1TxZXwe3t71Go1MpmMvEQ+n2d7e5tOp8PJyQn1ep10Os3BwYG8dapMHP78/JzV1VVeXl5oNpvyMpubmzSbTba2tqhWqxSLRe7v70mn06RSKXn71Jg4/NHRERsbG+zv78tLpFIpFhYWuLm5ccyPj48BWF9fd8z9ous6uVxu5P8nA5qmkcvl0HVdXnLN+L/8C8/Pz7RaLXkMwPLyMgBPT0+OeavVot1uMz8/75j7pdfrkc1mKRQKI/E1TaNQKJDNZun1eo41N00c/r8kk0n4eXFknU6HxcVFeeyLZrNJuVzGMAxH/EF0wzAol8tjD51u8TT8/1mj0XDEj0QijuiNRkP+FVdNbXik+IeHh75Fx+vwn5+fAGPP2efm5nh7e5PHvhvEf3199S06Xod/eHgAYG1tzTFPJBLE43He398d86A0Gg3Ozs58i47X4W9vb2m326ysrDjmu7u7fH19cXFx4ZhPE0/DA1xdXaHrOpVKhXw+T6lUIpPJUK/X/3kaOg08D396esrl5SXJZJKdnR2Wlpao1WoUi0V561QRhmHY8Xicfr8vrykuCoVCtNvt4c+ev+OV8VT4gKjwAVHhA6LCB0SFD4gK7wMhxMgt8BqgzuE9NrhH/m8agGmaI3ezKu4RQox/FGdwiUvFd9+gqXwZUePno9Dtdocb1QvgjsElxXFP/jketxRCEI1GCYfD6imRCfX7fUzTpNfrjURHDq/4R51OBkSFD4gKHxAVPiB/AOxlP79IiEXeAAAAAElFTkSuQmCC;" vertex="1" parent="1">
          <mxGeometry x="946" y="97.48" width="65" height="33.88" as="geometry" />
        </mxCell>
        <mxCell id="m9bmW4wcQwFx90PuDWb_-1" value="" style="shape=mxgraph.arrows.bent_left_arrow;html=1;verticalLabelPosition=bottom;verticalAlign=top;strokeWidth=2;strokeColor=#000000;fillColor=light-dark(#FFFFFF,#FFFDF7);" vertex="1" parent="1">
          <mxGeometry x="822" y="99.24" width="30" height="30" as="geometry" />
        </mxCell>
        <mxCell id="2FhpHMN-O7MePOAHMXiB-1" value="" style="shape=mxgraph.arrows.bent_right_arrow;html=1;verticalLabelPosition=bottom;verticalAlign=top;strokeWidth=2;strokeColor=#000000;fillColor=light-dark(#FFFFFF,#FFFFFF);" vertex="1" parent="1">
          <mxGeometry x="870" y="99.24" width="30" height="30" as="geometry" />
        </mxCell>
      </root>
    </mxGraphModel>
  </diagram>
  <diagram name="Page principale expended" id="HDynTnhbQhME7WlicQGc">
    <mxGraphModel grid="0" page="1" gridSize="10" guides="1" tooltips="1" connect="1" arrows="1" fold="1" pageScale="1" pageWidth="827" pageHeight="1169" math="0" shadow="0">
      <root>
        <mxCell id="Gm3EFjgsQVNfLWqenXtV-0" />
        <mxCell id="Gm3EFjgsQVNfLWqenXtV-1" parent="Gm3EFjgsQVNfLWqenXtV-0" />
        <mxCell id="Gm3EFjgsQVNfLWqenXtV-2" value="Page principale" style="strokeWidth=1;shadow=0;dashed=0;align=center;html=1;shape=mxgraph.mockup.containers.window;align=left;verticalAlign=top;spacingLeft=8;strokeColor2=#008cff;strokeColor3=#c4c4c4;fontColor=#666666;mainText=;fontSize=17;labelBackgroundColor=none;whiteSpace=wrap;" parent="Gm3EFjgsQVNfLWqenXtV-1" vertex="1">
          <mxGeometry x="86" y="43.5" width="926" height="811" as="geometry" />
        </mxCell>
        <mxCell id="Gm3EFjgsQVNfLWqenXtV-3" value="" style="shape=mxgraph.signs.travel.arrow_west;html=1;pointerEvents=1;fillColor=#000000;strokeColor=none;verticalLabelPosition=bottom;verticalAlign=top;align=center;" parent="Gm3EFjgsQVNfLWqenXtV-1" vertex="1">
          <mxGeometry x="99" y="104.54" width="22" height="20" as="geometry" />
        </mxCell>
        <mxCell id="Gm3EFjgsQVNfLWqenXtV-4" value="LB_RETOUR" style="text;html=1;align=center;verticalAlign=middle;whiteSpace=wrap;rounded=0;" parent="Gm3EFjgsQVNfLWqenXtV-1" vertex="1">
          <mxGeometry x="135" y="99.54" width="60" height="30" as="geometry" />
        </mxCell>
        <mxCell id="Gm3EFjgsQVNfLWqenXtV-6" value="" style="line;strokeWidth=2;direction=south;html=1;" parent="Gm3EFjgsQVNfLWqenXtV-1" vertex="1">
          <mxGeometry x="279" y="73.5" width="10" height="781" as="geometry" />
        </mxCell>
        <mxCell id="Gm3EFjgsQVNfLWqenXtV-7" value="CADRE_CANVA_PREVISUALISATION" style="swimlane;" parent="Gm3EFjgsQVNfLWqenXtV-1" vertex="1">
          <mxGeometry x="285" y="74" width="727.26" height="779" as="geometry" />
        </mxCell>
        <mxCell id="Gm3EFjgsQVNfLWqenXtV-8" value="" style="verticalLabelPosition=bottom;shadow=0;dashed=0;align=center;html=1;verticalAlign=top;strokeWidth=1;shape=mxgraph.mockup.graphics.simpleIcon;strokeColor=#999999;" parent="Gm3EFjgsQVNfLWqenXtV-7" vertex="1">
          <mxGeometry x="1" y="57" width="725" height="722" as="geometry" />
        </mxCell>
        <mxCell id="Gm3EFjgsQVNfLWqenXtV-9" value="" style="ellipse;whiteSpace=wrap;html=1;aspect=fixed;" parent="Gm3EFjgsQVNfLWqenXtV-7" vertex="1">
          <mxGeometry x="2" y="404" width="29" height="29" as="geometry" />
        </mxCell>
        <mxCell id="Gm3EFjgsQVNfLWqenXtV-10" value="" style="html=1;verticalLabelPosition=bottom;labelBackgroundColor=#ffffff;verticalAlign=top;shadow=0;dashed=0;strokeWidth=2;shape=mxgraph.ios7.misc.left;strokeColor=#0080f0;" parent="Gm3EFjgsQVNfLWqenXtV-7" vertex="1">
          <mxGeometry x="9.73" y="408" width="13.54" height="21" as="geometry" />
        </mxCell>
        <mxCell id="Gm3EFjgsQVNfLWqenXtV-11" value="" style="shape=image;verticalLabelPosition=bottom;labelBackgroundColor=default;verticalAlign=top;aspect=fixed;imageAspect=0;image=data:image/png,iVBORw0KGgoAAAANSUhEUgAAACoAAAA+CAYAAABdhInWAAAAAXNSR0IArs4c6QAAAARnQU1BAACxjwv8YQUAAAAJcEhZcwAADsMAAA7DAcdvqGQAAAVzSURBVGhD7ZpdSFtXHMB/Meb63dQuMTPU0HV+dNPOgVI765y6sdhQthXZk2+F4UOg0NGCowwcY7A3oWBB9K04UtrVPazFTrbCPmCxMttCxTJHwNak6exsiebL3GQP2pgcrTU317QFf3Dg8v+fc/hxc86995wcTVVVVYyXAI0oqtFJFB38hMK33qPg7fcTUxnBN3YZ/+3f8V2/TGwpHI8nieqMFsq6v8P3x/fwz3W03mkkSYpX3mqCwSAx8z40FQ0UHvyYmW8+JfKfBxJFNbocXvv2Zx4Ofk6Rz00gECAcDrO0tCT2t2XodDokSSIvL4+FV16nuPMrXF98AHIErcFg6AHQN3UgP7xHvsvJ48ePCQaDRKNRsa8tJRqNsrS0RCQSoVBeJJRXjDZfT+jeFFlPKhXUthGb+p1AIJDRu7ge4XCYcDiMPPlrfJ6sita8S/b8LKFQKLHNGgwGA4ODgxgMBjH1TFJpGwwG0f7rIr/6ECSKkqVF0mUTiUQSqq9FkiTq6+sVTbJU2kYiESRNlKycfEicTBUDU4S+/pAHDx6IbZIwmUxcvXoVr9eLLMtiekO0Wi0mkwmbzYbb7RbTaygpKSHny5/4+7N9qYsCOJ1OLl68yJ07d8TUhuzZs4djx47R0NDwzCGGGqLnz59neHgYh8Mhpjakvb2dEydOYLVaxdS6JIqujtEUmJmZobKyErPZnFLZv38/09PTYnebQtEd7ezs5NSpU2J4UwwMDNDX1yeG1yXtOzo0NITX66W3txebzcbo6Cijo6NrrhNLb28vXq9305IiikQBZFlmfn4et3v5dRsIBNZcJ5b5+fmUnxKJKBbNNFsi+qyXhhJUF3U4HJw9e1YMp40qosPDw9y4cQOAyclJ5ubmxCppo4roxMQEly5dEsOqolhUlmWys7PF8JahWNTtdlNSUiKGn0pxcTGPHj0Sw5tGsejs7CxmsxlWlhBGoxGLxUJFRQWVlZVYLBaMRiO5ubmw8paZnZ0Vetk8ikU9Hg8Wi4XW1laOHDlCU1MTdXV11NTUUF1dTV1dHU1NTRw+fJi2tjbKyso29Wn3NBSLer1eTCYTO3fuFFNr0Ov1mEwmPJ7lFaUSFItOTExQWloa/2k3QpIkysvLuXXrlpjaNIpF7969i8vlio/Tjdi1axdzc3NMTk6KqU2jWBTgypUrtLa2otFoxFQSbW1tjIyMiOGUSEvU4XBgNBrZvXu3mIpjMpnYu3cv586dE1MpkZaoz+djaGiIjo4OcnJyxDSSJNHR0cGFCxfSfq2mJQrQ19fH/fv3sVqta4ZAS0sLCwsLnDlzJimuhLRFZVmmu7ubqqoqmpub4/H6+npqa2s5ffo0fr8/qY0S0hYFcLlc2O12Dhw4QGNjI42NjfEVZzozPRFVRFl5rh4/fpzy8nKqq6s5efIkTqdTrKYY1UQBxsfHOXr0KDabjWvXronptFBVdCvZFlWbl1fU7/e/MCURRXtPmSLtvafnwbao2myLqs22qNqoItrf37/uPx1Wq5X+/n4xrAhVRHt6erDb7UmyVqsVu91OT09PUl2lqCLq8Xjo6uqKyz6R7OrqSmt3JBFVRBFk1ZZETVESZNWWRG1RVmTVkNRoNMRiq8ddVkWjMkuRzO4ib0R2djahqIZoaPlzLy7qn3IS0b+67o7H8yA3N5eYcQ+LN5cXiXFR3/gIvNFMXl4eOp0usU3GkSQJSZLIqm7Bf/s3SBL98weKDnXgKzKj1+spKCjIuLBOp6OgoIAdO3awaCgnv7YN39hl2OjcU2x6DK13OqNDIRQKES2t2vjc0xOydLkUvfMR+W82UljXnpjKCAt/jbJ48xd8Yz8Si6yeFloj+qKi+nN0q/gfg4uPp0KjleEAAAAASUVORK5CYII=;" parent="Gm3EFjgsQVNfLWqenXtV-7" vertex="1">
          <mxGeometry x="343" y="24" width="22.35" height="33" as="geometry" />
        </mxCell>
        <mxCell id="VqrlR4_iN_i2oVeqkXGc-8" value="" style="shape=image;verticalLabelPosition=bottom;labelBackgroundColor=default;verticalAlign=top;aspect=fixed;imageAspect=0;image=data:image/png,iVBORw0KGgoAAAANSUhEUgAAAFMAAAH6CAYAAAB71nCSAAAAAXNSR0IArs4c6QAAAARnQU1BAACxjwv8YQUAAAAJcEhZcwAADsMAAA7DAcdvqGQAABTjSURBVHhe7d1/bNP3ncfxV2ICbmhJuLI45zJyx4pzVUkKHlNGRarzxEaKvLG0O9rse2VbtYluShAtB5dSMY31muQobUdA2+VIN5Hqu4y2JqOKtFSNmlZmWFkkYDEbItt1mHAphnGJUZsagpP7Y7Gb7yfOD9NXXL7fvB9Spfbz+WSTnvr6B8RvfzNWr1498sEHH+DatWsQN2fevHm44447kOFyuUbUTXFzMtUFcfMkJpHEJJKYRCm/APU8dERdStmdZw7jzjOH1WXTkyuTSGISSUwiiUkkMYk+UcxXNt6Fkdp71WUU5GYh8P2lGKm9FyO196Jn2zI8UpyjHrOcm4q5/2t/j7/u+if868pcdQsFuVk49sQ/YnHOHDz79mU8+/Zl3JaVgZ9/w4mC3Cz1uKWkHDPw/aWoXP13+N+rQ7gyGFO38R9fycPinCx881cX8MO3LuGHb13CN391AdlZmXj5G3epxy0l5ZiPNvfigYa/4L59/4P/SxLzn5fOx4XIEPznBhNr/nODuBAZQuGiuYazVpNyzNCAMZRqcU4Wzv71urqMC5EbWJzz6TzMCwsLUVFRAZvNpm4BAGw2GyoqKlBYWKhupSTlmJMp/YdsAMCH14fVLVz68Ia6lDbRaBTr1q1DVVXVuKA2mw1VVVVYt24dotGoYS9V1JgrnbepS7eEUCiE2tparFixwhA0HnLFihWora1FKBRSfzQl1Ji3srNnzxqCZmVlGUKePXtW/ZGUUWPWH7+iLiXMn0v9v7opY4PW19dTQ4IdEwCuDMZwz2fmqcsoXDQXf0rywpRu8aDd3d3UkJiJmKfej2LZormJFyOMvjAtzsnCm3/6wHD203L27Fn87Gc/o4bETMTc3X4Jg0PD+OWji/HjL+fhx1/Owy8fXYwLkSFUvfG+etxS6DH95wbx+Ot9+GhoBLu+9Bns+tJncCFyA2v+6y/qUcuRX1sQ0a/M2UxiEklMopSfMy888Ky6lLLbLp+25HNmyjHFxORhTiQxiSQmkcQkkphEEpMo48HdP5/yrdGUB2aBDHUhiQzvu8OGViMjydIlW5ttxufMyDCuZZT+d9cIAIxMFSxp5FlCiabKGA2dsXz58llciUtegIgkJpHEJJKYRBKTSGISSUwiiUkkMYkkJpHEJJKYRBKTSGISSUwiiUkkMYkkJpHEvAk2mw1z585FZqYxn8S8CYWFhfB6vXC5XIZ1iZmizMxMLFy4EEuWLEFOTo7h170zErOsrAytra0IBoMIBoPQdR1Op1M9ZkrZ2dnIzs6GzWZDdnY25s37eICMHtPtduPZZ5+F3W5HXV0dmpub4XK50NTUpB41pczMzMQga1ZWFubMmfPx3phzFD/4wQ8AAJs2bYKu66ipqcFPfvITOBwOaJqmHje1zMxMw4sQPWZ+fj7C4TD6+voSa7quAwCWL18+5qT10GMGg0E4HA7Dc2T8inz33XfHnLQeesz9+/cjEomgqakJlZWV2LlzJ7Zu3YrOzk60tbWpxy2FHrOvrw9dXV1wOBzYvHkzKioqAAAdHR3qUcuhx2xsbMTatWvR3NyMoqIirFu3DoFAANXV1ZZ7AVJRYzqdTpSUlCAQCKCmpgYYvVK3bNmCcDicuEqtihrT4/EAADo7O9UtnDt3DgUFBeqypVBjnjlzBgCwfv16dQuFhYUIh8PqsqVQY544cQKdnZ0oLi6GruvQNA2VlZVobW1Fbm4ufv3rX6s/Yim2vLy8H6mLn8Qbb7yBhQsXoqioCGVlZVi1ahUuXbqEgwcP4uWXX1aPm868efPw2c9+Fnl5ebh8+TJ6e3sTd1+Qj2GnaMGCBbj//vtx77334g9/+AOOHz+Oq1evAuyH+WwnMYkkJpHEJJKYRBKTSGISSUwiiUkkMYkkJpHEJJKYRBKTSGISSUwiiUkkMYkkJpHEJJKYRBKTSGISSUwiiUkkMYkkJpHEJJKYRBKTSGISSUyiGYmpaZplp3onQ4+paRqqq6tx7dq1xFTvkiVLLDPVOxn6Z9p/+tOfIhwO4+tf/zqCwSD8fj/ef/99lJeXY+HChfD7/eqPmMpkn2mnX5m5ubkIBoOGtba2NoRCIXz+8583rFsNPeZkxn5rgBXRYw4MDIz7IhCn0wmHwyETaqn6zW9+A5fLBZ/PlxiqampqQiQSwcDAgHrcUugxa2pq0NzcjLy8PFRXV+ORRx5BV1cXwuEwIpGIetxS6DExGrS0tBRFRUUoLS3F008/jZycnMSrnlXNSMxkHA4Henp61GVLSUvM+vp6YPQrJ6yMHrO9vR2NjY3QNA2apkHXdXg8HrS0tBi+UcaK6H8CWrBgAb74xS+irKwMa9asAUa/iueFF15Qj5rSZH8CkqneFMlUb5pITCKJSSQxiSQmkcQkkphEEpNIYhJJTCKJSSQxiSQmkcQkkphEEpNIYhJJTKIJf20Rv4FQ/KYYs10sFsPQ0BCys7NT+7XF/PnzcdtttxnuKDLbzZkzB3a7HdnZ2epWwriYc+bMSdwwaGQk6UU7K8VbZGRkjLvdV9y41blz5xruviTGm+gROy5mZmamXJFTmPaVKW6exCSSmEQSk0hiEklMoqQxs1wlWPjvr2HhUzqylq5Ut8UEksa8vfzfYLtzMWz5S3H7155Ut8UEksa03bn44393LjPsiYkljcmwZ88evPrqq+oyvve97+Ho0aMIBALo6OjA/v37kZ+frx4zJXrMbdu2oa2tDaWlpeoWNm7ciMcffxxXr17FSy+9hHfeeQerVq3CM888ox41JWrMV155BV6vF93d3ejt7VW3oWkaent78dhjj+HVV1/F7t274ff7sWrVKqxYsUI9bjrUmC+88AIqKiqwY8cOdQsrVqxAXl4e3nrrLcP6iy++CADYsGGDYd2MqDFPnTqFixcvqssAgC984QsAgK6uLsP6xYsXEYlEsGjRIsO6GVFjTmbZsr+9Kzh16pS6hatXr8LhcKjLppO2mLOBxCRKW8wPP/wQGL2ZvGrBggU4d+6cumw6aYv529/+FgDw1a9+1bCen5+PnJwcS9x6Nm0x29vbEYlE8MADDxjWn3rqKUSjUei6blg3o7TFBACfz4e7774b+/fvx8aNG7Fnzx6UlpbinXfemfAtlZmkNebBgwfx+uuvY9myZXjyySdRXFyMtrY27N69Wz1qSuM+HnP77bdj0Z7A2CX8dcdqw3/PZnfccQdKSkrwuc99bnofjxE3J2nM2JULH/97358Me2JiSWN+0LIXsSsXELscwgdvvKRuiwkkjTnU04n+//wX9D//KIbeO6luiwkkjSlujsQkkphEEpNIYhKNixmLxeSTw1MYHh5Wl4BkMa9fvy6fHJ5CLBZTl4BkMWOxmOHD8OJvxg5NTDsmRv9WPBqNTvhDs9GNGzfw0UcfYXBwUN1KGPe3RmJy8l1waSIxiSQmkcQkkphEEpNIYhJJTCKJSSQxiSQmkcQkkphEEpNIYhJJTCKJSSQxiWYsZn19PVpbW9VlOJ1O+Hy+xN2rrIQec+fOnfD7/fB4PIZ1p9OJ+vp6HD16dNx9Ka2CGtPn86G8vBwnT55EKBQy7B09ehQrV67EoUOHDOtWQo353HPPYcOGDdiyZYu6hV27dqG0tBQHDhxQtyyDGvPEiRMT3nSura1NXbIcaszZTmISSUwiiUkkMYkkJpHEJJKYRPL5zBTJ5zPTRGISSUwiiUkkMYkkJpHEJJKYRBKTSGISSUwiiUkkMYkkJpHEJJKYRBKTSGISSUwiiUkkMYkkJpHEJJKYRBKTSGISSUwiiUkkMYkkJpHEJJKYRDMWM9lUr9vthq7r6OrqQjAYRFdXl6Wme+kxJ5rqdbvdaGhoQE5ODlpaWlBXV4dAIACPx4PGxkbDWbOixpxsqvfEiRM4dOgQvF4vampqoOs6tmzZgs7OTpSUlBjOmhU15mRTvQCSTvR2dHQAAMrKytQt06HGnGyqdyLLly8HLDL1S415M9asWYOenh512ZQ+tZhOpxO6rsNut+O5555Tt03pU4npdrvR1NQEl8uFXbt24cSJE+oRU0p7TE3T0NDQgEgkgg0bNljiuTIurTHLyspQXV2NQCCAhx9+OOUXq1tdWmM+88wz6O7unvCtk9mlLabT6URubi6uXLkCTdPG/WOF95kzNoga/3O51+sFRp8rq6urlVMfC4VCibO3sskGUWcsplVNFjNtD/PZQGISSUwiiUkkMYkkJpHEJJKYRBKTSGISSUwiiUkkMYkkJpHEJJKYRBKTSGISSUwiiUkkMYkkJpHEJJKYRBKTSGISSUwiiUkkMYkkJpHEJJKYRDMWM9lUr8rtdiMYDE55zizoMSea6k1m27Zt6pKpUWNONtWr0jQNLpcL4XBY3TItasyppnrH+s53voNAIIBoNKpumRY15nSneuPffjCd6GZCjTkdmqbB4/Fg79696pbppTWm0+nE1q1b0dHRYamZybi0xmxqakIkErHcwzsubTEbGxvhcDjw9ttvG8b87HY77HY7NE1Tf8R0ZmxCTR33a21tRUFBgXLKqKioSF265dwSE2perxdFRUXj/gmFQgiFQqYIOZW0xZwNJCbRjD1nWtUt8Zw5G0hMIolJJDGJJCaRxCSSmEQSk0hiEklMIolJJDGJJCaRxCSSmEQSk0hifgLDw8MYHh5O/LfETNHw8DBisRgAYGhoCDdu3EjsScwUDQ4OYnBwELFYDIODg7h27VpiT2KmaHh4GP39/Th//jwikQhGRj7+FZr8Qu0m2Gw22Gw23LhxQ54zP6lYLIbr168bQkJicklMIolJJDGJJCaRxCSSmEQSk0hiEklMohmLOdlUb319Pfx+f+J+vbquw+l0qsdMhx5zqqleXdexevVqnDx5EnV1dWhpaQGAaY0J3uqof2vk8/mwZMkSBAIBLF26FBgzuoLR0BUVFdi+fbslJ9SoMd1uNy5evIi+vr5xc0AA4Pf7cf78eUsMUCVDfZhPNtXrdruRm5uLQCCgblkGNeZk7rnnHgBAf38/fD4fgsEggsEgfD4f3G63etyU0hYzfrfoJ554Av39/airq0vcPH7fvn3yap6K+fPnAwBOnjyJ7373u9B1HQcOHMCOHTuQm5uLb3/72+qPmE7aYsZvu93Z2WlYj9/0OD8/37BuRmmL+ec//1ldspy0xWxra8PAwADWr19vWI+/TbLCDePTFhMADh8+jOLiYui6Dk3TsHPnTmzduhXhcBgHDhxQj5tOWmMeOHAADQ0NWLJkCaqrq1FeXo7f//732LRpk3rUlKh/Aprt0nplWp3EJJKYRBKTSGISSUwiiUkkMYkkJpHEJJKYRBKTSGISSUwiiUkkMYkkJpHEJJKYRBKTSGISSUwiiUkkMYkkJpHEJJKYRBKTSGISSUwiiUkkMYlmLOZEU72VlZWGid74PSitgB5zsqneyspKbN68GefPn0ddXR0CgQA8Hg8aGxvVo6ZE/Rj2VFO97e3tiEajhrX6+np4PB65h5pqqnv1OhwOvPfee4a1+JBVWVmZYd2MqDEnm+rF6KxP/IqNKykpQTQatcT8OTXmVA4ePAiHwwGfzwdN0xIP8UOHDqlHTSmtMbu7u9HT0wOXy4Xq6mp4PB6Ew2EcP35cPWpKaY3Z1NQEh8OBuro6FBUV4Vvf+hYikQgaGhpkRDoVlZWVcDgc+MUvfgFd14HR59iqqirY7XZUV1erP2I6aYvpcrmA0W+PGauvrw/hcHjcC5MZpS3mxYsXgdE39WO53W44HI7EvplR37SPlezbY9rb25GTk4NAIIDOzk4UFBTgwQcfhN1ux+bNmxOD/GaVtisTADZt2oRAIICVK1cmpnrPnz9viZCYyStzNkrrlWl1EpNIYhJJTCKJSSQxiSQmkcQkkphEEpNIYhJJTCKJSSQxiSQmkcQkkphEEpNIYhJJTCKJSSQxiSQmkcQkkphEEpNIYhJJTCKJSSQxiSQmkcQkosd0Op2Ge/EGg8EJ78U79pzf70dtba16xFRseXl5P1IXP4mWlhYsXrwYx44dw5EjR9Db24s1a9Zg/fr1aGpqSpyLT6cFAgEcPnwYeXl5KC0thc1mw+9+9zvD/6ZZ0D+GrWkaOjo6DDOU8dHourq6xFX65ptvoqOjwzC02traipycHJSWlibWzIT+MNd1fdwwavz+aPEbecbvMVlXV2c419bWhtzcXNNO+NJjJhOPc/r0aQDA0qVLMTAwMC56fIby7rvvNqybRVpiPvbYY4hGo4nptPz8fEQiEfVYYnwlPs1mNjMes7a2FsXFxZYZg57MjMV0Op3QdR1erxfNzc2WuK/kVGYkptvtToxDb9++HTU1NYb9a9euwW63G9Yw+nNIcj9fs6DHdDqd2LdvHyKRCDZt2pT06yJ6enrgcDjGvZG///77AQBnzpwxrJsFPebzzz8PAHj44YfHvVrHvfbaawCAqqoqw3pZWRlCoZBp5yjpb9rb29sRiURw5MgRdQsYM2/e2NiI++67D+3t7Th9+jQeeughuFwubN++PenVbAb0mMFgUF0yGPv9RfGgdrsd4XDY8C0JZkSPOZvRnzNnM4lJJDGJJCaRxCSSmEQSk0hiEklMIolJJDGJJCaRxCSSmEQSk0hiEklMIolJJDGJJCaRxCSSmEQSk0hiEklMIolJJDGJJCaRxCSSmEQSk0hiEtFjTneqV9M0+Hy+xBm/34/KykrDGbOhf3K4vb0d8+bNw7Fjx3D69GkUFBSgvLwckUgEa9euBcYMpnZ3dyMQCKC/vz/xmfaGhgbTzgzRY053qtfj8Yz7/Hqye/maCf1hPp2p3r6+vnEhAeCPf/wjHA6Humwa9JjJqFO9E7nrrrsQDofVZdNIS0x1qjcZt9sNl8s15ejLrWzGY05nqtftdmPPnj0Ih8N4+umn1W3TmLGY053q1TQNDQ0NwOitFM2M/mqOMVcaAOzdu3fC8b3a2lp4vd5x39VhVvSYTqcThw8fxqVLl1BVVTXulT2utrYWa9euxaFDhya8as2G/jCfzlSv2+2G1+tFS0uLZUJiJq7M6Uz1xt/ENzQ0oL+/Xz2CM2fOmHJMmh5zqrc2RUVFiS+ImohZn0PpMWcz+nPmbCYxiSQmkcQkkphEEpNIYhJJTCKJSSQxiSQmkcQkkphEEpNIYhJJTKL/B7jNNpqJGaExAAAAAElFTkSuQmCC;" vertex="1" parent="Gm3EFjgsQVNfLWqenXtV-7">
          <mxGeometry x="667.94" y="57" width="58.06" height="354" as="geometry" />
        </mxCell>
        <mxCell id="VqrlR4_iN_i2oVeqkXGc-11" value="" style="shape=image;verticalLabelPosition=bottom;labelBackgroundColor=default;verticalAlign=top;aspect=fixed;imageAspect=0;image=data:image/png,iVBORw0KGgoAAAANSUhEUgAAAU0AAABrCAYAAADzctBbAAAAAXNSR0IArs4c6QAAAARnQU1BAACxjwv8YQUAAAAJcEhZcwAADsMAAA7DAcdvqGQAAH2bSURBVHhe3b1n2C1Flf59V+/n4DERHEnGUTGAAQlGkpgA04xKBhkjCiKOEUWdcURQEBBBUBBQJIMYh2xAQCUoSYLZUbIzKiCMjOfZXe+HWr/qu+vsQxAM/7eua1/dXbVq5bUqdNhptdXXyn3fa+HChVowN6duMlHue6WUJEk5Z6WUlHOWl5SSlJL66VRd11U4SUrdRNP5RUqpU+o65b4f+oBzCfW1PSVJs2lLUkpjmm3fvu81mUyklEZ0cs7KOYec09q/D5lTSoW3nDWdn9dkbq7qw/ng2un3fa+u60Z1I714H2AC93Q61WQyCT66Ct/3vbrJRMq59AndTefnR/iggbw5Z3VdwYNsM3kIvhdr77pKExtrZJvZ5+hhMpksRkfB53R+vuoJ2wDjeJLrMuBm0ZRU+DU/qMX0liV1k4mm8/O1OcHTdCpJmszNDf0M30hv2GBa/If+2A97cV7tMZlUuvBV5W94Iabol/teqevUT6elLuQljpzPbjKpcFU/5r8jWcI/uq4b8dvquNVrCrvOjv/BP5cU50uqr+0z+PbSytD2vWvxP8jp8d91nXqL/z/+8Y+an59XxqYpJc3NzWkunMWNSIGhbjIpjtx1xRFxMiM8rcYKhw8FUXoMbAJTqpJDKE+MtA1KGhwFI0iqwYjC+ggGV35qnFUhmwIX/E3m5opzmzFc8bU0vA3VxQBtAX8fQSepJhmhh6jvzLnghaDPETzw43rtGnzwX/UfOiBQBr2WPv10WuyKHho9Y3OFTb0vAQg9TxAEeOXDcKWuq3bgiI6q31lxfeecF7OpNMaN3buuKz+z+WQyKT5DDATvbnNgq69Zm9u5n05rIsJmXSQ8BZ993xfZLNmjR/RX8ZJw43oyNzfwZTw6fa6d//a8Dzk9mc/SYbXr3Yr/4Okexf+Y73H8DzE4ssm9EP998Ef8z83NVT4mXaduPgJwwsgVDGLAkcDTaSEWAY8DwECKJME1TGJ0nLALxfeMng6PQUNY6jO0QkEpFcfnuirBeM+M+oym5hxFzvHsxAMrGkbw8EGApGSzKHdE49mdqPZpRvc8SiLjZERfeIQ+ehSJFb3EuTslNiVA6F/7hrPLdECQKvRYZcCJTSfOX8XLrIukYPaZzM2NZEd/6MwTbDJfaB1dKvic19HRzt0GXvBBAh+aCt3gT/CGLlsfB6a1jUwn2MDh4LHrOnVNMHsgU99Hsu37kvDcBjL79SYHcOCCj85mhBTkw4//fuM/aN2N+GdQLGBjnch0V3FF/YT6XFcrkxIwzWiFU1NoozPXVbmRhEhECiaqU9no14eiUXDFzRLBDAWtZI6AUAQ6OFoe3dkUPIDTj+B049cgwigEdBMofl1xxWjVx2iVUtJ8JE+lpN4STRihylyXh5YModGeZ2YnzCxDBup7khK0+l7TWGY4XGJJYv2z9w+5+ggY2tz2nc3c0Cf2yOYvVc+NH9WCLi3R16CIc0V9jiCDD3TR4iTw8Zcql83kwC/sGXqDH2Ss7e6bMXNt6UIH/hTyy3XSyh8FvtzHciQfdN2HT8EPW0nAZWzf+kHIl2OG3d9r8T/G8fcW/xXe7Ffh7yD+0SXwXQVql0wRzDlGA7IwBSSDs4wJYRjvI5yPjG9CyoRvhcph8M5mBDgqSp2lJBluGV8opaXV8lrbbAlLACYMGUssnAe4ruvqHlcO+L6h34fT5kiwXWfGCV6QGXrYofITtiMIcDp3PEZ68CF37Y9doo2fw0plOSp0NyOw6lLIgyVs6jPZLmaGLKFIhDVx4cwkqcamuS/JGz0Cj7/6nqWa4EB/qVkVoMfWH3L4eLUJNmxmYK4nbAgcOuYa25E8ajG4ESzxBy5LHD37kOH7yJhZyfhKB5s3yZ+2exb/i/P//6f4n7O47mjsY/paEaHkMEBuZiZOMHUT9X2ZrlMIWmAKnAWyKckLCoUGeFI4GYHZT0tgeLsax/Q2T2aJkcUDry04mMnq/eTGNxk5R1ddSuq6iSaTuTLNd6dipM5ZXbN/OzL+LPw20/OELRVnHAVTOHBpsllaqzd3PgsifgSOJ+Q6M/ZgjICt9nY9tknNA8zgRQDQbjbqItkCB20GMN9nK+gsmC0w20GBOoovEaXQ/Qx9yQYH6hW+6fRS8MvMTk1Q+wCUWN0QI3GeIwbgtaVRdWI8eqnxbD6V73H8x+BpOP/y8V+Of634Z3UYMT0srVwpGIbOEEAojJZz1vyiPymlpGkkspyHEZwfjGSCgdI4dz+dVl4IbgxXlTBDUcBR3OGhmbqY0WDs6N/b3WG2KrwvMOiGEbjKNYJNkpK61KlLXbkOPSquJ5M5JSVNuomSUqnHOOi9CSKn4fxn2y9CZvSLUxKAtb8FWXabmyPhF/LZqQeO65oZkyU4102VyZMJMlbdDMEuFb+A79TZEpqkQ4LDB5DJZ29NWxeJHBnhAX6qX1nCrzCRqGtyiNUBunJ83o9Sfa2xjesefdNeYZrk3dlKArwjek1MVd5CP9gP/ZFkRr5wt+J/kZKtJuAl//8o/qce/7LZDgA0plk3KuJ8VqnOZ7MmDxA/0q5GWIUQKaX6SBDBqnBev3tc8ZSKQi/4r0oPx8HZweU4pGJA+nOdGodGB3ERdFjyhRwWIE6rdLG75sY3fKUm+OgjCzhso2Y2QzBVfdA/HIZ+jj/FjRlok4DduUgW4PC+VdezEoI9kjPSK3owOymSf8JORmNU4jrFzFIRECM7N/Z2PxgFpeFT8J3BZzqlDf8i+BRyQDfP8GXkdLhWJvwLnlLYqeJ0Hj0RNf5Ncmn1DF6XqbfkgGzA3fP4tyR7j+LfBsLo+/cQ/50jaKe07shM3WUjHcqjD6UKAZHYl3Flw4wH5+hoDC+m5JSUYv+vxec4RiO0jYTV8eM50KrgSAwVb/DB6IouCi+dch4GnPqIlclfkwC0cSSWl6Gb0R12012lNWNZrOCxZ7/V+W4CsyYYG1Wr3ASN2bxULu6M6Nd9BIeHf3jF0ZLt4QEHz5Vm1E/n50cBouAdvXCOXqhz/PDDTInrqst25tb4UMVj+uPafUvu98ZHDVjrQ5KmnycJYom2qSVucGiGfl1HxFU7u5LJBB58DV5d/v+34n/xwf/ux7/Z/C7EPzrosi+3jAkFotLXRjcrIFMlvnjiSMFMfaA5nKvC2EwBxXTGSzKmZUbIfVEAwmcLZscDz308fFxl6Yc7j12MXm4U8Ajlp065z0WP3cD/ZDI3Mmxve3YZp2BTPq6rbDYyp3AeDzra6siHPq2/CJbGNuCkELhdZ5vpLa6wecL24ZwBXO1CQprGIyhVDkZpo93zmEqTbNAJeCq/BEv0ow+FQKg4Y1sCH3F5Kj9SfTgZnfaNntu+Xmo9Mpk9oZFNL7SjZxGo0GMGRUxZYluwYEE9dz7g2X2hD715PFUdR6JSI88kEmPV470a/4sPOukvFv8xqPzZ8T/QvCvxX/Wf8/BwexuYig4yxDkMzBEngTHFvqYbibbKcEMn2ezBH7eRbBmA4M0onowHgt6VnE2RXfMGR8URTu8PcMNzSY6Do9NOyRYg8EBwOBwykixq/3CmkZEM3vXjAUg9ju/yKN64SZaQcwQbfLU2oC7bTQbOsX91pqBFoKXwFZ6BgxcKySPbrKW14wTbtUkXP4ySbJZOf2R0X4En5yWF/pEXv/ACPHpF1lrPfqDNpHPoATt2NnPMcXMFnboN4SHZzDfbc73VJiY/8Jx7UpiJkzZLSNgCPIntmXst/ocH9nWP4n+YQf/t4n+QA14C57DsqgoNAtTBXBcjQA5lYqCOfbCcNZlbIDHrCOMkn9FEEMdFMa4FAAWBkwUZ55WHKCiBevAnWxL0oZieoGyWC9P5+Sp/CcxhBlH3aM1p6ZvCEUe6MaNO5+eL0W1mgf7o50ZcjH+bWdG3txkHOoFuJjlacFf9mB1G+jNbEYzwj9x9PACPvInAckcz/VdZoh546FQ54MPaKk/MgKKAG7oy/btP5WY2Ig9a80kPBHQgZsIuj/VDP+47ikGDOAAfuNFnKw9lpKumTqZfv/aSLZnXJWizJaDWZ0PH6DmHP8L7nx//5S2a/+fif1Eb/8NeKvxXeUeOa0L5HoYLzTWCSoXZchgcGsZRvGzW4f2qEl2ZGpRelR3X7rAppvq9zZCqU4aSXQY/ygILuBx7bT5Kj3SA00df2nzERVf8mIE5napPSxL05WF4x0U7pcoQ9f7YDzqizfF7sgFewX+1TeBok0LFGU6L3zh/bUJw/hX7aV0EamKgMR9xP0DXPIwvfo3/gL8mLIKEWbjToETQwF/1A0sW+FsBHwd+1avLF3xXW5juW126jyp4dH2MbFa7jf3BYwD+FIODIhlVeJOz7UNioFD358X/4GP3LP6HeK82+EvHf3fn8d/H6qLLEdjLP241bfGZE7T5IcfpQY98lDKBE4wjMMbr7RY8deXmzPBmBQRhjD0wH5GBKwrL9XEljJ5YhrjjSWXpHEZKvvQK588WeNCphmQ/1JzKlVMMU2AYuWuxkVYRrF1zI6bitUJdW+9OIeMxxSwzhYPCH8WXGiQID9SRA+GwUWq92TYzQlvy51dAx3wyGHjBzjL4OgsxHiq/LLm6MhC5zODxwUmmHyFjKjPYPvY1K6z5Xi0zEkWV2/jHf8DlvorPK1YnKexD0LbBm21Qq/jYI7OtkGwDVR9JpCa5GXz4IIGPpghsBsHM4E2cRlvLK3TAlcJX7378RwxYLIE33aX4H/zmzuM/9j3/rPiPGLuj+J8WmOn8OP5zzpo8eIWVPth1nZ6z8y5a/rFP0FL3f4AWLLyffnXeOZVpFIdyuom96xulMBCC5YEhmJEFDUJg2BIs8+omc/Xhb3CORiYzBMqqNBpDudMmEoApNpvCU/Sjb85ZXVcSYYdxolQ446Ol3crtBR1UPk0Gl7sa2p3W+nW2tKoOE7p0+o6fghOP6oyGGh5SVx7Kx14BUPs5LvwFHwGvy5PCFgQddCv9Zluh4o++PB9JG3QJkmoTl09ld9rpw1PHne9IcCR15HY6JJjqO6Yn7ACvJL4c5yQK+lRYw1/1azRcjuoH6KXrdL/7LtTyyz9YK66wglZacUUtu9yyut99F0qS/rRoUe3rNDwW0RlHdA/+ux7/UdfISLnj+I9Bz9pb2WudZtAY6TESoZoJAHEyJWFHm/uY6Sd1nbpJkf9Pf/pTxZ9WW32tnFLSW047TykcYv72P+qILTauQCNDGuN98/xSaRsHLTO20TvpKanvp+om8RWhlIbPtEVSo78Ct+Ms/fvRJ9QcluL1tJW6wNckxJoI+l7S2LEXMyT9zIg9j9IYzpYfZOm6GLkt0J2G8zedTute0SgRRBB2loCQucoavGKrbOd9LMOmzZ1F13PL0yhx4mCxpGkTV5XVlkH0kYbZ9IT9R9Ml7ar2GHTtfjedTutXaGrf0Cs4qr8QnLbEq4l6VsHO5pPYJZlfUtAP566/EQxLwCgVL3qfMbNS9F1xxRW01hpP1ZOe9EQ9dpXH6BGPeLiWW3bZFrSW//u//9O1112vX/7Xr/STn/xUl/7wh7riiiu1aNH8oMdGX7N80Qt8zo7/sSzomWvOR7HiMX+34n+4Bo5jSql1p8Vg7zj+pdxnpa7E1C1/+EPtn1Z9ypo556y3ffOiobOkw/5pg3qO80KgChBOVfeqLJm58gmaUbIJvDyeMzhvUeJ0fl5zCxbUaXprFGnxmVJ7Dmwd0WK0KckmEk47aqZhpjIyHte1/3hm5jrxwKy0MZBZkj6e8CrvloDgwx3NZYS+X3tAuHzuxN4XW2DHFic8esKhDbxtQqW96mYJxW2EzGqCEjj4boMRum4XcFX+LRm5rvFP9JDjxkqbAN0mskES+1Q5Q+cj/hs7ePEEMKusvPJK2viFL9DznvscrfKYR98h7F0pt99+uy66+FKddfY5+tZZZ+vmm28e/LXxL4UvSncn/scz1LsX/0VXdx7/g+1l9l/1CY/Xm7Z/vR70oOX0uMeuop/89GfabY899eMf/0RdF1uIYWt4G8f/4gOlJN16223VnmnVp6yZJelfv/GDoaOkw//5OUNHU0DBO4y4KG2YCZmT/9kzoSHpzJ4JFRqtAp2nysMdzoSGxFkU1IyatmxwBXq7Qk7NSCCKmVDVjclN0HeR2ODr3poJScXJ4bVc/uVnQsAuSQbHM8JpNHy/FnlcP/TlURnv637m+INI1W+2QYtjDe7Aj27ARyk8TaQ88NTSg2/so/ATdEMdfekDb5K0+lOerFdtu5XWedYz79gP7kH506JFOvvsc/Xlr35N3//BxVXu1i/vevybnv7s+L/7K6Fll11Wb3z9a/SKl/9TpU/5wx/+oE1e+grNT+dj9nj3VkLdZKJbbrlloPuEJ6+Ru67TW7/+/RGhw//5OZXBVll+nrpOW2y2qd6285tH/W+++RZd9sMf6l3veX+F++pJx0uSXvaKzSUbYRcbicK5JSnnXpO5Beqn86OkNoklGUYdOWQzereK8SDMfa++ny42O6Zva1TwtbCtUwAnSzI4iRvI8Y3qA452EtnIAZHVbgS4bCn06LbyIHBeHKcnFvpSvK87Hnw7Lq6RofIxI6FxPbJlPHTsMlOgo/hoCIMivIPTYVs8yFJtC6+290h/x6clzIJH+6HRx+EI/urn0S9bYum6To/6x0fqX3d+s57x9KdV/H+N8pOf/kxHHn2svnXW2fVlALf/rHP3M5mOWv/BNsli5K7F/6BXtwPxf//73U9bb7W5Xvfq7XRHZced364f/OCiQn+x+Ld4WkL833zLLdWO9TnNxYoJl2yjnOvqQDnXu9GnnX6m9v3EJ7XvfvvrJz/7mdZbdx0devCBI6WKJWIoK9kUHWf15DGZMJsYHLTOhEJAcLsTd2zKs9y0AO+n5dmwnruHfJIt+MLQOdvDvegJx2HDPIKNPkoxeqJ0FR0hK8HCHc9qoMZBPfEhV7LgB2+2x1yqoa2tizuVyZO1yVZAY5kC3eA/EcgNDkp1NvOTKg9JCRljY700WBJvEpEnHafldLwOX3Ad9u2dWZOvm/GAfS3hG+AdqodAKsdOk8n4QezU+DhlEs8G5nhKJTFbnjHQzs3N6U3bv05HHXHYXz1hStLjHruKdvvgB/TlLxyr7V61tZZddhnpLsS/2wz9jvKHDd662/E/ngUqbPjwhz1UO2z/On31i8ffacKUpBtuuKHacfH4H7aG7iz+U4rXKD3ZeMmRGLJ/QcecfEBerq+48iodd/wJOuGkL2unnd+us885V0964mp6/vOfK0l66cs300tfvlnti8I96AfHHEYVCud9zCoQEKH7GDVyJK/Ku81CXRkKAzo9FAkvvc32WuOTmAnWRKA3hs8hZ46lDH3B6TJSUoyCtTQ6oR8y4tSe9BSPxbQDo/eviY0AtplDZskUibnqLgr8cKzJGFvZdR+Pungf5IMf9IlNqK8BaLpqE04Om2dLkEFo4DlspXge1m09yw/akmOA7fv4crrJXgdF6ogNBpvgYTo/X2wV9dBdaqmldMinDtCrt9t25uNcf83y4Ac/WDu+8Q362pe/oA998P168hNXu5P4H2xCbGb764ui99qt9r278T83N6fnP29D7bXHh3TCMZ/Xv7xqG93//vev7Usqxx3/BV177XX3SvxPp9PxBztGJeq7mCHgpF2zcVpmEBEIXSqztrgT/v2LLpYkPWi5ZSsTCuV4lmekobQJxYWgf45k4UquM7Jmmdbuh3QskSTNxbu+4JUZajG6PIIUbTk+MkEh4Xh/xwNPjNQuXw7nYjBonRTj1YTQJFvXhdejS/hGbhIRiSxHAiapuNwk5tItdDRj9IcOsqnR4SzZXGc4MMmTJFRLM8DnSEr1Os49OdcBxWSYlRAdb03SFshV1pTqNxZ4UkS8URbyOF/IWM/TMMgq6HZdp4/u/iE96YmrFRp/J2WpBQv0wuc/T5/59Cd13NGf07Zbb6lllllmsfh3H+siYab4yEeOBMVdaN3N+JekZzx9bb3/ve/WGad8Rbt/6N+1/nrrjuDvqJx86mna74ADi03uYfwjX33kaOczL6yExI0gWZA1swiQ5Zy1xeab6e1v3Un7fuIAnXDiF+N5zaQtNt+01h93/Bd00vFHS5I23XJbpZT0sY/urvXWfbbe/28f0hvf8Fo9/OEPkyRd+IOLtNPObx8p7qmrP0VvefObtMpjHqOFC++jm2++RVdfc41e/8Y3K+esFzzvuXr1v2yrVR7zaEnSz37+C+297yd0yaWXSZJWWnklvX3nnbT6U56sZZZZusD87Od653vepxtu/I2Us0487kgpS6/cYhvJBowTjj6i8q1IIgS28+iFYCFRAudH4UAR2OgYfD47bNu9z2jWFUFZeYBmOHO2xEO9j7otPSl8IJJpTTy8lnYHN1baAm34Bc/cggUjvD5T9KQ4wmm8eH1LO9ueZU3CDa/AoRfvu5gN7e5r0dEwU0EH4IEuR2h5SV2nVR79KB11xGFt010q3zvvAl1x5ZW68qof6eJLLtVtt/1vpb/mmmvo/ve7rx7/uMfqsas8Rs9+1jO1YMGCFsXdKn+49VadfMppOufc7+qSSy/TfHznwCcpyOn67qd9/LnDOEEB73ZDJ5tv+gq9aJON6p8+3t1y6OFH6NDDP1cu4o48s9pRrJl/+4CKz/TTqf5w6621Pj3xqWvnnPPMG0FqAs8LTtNPp9pis031jrftrH3321/HnvCF8rcISjrskIO0ymMerS22+RfdcMON+sJxR0kqSSlF0lx/vXV088236PQzv65rrr1WT1trLa237rN1zrnf0bve835J0vOfu6Hev+suuuWWW/Ttc76jq6+5Wg9/2MO14grL613veZ9e8Pzn6sP/8W+6+pprdMaZ31RKSS950ca6z33uo1e9+vX6zf/8j97w2lfrhS94rs47/0Jdfc01ethDH6qNXvB83fKHW7TpFiWJn3jckZKkzbbabhQoLd/MXNBDdRKfkTRJCeWjS+AchgFqlNxILndwl9XLyPkM3nmk7o4C2vl0nF68T51NWSKrNCNhV1iWOTaYJBsImKkw82S56jK4TF7ahNviVctbM6hQNyqpi337IaiHScTQl36jxG88Or/oP+esNdd4qj71yf1q252V22+/XcefcJKOP/Ek/f7mm+sWjCxRy3wB+ZZasEBrr72mNn7B87XBBuvpPkst1WC+++WyH16u8y/4vs4+51z95Kc/G/lKa3eK89V1nR796EdpmaUfqIc+9KFaf911tP5667Rd7la5/Ior9YEP7qZrr72u+M+98JTFrbfdVuHSaquvlSUtljR5ThPBOB85XDx2sflmZUZ56uln6Kof/VjLLL20NlhvXa2yymN04klf0t77fkKp63TiMZ+XUtJmW26rnLP23nMPrbfus7XvfgfouBO+UBjyu+yv3EJlBniUln7gA/Uvr9te11x73fDPmXE88ZjPa+mll9YLNnlp5W+Np66ugw/aXyee9CV9bJ/9RgGKLO98+1u12Stfrmesu6GUs75w/FGSkjbdYpsqd2KmmZJeufnW0oxZXybxzUgarr9azFiy5aIb0M/BA0w9ptimsACsxk/sI1liCfhkTgMu8EMLHtp2SssPAyiFQYI2AjvXGdo46bmeKm5LTi1PsuTEgOJ8zpIxTgpc6M2LD2yj+tQNL2OoJMKq65TqbLPCMwjO0BOzGn+28YEPfIDOPPVrtf+Sym9/+zsdefSxOvW0M3TTzTdLjjeKJ4NagmblWdKKK6ygjV74PK3zrGdp9dWfPMDeg/L7m27SL37xS/3w8iv0+9/fpCuuvGoxW66yymP0oOWWlZT0uMetosc9dhU9ZOWVW1R/Vvn11ddo34/vr++ed/7I7j4xoH5kL4+78AH8kev/jf8+l1Se0+y6iXY+84KKRJY0y3LEgiH+WXHSlT9U7xLL8LdYb+nqq6/R6Wd+o06PMzO2JG26xZA0119vHT392YUWo/PHPvJhrbfus/XMdTdU3/e64Lvf1qmnn6l//9Du5W9OzRFzzjr/O2fp1NPP1Ac/tPvIWU487kjdfPMtet32O0qxxN926y31j//4CN1nqftohRWWlyQ9fZ3nKKWkL8TyfLOt425c0GHZzvIcheYmKWaSZx4/zuNwfp7sgXLdySyhzkQb56/8+F1kSbzR1E0m9e9IvE/bH9gUfBugzaLGulcqCX+xQcGL8ew02keJ4GeMP3iMOmCR3/swk5ylm/baddt1wz4rOhwnYgs22wMeaA88tTQrnwzy1h+9FBmzXrTxRnrbW3fSAx/wgIqHctHFl+rU087Qf55yaqXT0qC0fIxsA80G7hGPeIQ22egF2mKzV9ylGyt/b+Xb55yro44+Tpf98PKRLqTBf+ulDcRc35VVAm8ESVKXJU0tKVLKZncQIHmq/KfL3GRu/A+LfUG+z37765nrbqinr7OBNtvqVTr0s0eoX8KSh1GWtg5hmhnAlptvKkm68sqripMo3iMOh9lis1dKkjbZ6AU6/ztn6bxzv1V/D3/Yw7TM0mX/cvvXv1YHH7S/Hv/4x+q//utXuuiSS3Xq6WdW+jnnOilDyX3ceS9AQ1Lv4ms49BW/6NvHTYdsxpmZIJaQVBUDSO0fiTP38WwZN208WCqfqSwnCQ5LxNCutoiATnwtZjrVNJ7P67FDE4SjH7hDBnQFbS8jGzeBrhl9+vjWKKN+tgRQ9Wd81tmB6S2H3qodbfYJrNwO6DBndfEtVXAA15YyCx3sorB1aSu67uNJhHYWWwO4zzr5lNP08k230n77H6jPHnGUDjn0s9php3/Vq179eu2w01v11f88edCxJeIBWZMs2q2KsJdCt15+/eurdfBnDtdzX/gS7bbHXrr4knIf4O+53HDDjTr08M/pn1+5pXbZ9QP64eVXDHaygaGfcdMP22Nzj0HNiv+wI9tE3aSbjJ6BpKSYSfLXsn3f1yN15VXG4e65Iu/4XcUBYZmZsC/kxYVsg/rsc78jSVpttVUrTNkzLeffPudcSdLZ53xH+37iAO27X/nt8/H9te8nDtDBh31WKSVt+op/1uVXXKmXvXxzveu9H9AHPribbo3NXZRW3twf+Kn1CtlIXhbArmja4B/DgIf6ZN89dENXGJuRkEj9WTbw+ohJf+Vc/6nTcaZIGJS+j0+8BR8+g4IuCcf5Hga7ISEhO7wCny1QK3/mlLLBc9QeOGgDn8wmNdnbEw1q9n5To0flrLm4EZJCfwQEdV3IVL5PMDwATTs/+GWmKUvYFPDyuFZUVr24HlKX9Ic//EHHHn+iDv7MYTr8c5/XRRdfUvcJhe8HP9kmFznsjt6gm+1xu2pHe8qk0B18NKWk/zz5VO3wlrdps62201e/VhL130v54x9v18mnnKZ3vOu9+udNt9Qhh35W199wg3I/PPkBv8hbY4USvlPjKXwAn3IbYmfwof+O/yRpS0mSxWl5rS3nXP/eAaYKQ+F05sDJRm6MWoqN3FE36pOzfB/uhhtu1M0336K11nhqgTWHTSnV9oesvJKOP+EknXDSl3T8iSfpxC9+WcefcJK+8c2zlHPWMsssrd///qbSN3hfY/WnSLyp0XW6+eZbtPyDHyxF8EnSQx/2UC3/4LKMJ8m4k7EsVDhpfebMgq3yS5Lxb2CSAMKwvc1I0E9mZGQ2Y8mbvpWXGNCwRdF1JPHQsyfP1Cw5wVvpjBLa8EskCng3m8A3MkHTr6GFPiov+FU4MH1SBHwtlpA98VEcFyWb/bL9XQd8e1+SSdmvHH7AlSdEwn/t0ZpAUHHJtiIcBv5ynaEPcvbMbswvvLR13WT8//EiWdiAFB1rIk0plclN/O0L7VLR7dVXX6099tpHL990K+273wH69jnnjpaof63yh1tv1ddOOU3/8eGP6HkbvVi77fFRnfvd7y1mM4V9yS3YBPlH5za7TGzNRLz6JEL8RbX1nU6n5e8uqtKsDMYcG6nve83NzY1GK/rTJ+eypPe/OC2l3Jzwkdv7D+djRz/pS1/WCissr6998QRt//rXaIvNXqm999xd27/+tZKkk770Za2yymN09BGHafvXvVpbbPZKffD979XXvnSinvqUJyvnrJ/97Od62tpr6Z1vf6u22OyVOubzh+s+C+8j2XOcZ5z5DS1cuFDHHPlZbbn5ptr+9a/VIQfuX4NDwTNGcAPUNkugwPTNErkADG2OG7iM7iJ5tM+yOR3gB+P2ms4vqnUUbAMd9N4mZIKq5a0GcwSmFCsSkxX80anSZWkDTtddiiCHjtAfCbXxP/c9adAluJALnqlDnwqZ5xYsGPhtgqufDv8pBK6SlLTYPmZvWwjwDx0GFnBQsr0KWOgNy8jsz/+OZvfjWPG6PgYA2R/U9dPyoLn3937lvKvfYHCf5fqGG2/U8SeepF3e+wG9cJOXaattX6NdP/BBnXr6mbro4ksqnnurXH/DjTr/gu/rM4d9Vu/c5X16/kYv0Yd3/6hOPe2MWJ0NvFOSTRiqv5stql0aHdDus8uu0Re2HfV7wlPWKl85OvOC+mm4Rbf/UUdu9eJKLEeG5Xk6d9y+77XVFuVG0D77HaDjTzypEuhS0rTv693uE48tj/RwQ2XvPXfXeuuuo2fEjRiFs+25+4e0/nrr6JnrbqgUU+ktt9hML3vxJlpllcdIkn7zm//W104+RYccWpbfm2/6Cr3sJS+q7eXd98u1z37764YbbtSKK66gffb6iFZ5zKN1++2364dXXKmzzz5X73jbzoV+jDTveNvO2uiFz9cySy+tm2++RWd8/Rt65jPKK22bbrHtKBiqMaK4vhQKHhks6nMkpvrwr83E2sEoR9B58FPcBjjBwENDPxJ/b8t7X8pSch5Ga8W5z86wferGN6dG/cHJ0ZIP7ZW3wO+DhZqkQ6IFr/OMjmoby9fGNimSnicnePDzFP9BL74NWxrv0TN+Xqr+RrYZl1YvwPlRwTP2bP0RnYmZqLVXOav++nrtdhEfFB/F/1R9n9XFllzfZ6291ppafvkH6+EPe6ge+tCHaMUVVtDChQv1hMc/bvEBzgp323/281/o+utv0LfP/o6uv/HG+M7EsPKZxltUrT5av29L9VHTaZ2wtfo1v+H5Y5mv/eHWW5VZWa26enlO85V7HqBHrP0sSdLPv32mzvr4HgNxm3UQwF48iVIQhOU0TLmTYHDql+QUKIZS2w2nKw3hRrDh4LMUDywfVKCNx0Jq/3Iymt1R3547DepaPNWRlxDomX0ykxEY8NHuyawkuUH+8pxaefWPZ9Yo9EPPThs6zALhw+2fLBm5Ph0OXbR+Ag3oLokH6tzpXZ+tToD1JxNaWHCkFDfO4qMtpQwDDPThnw9u1OALvyK5uy5b3kZB2/RzOcGf8eO4bvmmH3DIP9Kb9W11VvqNl7HOV11hubwmA6W1qwb3Voo/zltmuWU1ifsfv/3t7zSNL78P/l1mvMP9kLGMVTdu+79i/N96220VT32N8pLjP6/bfvvfuvW/b9AlXyhv7qBY/7G/iRCccw0c19O4cQRsb3ekCa6Kq01QjYHhteL3IIngbRUGTiluophz0Y9rHJTpOrBOF5qONzXLXd/XDIB6U21+Wj4WMLVp/zQec6lLVHdAM25BNSQydNBNJprQ32WLpQY3hpzHNqFVfI3+uy5Ga9MBsF0kafSa7A6jwq7YAl7A4bbuSRC2TZAJfHg2/6LQVnE5Tp6DtADxY8UTT4jwt8w5DzdPUsjgugqgSieHbrL5XYVjlhfFeeht+8HplCQReOJDKfiA64VgH8lmy8pE8ouCDJyn1NWEKbeJJciqJ4s/Bken49e1T8jQ970Wzc/rd7/7vf77f/5HN9xwoxYtWiSpzFYTT+lIo7/GprjcI17/RvGfcy4zzb7v9cAHPECTMFKOtzC8A51qJo5gceQY049ecs6adN2wZA8DJbvZ5LikEnwKgVMEcG8fkJDGd0y9oJBZbVLgNvmoG80GrC4tYSkpDQGLPO1AQRkZtHF+eGH0BT/JsA1ebFAuxst/RuxyDsh4ZG313MoGftcjPM06J2hZ2lT+ZwR3G3z4C7JXeRp8LJ3oR13OsUfa+KXjBr6blJl3efIjZIxj+Uxg7F9akpIGHS+mwwYWerWf6cJ16v7PXl25Yz98vwG62Lnwf3c/E8h2zPjzijn39YkYNX6Hz5UbXqV4vesZ+V2eJcU/PJcENczwp7EkH2a+0Qm7/Y3j/5b4NNx0OlVNwxBg1jJv/8ftRxTsxunjiyauKPA5/pTKc5YscYCf5zuD5lzy0dEM487R25d4Ek6icgNKQaufMUpJg8J62/yWGSeFU/c+0rfB4oERQTvt+3rbiPau6zSZTErANzO82l9lMZQiSaRIIG0CRa99bPTnkNWL44RfaUjsvc32JWl+OtV87BuBC3lnlWRbNMkGPPiBR2akPQ5vyYgZGLrvYlboj1Y5DXBN3S/DTjzPCSzFcVNSDZQCB881AbA8JAnyTG70ww6BrOoJX3a/qLA+G8s2q+37SGIxK8S29shYnJT++CX6M//L4aedP3Vg8QKtvh/+Mrc8NliK4+0mE03nF418gSM+4frOfNHoLsS/pPJmVZMw+dRe6VP6/TnxD46ql3sx/vugNUqaKRyfRhyBozPiDCmCsyrMEkIKh3ec2fZxppaI6A9uv8Zhvb6zGylVGVFaHka47HxmO7Sa6TxGoUzbO56N08gSVI67mskGGZdlFq8EAvjQcTbnjs4VDlw1QeGkOEQa/pgsxSAzNzc33JQymwJTk0PUk9SpYzDowrEHuZJSNymzmerkubCaZUuzopMadPbcMEGKLXjOkjrXWRoNOHMj/ClmVKkbkk3VOf5ntnaf72xWJfd7k9V9uOJmcKk6DR3m0AGJ25NDLJtJ3vgPQU4ZJS2rd7hKKxJlhct5NIMs3YY9v6LrYa+x6GKI78X0sFj8D/uC2ALdV31EwuRfGioPUehvFZUe9X/t+IfPzi88CXi9L9thpAbsjOVX32yoykZ7v2PsghLIrfCts7Yj3GRurjhEtNfEQrDl8vjTFMcLnAwOxZGDmDlFVWR1BAscDybjt2setK66Cp5cT8B6cObY9+xtKe64+IkZkskojZ1BBEwzc0ldN2yNBC9u2z70VesscRcSRsP00tqOrwHBQ0pdTd4+I6jwkeCS7TF6MHlCg++alJpCYLL64Tql2M4IPMiusKkiEF1GdKzgOzGrCXlz9K36qzPWmOkl/AucxadafUEnhc+xTQA/zofC15glj/iJmRK4+r6vf2BY8PHtysWTAbFF8UG376fhUmNbFriIaRJ9/LOs1zGrLfX47SDTcBOo8fu7GP8BUO3Txka/xPg3P7yD+CdWc84laaZoYIlMB4AIbEou2hshY7YBQfrgtJmHiU0BlVkznDsA5zBfz82gmREh+nDHC4UgkyczL4NcMUuJwHDe1CqyCVw/ej905+cuEzjoA+42+Xoffp6AKw67UQfNFIECDWZibgsC03E7/srfjBkBSbEtJFLs73WjJNwEeAZfzmJmlrHxZPgUHTgr38wkWe42egSP27bv43Gd4MkHIu9HQe66NO664TGkJdBI/I2KwRD46LizWZrq400LapJHRk+2RUdmC+LCEyw3Y2xPuE2+0tCXiRD0SFiFB2Qw+jGDL8mrPI6YYwVBnxwriJz7MniHXgYcgdVuApHQq23vQvyjF2IY/0CmO4//iI27EP8dFfycUUcIEifufTDMxAKwVUybGDmnMMsCJ31TzGYoTs8D0IOdc/ZmkwVrikTSxVIt51z/apgRuZwOTjaNd7LlwR/wHKHrAQ0/XFNI7sjpOiPRuGPIRsvEDIli+iw6DpxBezq/qNJK4YDYaRrvm5PQg6DEktN0MZ2fr/pyXjkHjsJ5u7qY4pwWmGJW1SQ5lqqFxjAAdV3MSG3AYDaDXHFRBwX6OG+KvnL/tJsj5brU1wfO8YsIUgYidIwvFNDBh9BbF38WpuB1pDuTqdTbdkXDe+qGgab6ofVlxofNXb/oH7xOW/Gr7UazjX/61IHA9lrLQ/ODHgf72FJ+RINBc+xTdzX+E4Nku0eOTOALXeDf2SY3VQeN7fjPJCmW55W5xoDZEKQZic4TQlWmOSyzPC8wCK32Bx1+fYxUjAAkAudNkXCFQkNQTwR9PPpEUq4OWEfyIeGC2481IMI41VlROs7T3CzKZlQKxs2hC9/qmEwm6mYk+VZe+HFZkBuaQzBPVPfTCkCFS5ZA4bfCpeFuKDQV+6n0JRBTGvYGR7SCDk4Mnsqjyx9OClxZEpYgQs4RfyoJzpea+J4nsFaP3r8WH4iawCnNsSUVNsuR/GljcCEQJ3PlbSOFvSkpdOrxwtH1XJMCM8VU7jYDD2yywRYdUaCFHbPfPDTZqj4s/tF1S4dzNXasyXiUQBf/eHB5pKvsZ8IzfEOPpJruRvy7DDUOzHcZnFs9DfE/THDA7UeP/86JQ7hlyhE407QJ52+yvCcQHK2z15Qmke1htjJmTgjtunQKuh3PsGFQSxrtnXjqu3jQFoPVIAmjIxcKRjaWYFVuNxj8WKKnsBeMXFXPZsxJvCLZ294bSaTy04yEyCXTP+ftJnzpMsBz5nz17lzQa2ZCHBmxXRfA+XnhxRJ7QV7aw08ozNZq4six9zqZi2AsvE2n9k3L4JXXRfnVZBTt6A3/o77ONNw/6nOiw+CDTzvOFAHGYBMNA0zfa37Rn6QmmbQFe7vuqo6tTxdPUJS96fHWDH3gCVuWuhi8bTDFNm7DxWRYQvzL4n9k96BBG/FfBoeJJAaacjOIFd4kVnvlMaMCmxgYGtp3Fv/wQJvQpdWjo4rzz4z/OtPkp3BR9ggJ5hTB5XeAva/MMSFMSTNmM8BWI5qQ0KyjsAUiozuzKOBxTsUMgOWvB5Ek9Xl44D5r2BKQyqwFhbujeAKROV9UBt5xMqPgyOjQDYYeR3z6AGW68QB3HJSc41GWZibo8mX2o+KOuc+U+r5XkmJQicAMG6Rw4lpnMznoIPuw9zXghb+qH9NTla+5AaPQ/TATiMGVu612gwF+XWcpApwEowgM6GTba+8iMWZmNakrM1jznT7aWhvnZpCT+XtUjuR1fRQ5QkfYIGaZrS4YPPi2reuec+gPx2GG1vo1fYGvs/kowLnvZot/Hq1zvyep5cXiPwbAuMmXcx8fCokYr3yEbvpIkH9m/Pd3EP/I5Lqqdpuhp1nx33WpjDp1WWiIOp4v7Lra5kE1a19m2H8qDxFT54UbE/5znKOZVvSpOI0+dRg022M/yWTpYlTL9rK/z3JRLDJA0xXuIxHKgy78EBB+dH69JN93Mz6F85lOcwQNcrm+RjyRSAM+B50uXigocOPkCx/Qdn5SOIzz4UfOCZCSHwZ++niKAh3w874ktjqTMP2pTcj1rZ2SiMoMpdCrfbx/BDW6G5JiwTmZK/t9OYKj9OW5zXhEKtpSm4TNDjWobGATft8EvvtD7/w0x1Gx5KZ4PKteB1/0QZ6yl1neBuun85rOLxrBlP7ootxkG+rDhpFE4FnERBP/isGZ84GHGDgaeTz+GVQYqKaxDyuFQ0WpOO8k/t2vC4qIlWarELn4BfAYxmLWY234C19TlFyxNntU47CFed/fKsro+2Lc+UV/Us7MQKWy11Vwdt2k3iFM8SwYvNQNd/iwGROKgpdkTjOJx2m6SPLg63PWNL5aQz/ozfoF4WEUDVx9OAIOUvcxA9/ElkcpZuvo1R29vo9fA7Xc/cf4AahkWxxDYhr6TUczkqT5adn09tEffQ1wxTcqP+Zk3qfA2ZaJ1TOAICv9svmPVAYfZvVTWz1k2w/UjNkzy6E+ZhCV95qQu5rcvNC/i5sR4J1Op9V/4DHbjKTF7fIrdKSY3aAT4F32Ubtij9faHVamT4VOscliJRNzkTAizuDDaYgA76clAXWTmkCrvsLexG4XKxR0U0AWj/9sM0vsQjIpfBU805CjxH8ZgIYtjzJQEP8ivvtplXE6v6jwGXzgG9BxPSaL/y5in2v4zGYb+o3kCh1yDMKja+BichmBWw05nnW5YSkZ56zvrqZiFJt1ZUusVQBLEjnuxk7tYfqWZm+Pq1Cfw8FGxYTPoZAKk7O6eGCYUpya5rEBvJ6fzHg12QAYfbpIVp3JT1uK9tyXJTDwwE6aJSTHntcaG6dRw2/f95ryWqDBOlwOh+Q3mczVmThfoQJe4YiOo489R2kIJHRSfMb0gy5sZtbFzBcfmcT+IcssD1bwdzFY4C+ljkF6WGqjB2YP1fGDd5cb/unr20bA8CRFhScpWDACD20FfUrO8W3GSApCNuOtTVDtNwugk23Q9ZLNx8pgMRezcfCVm1GehKAP3sq/8ehw9bpA1baS+MYxi+3rX+HU+B/HQxnwyucL++l83XIhsUJzVvzL9FPLncR/Mv/SXYx/x+mr175McMoIV16iV3k/1V7zyrnslQ0Ml5ELIsVYwyMlCAoRL8DAdApHLOdDnfdLTcLlmtFy3h9fsUCuex6zbvoYbKvAVomVF3P4NCOpSMVVoR0Ni8EEgnqaw9EcJmP4VAIuB+++bTHwXmYMk0l5q6egH+swk4Bshl1sNH5IWSwtjf60mV053hT2R2/tDNf7VhxRch7PnvqwI77kdKqPdMPbSZ39kVulb4ldjR7giwGBQl9+BaQsFeED/jN+B89NUBf9FJuUVVXsg0YQO41sOk4xOGBnT/rI3sUMyumkLr6zih1jr1CKrYxsWxP+EWWzkWyWp5hN16Rd438YHLrGRrPi35PMqERSnBX/PFbV9iu8N8kdO4SP3XH8xyB3D+KfxxZpi+X5RIsWzauPPalqFJbNfS9mkwrF4uxdGFwEHAYOIV0BJFOvd4VAc0kCgaM6a+PQvMTf11nwsLRq8SRz+qqMrtCnnXqFA/ld+X46rQ/0T2LJ7n2SLbcwavIAsQTmTtyzp4veRo5vidyWW57A2+LygSPHjJiE7H3RJ3Q63/OJUnng705sFtbZXpf363irLJbsyR+wT6nMsprBQuZT0jiZ1IFpxE/I28jtduY3Skw2Y4VeDh/yPUSFj7pPjfbtebdbqneDS9swkOawZ61vElPlL9opGd3EwIF+yhbXEEs5tqLKdTyNYUt0SvWZaCcJ0Qd91G0V48dXQHcW/z6I9Xca/4NfpyXEf8aWdxr/UX834t8HB2wxP51q0aJF6i3+u6LkskS+7bbbtGh+qvnY68m5/L1FHeHMWfvYuK9MNkulCo8TNkmF/Tjq3KldWS6E4+/iAWGMlmIvFPwKJfTRxp4h9ByvL9Fccf62h+wZQGD94xHsUw64y97TeOaRR+9cF1mH5ZQiCIdBKnRT9y4LXHUaFaem4AQpHCJZMoM3bsxIQxIi4Bkk4beehww5xwwm3gQpfUOPNpOtd44jgFxvboM6CFV5Ssnh7NgSH+p7fy1z2NwHrnV65Jx1M6rPw3JxZEdLaGUWNmxDpRTbCaEDT5jFtjn0NGwjBEChywBEYrSkg/zu+xTkZcAts4Hy8Dq/kuiKjJO5BaMluULH7TV2mE7Ll96db+4BzLm/WAxM72L8QxcZ0Ekb/2XfM0vxWBLF7en4u3g7DJ3cWfx7f3gBL7z7BGV+OtW07/XHP/6x4qt+vOpT1s6OQDZika1x2olNy3MuG8MjJq3/rHMvs+qhWfCPEwDBx6My9OXmiyr9wTD0i8YRnWQKJND76jhD0pkF3/ZLdgeadpyPfRpJdeYxzEZImqWOPaBhT22MowQnSa2UlOJrTiYr8ju/hcagJzCgX7ctsvs5pfAzdrpZHyoBluL1kiLIB/3ia5SW59YGwPg1NnbbOM7F8JufIyt8tDqkfjqd11zsFbpMg+/YzcAl+I/T4Rx+p/bdBqfRyu08UXIMREwmWnly7stTJIbH7csRnXexN8l1G//QpCwmr52Pd0W9flxHDOSc6/v3yFHif0H9jJwiRogXp68mJpxW5W+J8T/YcBZ8l1Kq03mOBXBwVmmYFdCRIwWkEIMZjEYbM1jH1TdLgOm03CCCPjjcESpsX5Zj4OKXbGnpQU27l0JzPPI5DRIj1/yAyc2IXGQqm93MKlka8TZEF/uQo72mkeP4MqVc0+6l3s00p4A/v3adKFyYgECvCkejvw9OTqOzkRtd0YbjefHrnIcHv8DpvAKLr1DgPUdigLb/ps3nCZ1/t6fzCC7kxz9ph0d48Rkkfus6UzwDSzs0wON+jkx+nLPvRLo/eR/auC544+bKtBzhCXqlDDZ1vof4H5IPN4ZdT7QhC23Ug5e2aY3/EgfYdJBnGDhcLyX+h4/MYPfip+OvInnCxG7w13UlzgpPgy6db/renfjvyt5Lp/Il5fJtO4K4JE4U1Gs6ndd8vIExeh7SFAlyrl2JMkcgswOPUfpYDsFgaxiE9r4pkmcXX8Ypyo0gsBkHuJIlD84n9tyWLCCQwXngGj78HBwkxvLYxzhhUlw2zofBasA76HIwLGU4G4rrqTOHc32muMuZGz6A84TjODXidXiOFl05HfhGfi/IQaLzQRL84KI/9fP296vonIK84MeO1E14k8dgKa28FGggI/KB33E4fDtjnJ+fr5/hA04ml/scZZb+oA/tzDZa+BazNfAAj28W+GHgId66mM1V2cxXcgxKvIPtunB9QDOXGVnAlcQJDUnxr7a2YoytDlZcTpfC9UDfkyfxX+IY3fY9M3fbu7yH8d8hKAAoE2EoEJxMJsrxn9DeBqMYBeL0c4YnzUeOaXelwEO3hFkNSZflRteVmzH85ubmyizURh/oI29vwUodtFFiy1crK3KCw8+BnY8Hi3EUxax+PBNN9Vrh+JS+n9Z+FGhN4qUELy4r58jr7Sxnu1iGpdjLQTZKYkbvySgPe4LUoz/o4EvoUbGdAk7a+CGTw+cIVtet+5jDEqT4Mj+Sl+KDyyRMkq8ae8ELcjk92Qw2N8lHpltPPtSlGCT4uY5nFfq1wTscy6yyyh/4ONJvfjodBreID87REZOgSdyEdH2riX+/5rxr4h87t3opNOZqTAw4Cv2cS26BL2xBG9cl/qcW/yUxo4+5uQXVH/lBH132f278IxBCOwGQcZybm6vKn5sjARQhMSCjR7kuyQv8FIzpdKhX5ac4uguCENQNuEo9v77vNd98ReiOjJ1zro9cIa/j5xrF4vA+O/LlTOGhJLoUr5DNzy/S/PyikKvI74nRR81Bf+48Q+C77pw/CnLRBg6WjR5UsuDpY5showdLkB2zUn7mJ+gG3UGTtuqY0Yb9SD74g5cUyzR4dfwuO7qoDt7AAkefjiRivukJDn5kyZlrmV7Qg9sdXlwvHOEVvsDNcYS/GThmwbp8zif89znuOZg+BirDEwzI0MU2Vn8n8U8p8T/4HjqGB3AVHY8HYXKE0yn1Hv/jWE9LjP8BF7++L6vibhT/w/vjFKdzd+K//O95ICF4ELAqMdqZbShG0rl4Dc2ntmXkhXjWokV/UjdjL5KjO6S3FzplVPKRHbjC5zgRunIdl9NHsU7HledtHMHhxzwjEY/p01Z0NuFTdFYKvTI6DtfjpUfZ9C68sQRrA3DazEAGHIMDJFtyt+2uGwYbggebu/1cv5y7vpwH143Cb4B3/bczs5SS5ubKV9odZ9FD8beJfWLN5UkGS/+Uhptfc/60RDObcX/UyNeGpEJfh2E2i14cn8PSJuPR9cC5z4AU8rndC0/DXjewTqvVAf2pwx8cHlnVDDbt9ZLify5WPl3ou8T/8OEaNbHl+vZ26GBjYgA455N6599xdbYX2uqE61ltHMFRj094yloZRryTl1mKpT7PGEX75m6UK2FYio7puEKc8UEwgmLxvkUpFjQznF8zePe6sUMOCQhYFNs6HnW81TNL3hbPsCwvM0pmouxF+d1B9oMK/bJHOizhm322oIODgoM6ZFCjb1kyQwbsByw0vK8a3WRLriN9BhxBSrv3B3drR2g5P33fj2Y6yew9kpm+5lNq/MDp0YZOuM6Nv6jRfeXRko3XowfXCXCuC/hyfbtsg46Lz9AHnvt4sNz5b/t7nQ86bvu2tPrhGl5nyTU3iv9Bb8C1dFyvs2CdbtvXbUE/ZPbS8u51LkPbHx6gU1+j9BHbmeTcEbQImXG5cThnFKJeCqNjQGPcjS1ziMLwRDw7CF+aIVCrUFeSG8ThciwjXBdlxjwoUTMCmrouZmbUI0/RFftOZeuC5QTbGoUey9Cim8Irs9KxA83Fw8zI4jwiEzMpbOD2yuHk4KTd8VA6m4FBDz/x4vVdvBY66bp42rPsIzoN55vitpslU2vb1v78mLHm2FcbPwY2DshZfCCzt9HuevQZM3h7ZubGn/PPdWsPftACL+3EBX3LaoOtIcMbsLP6uwzYymea91b8pxg8gCnxP9xoAo5zBY/I7cV1433hS3+j+O/oxEgOMEw4URhkbwMmcVSYQgnOlAtKnb97TZ0LlRoDoWzH40I5nNOjTyu88+UO1DX7lRQ3HG38CE6ZYzlNxz3gG+4SOnzBSWIrS/0cMwyWGZSWh45N/SYxeKF/wTkECT/XE9ckCaft+FmegtPbFzQvCbRwXbO8H2iObxbSNsv5U/gBg7TLARx2Rx7OWxytf8h8z/u47pC/iyUqcOBz/OD0NtcBOIFxmR2OxEkfL8BqRrJyGwJ7b8R/u9py/PRt65wfl5t29KO/o/ivHyEmKGSMtIZUEHTny2EcRptZCmvri3KLwlG8zwigLUs2CEFxBYCDumTLD9pkvKBE5EtN0AOLnBiOdmR1Hcyb0p1/iuOGJ68DT8Ff9i5ZjjP7dBhowbfPFPxmB3fW6Q+O6gBNEDlfXu+O1BZwppTKjSSTU4bTaRfcQ/Ic+1qxKdsV2Av+KaXvsBc61BW6/miS04eHYdY/4IN34NnTbXVE4gAemtN4kwRaMl9NNjgC73JTkNPhFHrxuChbPIMPU+88+bXL4PpK9zD+JzFQSMN9EUqrT1n8IR9tHKGtv9P470AC094BBjhmSxiMLjKHgfjY0IPD9hHQ9GPpiRBM611QV6Ib0fnlui0ojoKiFPA+mkDXFQkctF0/XfPlbm9z3v3IPlTBN7zJQBnzVh5Jog84/FEKGS/0pW4unkX0R4W60O/EHvnCVtit9QXw5bA9fDhN8Ey6rg4e3h/4gmtIGn5jDBqF/jhYedDZnRcblQGm6Av+SC5F3sX3UcEx7BEP9na+ucHmBT/oI6Bcb/Cf8/Dom5oA59zr0Re8s3/vR+DK3jdJx+SxWHF5ZPpCttQM6q3NkQ9YjnlG/ONjwLCXSYHP1MzgvbjuiEPnFX7hk3rH4/JS8HUKNFRj7M+L/w7kVLiyENSLOwuIcZx5+4MuNxTnswQvS86BRguDQH50oQY8Y7ouaNufPrRP7N3kwsvYMCjU+1APXErDw8AFtgQ/dw6Rdeg73tJAVo5FPpJnjtfEY+BpZgTAux4pyRykt9EXuvR3vVDP7AN6LGH8WsEvj6MNOpv9HGJ7Y8x/iv1dcFDKa4vD7EamqyJ3uTECP2xnlPZBv17cx7p4qYNrZBzsMNgEHQCHbRWP4WQL/lnbEvRDRreZ8wm9Mf3C83zzXjmzO4edxr6cmpjm3GeWHheL+fQdxH+Xys1HEuWiuxT/Q94Av9PA31wW+OPosjoepwueWf3pQ/vi8T/gpR/4u64b/sIXBbezJ1dm32RuEEEII7jCEJDzeZaRwQxKTGEAivfxOhcEoXMzgsCPKwC56A9sbvZkcXjaO5tR5pwXm6FRXAYeuHU6RVfwWI7MGkmu4ruksUQf9DN2Io6ccw2/XSylJ5PJaBYADuxGP/QIn9gYGI6T+vjHOFn0cXPB9ebJUcYvenQ9ywIX+Vs4Ztzz84tGyQAdwQ/9oKngB76dZ3RfEkhJtK3M1CF7qytgwAfuZL4OXfdR9MEgNshb/ACZC06PgeILHf+1E8VlBq/7Ne1OD36Rj3aXnX7I5/HPNgQ3v7quPMtLEh+SOTorgxO4i+3GMzsK+vB64LwvPP414788pxmEQcY5nVwolMeoToFpCn0g2kUgp0aZYglphldzPrF9MhfY+cMRnA/OUQSwHnTw57hLv8E4rlRoc5zF1/x0XlPe/CFZpk7z03llIX9ZyrKMc/yStCj+ehTH5M7sZDJ8hg76zo+P9u40wNKmZlm2JJlSvP6HDiextHdcHohSbLoYXvhw/fFzPpwf+pKMuWZGCT1+3relMW8PyYPHfQM+vK8vzXMEC36YzN/QidNW7NtPGnlEYrEZpuuaNtnD484f/fsszU/ni9+YrD57nFVcrxTnz3kBDvr06e9i/PuXnUr8TzQfs/l2Ztzqoj3/28R/uUZW7CM1f+HryFsFu/JcYIojdeeCMHiBlcZvI8ADCoQG/TsbBVAS8CjLDcm5tzsvOBh4UMyYfleXxYyWqrIOm8xcA88sgGSIk/jD2izlmeFkHs2J5Oh65rrrOi1ippvLa4zTfvwCAh8OgVf2Nr0gN7qRJRPOi0zDQOf2wRaOB1j6SiVw+hzfj+SD0SYT9kdurlMXX9eJcz6phqzC8Rv5eV0QfVM/mczVc9qdPrBOV7bcls3Q0BM6buvR4TTeSkMf6BDYzoKbfq47BqZFcTMLHoc33YZYoB8DGqUkK2bSAz3niWv9BeN/Wp8fnYz+3A/9Q09/d/E/HoSrnhRCQkCmAL/GGBCVjZrA9OEQznAlZAmz3ddwGOqzGYxrVxhHV4YrDpmAo4/TgW5vyw53mMULNx6QO9UECb/049xlcH34/qY7Q5oxejKT4Ue946fP1AK46inoQBuazpPj4xxYCrx5H+g7f/T3vpVXGzDQu/cDtvUFfy1WEWwuf6sTf5qB0vKs4LsE9ODLwHiyAb/D0cY5MrvcMnwO67yCB7kV8gFLInfcqfkikmzPmYKdfKbmcUD528R/uUYPwMAbuqGAP/1N4z8GIgAwHspyheHYMgdAIW09OCjgG+gMiqa4AH5OH34Iy8/pO4wbCJx+bJ0LRaUZy0H/gYN2DAE+DJab576o88LeFP384VrwonfsQT3ytfgZtZk9IZfjRIcUzl3PMienD/7gDkZSSWYL9OL14EdW6HDt9a1MHN2PgOGIbMAC7zw5Dwr5kIN2Crr2esfvxW0OHHarL3DM0Lea2EhmV0laMDdXeDSfBy+00FkXyYLHoFq7U5xHaKEv6uCJfvlej/+Bf0qygdTb6cMPn+Ln9B3GZQOnH9vYdF+5K/HfIRQVOKADERwurAe5GmfCkVjClnbVREHhHJquhNJnYJxr8HmfVjnuyC4ffVC+46BAb2Ib6U7HeXRlt7y6gR2/muCFH+fRg7ntS71MzpYfCvWyjXBk6m2Uhk/gXVauJ80NBPjm2uk5Xcfd6gjc8MJ1e0Q/9O1t0IJP58fx47sy/fTNIIStgXM5wA0/jhe+aefX9+XlAgavtrDkRm/0a+1Ztw5sSent8DttPlwMXodFPxTwue9By3WY7lH8j2erjlfS6J6G65rS9nHZ4BOZC74C95eO/44lZx7/bYpkSa/c9WI/qqs/kCS7+5vjzi+PyxTFDLMeZ4LiSnFBqUdQN7onFto5B78fHX/LR1sHLPRwWjUO4fSBcx6pc0OQfFq4VvZsScOdmuL6cbguZics5+an5Yvy4PQ+MieR7duBj3aHdbp9BB44aHO9caQPR+yFAzsNji2v6J52BoK5mJXBC7g1Y6aDjqBL8oN/Gd/0b3mBRjL/4eHuSieXFwvmp9OaJNELLwDMwqtIItyI+tOi4blM5HV+vR6+oIMOKMje0vaE6wXdoSf68KMPdBU0iU36gMvhnRYwtDtd2l0u/Y3jvyObUkh+ngA58uhD5tY7f142UsDgTGxW04eC8VqlcA7DtFPf2x4YSuWca4T3fhRXOgpyHvzcYejrfPLoETRTBC+B3crtOHFSd7RZfNLXZabOZQGWBDDty0sEsgDlmUHwcKRvbwnQg9BhaaMf+Cjo3nXj+sGx3V5e6N8mAeiyh4es3gff4JqfzLbgo3BH3NuhBW/oBVouD7g7u0HHchp47qLDD/1lNnSe+r68JJBC5+jM4wM4aLsOXG7gqW/9v7Obd5QWBp2SpKjniYpZ9FxH7mMU5HIdTrryuBJ9vR0YbMw5tNyfZvFDaWWjP3B+7jD0TUPyHgeuI0MpCkFhyJkNJBXOCedQthvcldni7poRBoVzTv9ps5SaxAwuN8tO55eC8NCmD3jVzGhmGR25XBfAwo/rEH58VgNvahzF6YEDWNeltyMzCQ0Yh1sUd2NTJFJp/GEFh3UbwHtK5b12l502dApd5EA+vwYXpdVHDj2hK/jjWpao2gHKE4DrnT6cU9xnKMC4fLJlvvMrm4WwfymN/9OeJXaOu8h9H08ANMHJj5s+Ml8FFt3xc3nglzZsgT9Q7zqkD/1bGi5/az9wzdKz47+r8d/HAIN+qae43v/W8V9vBMkecwDIiaJENcI7HERcWArt3qdVuuPxPrLg9XOnOW2WZu1sAXqOD7l8A30aG+oYyRXs/WfJy9GTI/2RtR2xc5McSXxekMPhZUnCZUV+lucEIDMeBZ+88jjpyr8j8h3EPmapqRCsR3SYbNmFjOgAnTgfswqyYoM+ZhD4ArJQkNNldDzodBKzUXBS0JvMRhzhg4IP0JbCp5jlVppd+YISvxRH+lH4eAfnnX3Qw/FBG9hkS2JKNjsAg+5d5j7ezgPG61odum7+NvE/PH3iA4b30T2Mf/4R0/lC1+nPiP+OCwi0iqAD5xgHR6WfzBDOuOMBd2fBAW3anUnnqeWhvfZ68MoFtZkY7TkMh8JTjFrwCC4M0MqMHMjrfEHLZcGhqKef1/koh1zg4ByZ4HkaMzPqvD9LQ69zGPjuGcCijecf5+cXf9Sna2YEjjfZLNBHfzW2QHZ4IDFS3Je6JmlBu5VFllgoLS3vjz5bPlq5qHd78gwmQU6by0DdkuhhdzUJU8ELeubo9a4v+mXzwVb32IWCPPr/Sfz7TTfwStKyyyyjTTbZSN29GP+dM+WKSM30XDMyvIJxCiOZKwomXRDacAY/pz9w1OM88EpxxfkMAV5dkdSjAMfZ8gweP7oswDl9cDnt9pz+4JjE0gLdT2zGBb+dOTt9gSU5OU7nWZHouLGAbH3fK/cDbErlecXptOyJTmJGNJkbP6QPXmg5bxTwqQlItyVwsoBeEi5ZAnJ9ck0CIJG0MM4PR+DQGzrs7LU554E28LHvyKDkS2rkmCWPJM3Pjwc41xV4Z/GNLpwfaODL02bp6rpAXr92+n+b+MdmltDy8KJDFy818Cyt/9UIMCRMf7mh6zotu9yyWn+9dXTKaWdIVp/C3tO+/Cc6zw7zm/bDiw9+nPa9lJImy6/00A+6oGoci2tXNm2t0jl3RdKGwjFM2w7uosgSIGR9jmruyOHczhe4KN5OPbLSx4/QQj74IclS3/ZFF9CAHs7sBTkpBHsyx5Lhgh8vyZInNFymWXtsros+Ah9cFX98ZRunpJ3CufOm5s67LEGiU7dbqw+Z/TlXo1NvdziXm3PqnR/0BT9Ox3FhYy/gxR9SKv+ZLvedgHU+uR7BpaSuS5qfH2Y31JdZ/aCjWXrSDHs7HqfHz/XisA5HO3WzcLls6MPhOXf90QYPS47/4iskT2DLsfzPkO5G/C/3oOW0/jrP1ldPPrX4QRP/JFrnIaU0+m5EsUHhp3wHIBI8ACjGyyzDcY2DwbTjob3FNwuOMokZFjhRcm97NlN7CDzZFHss5Hi2RwEHBRzOr5qAdbz0h26LD179OtsynV9ubnTIeOFczYxwFt/eBq+OA6fgDSHggZ2bDP/eyRJcZvNWf+Dl57MSNd+upB488AmPDqMZNKl3+gQIP9rQMXQoyErBHn3s7TkP0GOl4n1S2Bv82JDiNFvevLRyTSbjGaUkTSbDo2I57lDDM/2zfcsT3pxvaECHdnDALzT4uR4o2KSt4+h2dTy0t/hmwVEm8R9a/ik/+KWuxH/55wJkd5yF34me/KTVtP466+jLXztZ2XzfaYJj4Hc8kEK/4B34SmUCMjDQFurcMGR6BO/7Xq/aZktddemF+tFl39cVF5+vqy69UN8960wduN/eFbbve5115in65mlfG+HHCDDreNUkkS7+drWlP7HlLXw6bmREsa6wZLO+3Nzhpg5a4ILXtji+Pv7H5pMf/5h+dNn3qwO2jjhrBgaOZNsI1MGP68tpo2vudHPToc9Zn/zEPrr84vOVYlaz3TZb6UeXfV+v3m5rSdLT115TF513tj57yEGVH3hzWpVGM8i1PFBcL+DrLQEB3wY/uFLYeZutNtcVF5+vrbfcTNlmIvRDfzu/+Y360WXf1047bD/SI7Q5R58yv3N52+L2mU7LVkayAYo2ryu8j2dYfT9e9uVY+jkONXyCC56Bue/ChVrlMY/Wc5+zvt78pjfoLTtsr7e++U360glH64vHH60vn3iMPrH3R7XLO/9Vr9p6S933vvetfICz8Pjnxz966ZqbaLJ4wU/gG7z0HduBARD4gU756190wCpwrj4SucWmL9cLnvtcfeU/T67PiEM3RwL0Z82HZ8yJfz54M/AFrSJPp65VFkJBRHZXEgHbPuyNfe3kU7X7nntrj7320Y9+/BNt+Jz1deyRh48UlRsajqsoYDx9h2kcx5+FdIO3cFwXgceBQD0OQH/6to6Zm2V218zEWh5wEJfN+fFC4Ds8cs3i3wPX+fD+OfZl2J9Us1xPKWky8ZlkoTUNO8q2DJwHl62lTx/wt8X7A09/hwdOgc917nDgkulwgENHA6wn5NZ/kcX1Tj0+Ce1KZ9IpdcPrf9Npwcn+G+cppQLX95qfn5ZleTfcdW/vwFPcn1x3knT/+99P222zlQ7af1+ddPxR+tIJR+uT++2tN7/pDdrxTW/Qm7Z/nR7/uMdq1Sc8Tk94/OO00Qufr9dst63e95536rtnnaETjzlC++39Ub3kRRvrkY94uJZaaqlKFx5cD3cW/9jJ+wKHTmV2cDjHVXS9+DdIsyW7ubkF8Xk5kmFJnMstt6zeutObtNJKK+kTB3660V9Jnv6ceeFl+Myj0+BuvifOvu9rcq0zTRwYBAVoqEO43NwV67pOfGPn8iuu0tHHnqCjjz1Br3vTTvrmWWdr9Sc/SZts9ALlnLXhC1+sDV/4YmmG4jEQtDlvg6blqzXQLEO1hsEh3Gick7Rp94Ju4NVpwJ87D3AO08rnwUxB38A6PtcJMC6Hgq9JV4Kau+FeuDM+0lHOuujiS7TmM9fXa7bfcZSI0Cc/6j0AZAkdOWfpARzAgs/xOy7aptNp3WSlP23z8Tk89LHfAQdp1dWfpgMOOqTCwAO+k5qBDlrZlvvZtmZ8QMg514lCTXiWQNE5N4mAlTSySZFrsAXJljZ+0N5g/XX1qf331bfPPEXvedfb9Jz119WjH/WPo6R3Z+W+972vnrjaqtroBc/Txz6ym77yhWP1hWM/r4M+sY+223YrLViwQPnuxr/Zt40D74dtdZfif5gZarH4H2/l/cODltO+e+6um26+RR/f/0BJWizhUehT+Bm2dMB9V+J/se9pAsizSrOe3eJtgCUFB8jPO/9CSdI//MODqgO4ACiiKGdIBJNYblPX2R1SL9CjQIM2FJQsSHsLAIzfm1O0Cqa4Al1nYyOUAHZ6cOhJCBz+oz864dxn3rN4QNctTi/ttSKwqU6J69n9odMW55uCM8v8RU2Cp472to4jeLP5R1tyBDF89xHsLU7aWzr48Cy7pyXMQL2kSHy5t2c3LeEzs+xz1tzcRJNu+GoRbbkfnm5ABqe3wXrr6KD999UnP/4xbbD+urrf/e434uGelKWWWqos7zfcQO9919t10nFH6qD999Eqj3m0+rsY/9jcY6jVr9uH4nby+Lw78b/dNltqnz1314f22EufP+rYURt6xI66l+K/80aU4gRxSODm5uZqIM9yppGCI2WkmEqf+tWTdMbJX65K+uR+e+vKSy7QizZ+oU75yhfqvuhhB39yxIskPW3tNXXckYfr4vPP0ZWXXKDvnHWGjj/qc9UgL3nRxvrSCUfrqksv1BUXn6+vnnScnvH0tathHrLySjpo/3113tnf0I8u+76uuvRCnXTckXrIyitrEvuGp33tizr1qydVBWNk6p0f2pPNBHba4Q06/9xv6oqLz9cPYm8QVbteXrTxCyuvV116ob50wtF6+tprLYZfZpu+77XmGk/VsZ8/TD/43rd1xcXn67xzvqHjj/qcJGmtNdfQsZ8/TBedd7auvOQCff973657k9wMqrz0ODo8EfxTXXHx+frkfntL4VR93+utO71JZ51xsq669EJdfP45OvAT++jAsB36P3C/vXXVpRdqk41eoO+d/XVddemFethDH6K111pDxx35WV1ywbn60WXfr3umvQXWJ/fbWz+67PtaeaWVRjb8yheO1SYbvWDksJK03LLL6rgjP6uLLzhXV116oU796kkVbjKZaNutttCVl1ygV22zZdVpSkmf3G9vfffbZ+qKi8/Xd886U3vu8SH1NqMquiiwLDmdzxx+23WdJpOSIKd9r8mk09xcCcD5+Wl933867dVNyksFwKaYmU4Mx2RSHu/KfVY/HbaB7n+/++nTB3xcB35iH224wXr1BtBNN92s8y+4UEcceYze+Z73a9tXv0Hbvqb8tnn16/XuXT+gU047Q2edfY5uv/1209ydl1Ue82htuMH6+uLxR+mEoz+n12y3jf7xkY+Q7iD+yRVq4990TzuJypNYshziduDn9eB60IOW03FHHq5HPOLhet+/76Zf/tevKlwfiZctBWhzzs+TJ37gvM2SLedc9jRbQQACEGQuXG93hOP9kZokgXnJizbW7bffrrPOPqfWyQSn/Nv7dtG53/2ePrLXvvrmWWfrmU9/Wg1cSdroBc/TIQd+QiutuKJO+tJXtcde++jkU07X7373O6WUtMlGL9DeH/2w7nOf++hThxyqgw4+VMssvbT233cvrbzSSkop6RX//DI9+lH/qJNPPV177LWPjjnuRK24wgo6/JAynfcZnUxh6EShdIyCLlKMYnvu8SHtsP3r9atf/Vp77LWPPnvEUVp55ZX0rGc+vfbPkTD33WsPLVx4H33qkMP0qUMO1TLLLKNP7LOnHrLyylVPGAg+XvriTXTop/ZfTAe//d3vpEjYSkmf/fxR+ujH9tX3zrtAT139yfrkfnuXmUzsuUlliejOkNL4RgQl56x/f9979KY3vE433Hij9thzH33280fpMY9+VJUrM0uLvu9/77t08imna/c999bV11yrN7/pDVKSPnfk0dp9z7313eDrU/vvO6IlSYcfcqCuve567f7Rj+no407QCssvr93/4wNaccUVqi4kaastNtVvf/c7fXz/A3X0sSdoxRWW11t32qHaxP0Q//3yicfoWc94mi6++FLtsdc+uuiSS/WyF2+ivT6yW+E/CvYmwFq/z7al0tvzmvPz5UPKJEmFnn0W2bE6aAZGxcPyij6StHDhQr3vPe/U+uuto7m5OX3/BxfrY/t+Qq/ccls9d+OX6LVv3Ekf3fvjOvnU03XRJZfq+z+4WBdfcpkuuvhSfe3k0/SOXd6nHXd+h9Z77sbabOvt9LWTT9Wf/vSnhuqSy1JLLaWnPPlJ2uWdb9PXvni8jv7coXr1dtvo4Q97qNTGP3o3HcluZJFfZLGPLdukhi3cJtPma0Ov2noLfWyP3XTeBd/Xhz/yMV13/Q0jfuCFX8sf9D0GSJxc044/ZBsw57wRRlNkYYh54qB4Pwg95UlP1Ku23lLLLruMnrfhc/T4x62io489QVdfc63hGJIuQhz06UN15DHHKeeszx99rM4642Q9cdUn1Pa37rSDbv+//9PW//J63XDjjcq259L3vXZ+85t00803a5OXvbLy/t3zLtBRnz1Er9luG334ox/TAQcdrP0P/HTlFfrbbLX5SKEyo8uCSDNGHo4PWXllvfB5G+rSH16urbZ7XYU/4KCD9b2zv66FCxeqn/ZKXdJbd9pBN910szZ68SvUTQru7553gY48/BC99l+21e57DoOFCLSU9JYd36jbby86uPHGG6Xmjutr3rCjUsxipn2vzx99nI498nA9+tGPUuLGT+DMfVYfz2MqLDKJh4hlcq200op6xT+/VOddcKFeu/2bqy/sf+DB+t63i1zA8twiCVPhiPTDLkcdc7yOC76qbqPvud/5nnb7yF7V70474+s68vBD9La37Kh3vfcDld+LLr5UO/3rO9XHgP+QlVfShs9ZXyuvtJKuufbaglPDCudVW2+pxz12FR193AnaY899lFLSkUcfp+OOPFzrr/vsYGGcHNvzNgaYpc/PTzU3N9HcXBl05+en6tOwj5lSknKxVTfp1HPDKI6TSVfuwndJWaVfN9fpYx/ZTU9+0mo65LDP6Yyvf1M//slPa1KY5YdexzGlpNv+9391+RVX6d27/pv22e8AbbDeOlrn2c/Sc9Zf9y7vhS5YsEBrrrG61lxjdb3jrTvp0st+qPMv/IG++p+n6JprrxvBeg7xuEJ/7QyeZEVf+nXNjVZJWvUJj9P7dnmX/vd//1f/ttseuuaaa0eyAkuSdTrgBQ4+agwYn/Dj167jjqQHQohO7M0U2ffznLlKMMLxpS/eRLvu8g7t+MbXa+F9ltKnDjlUu++5tzp7FGHY4O3qcvHIY45TMse84qofacUVV6jXj3zEw3XOud/Vdddfv5iyu66r7QrFd12niy6+RL/69dV60hNXq8KuvdYaOnC/vXXqV0/St888RdtstXlwMJ5pumwD38OND9dLzlnP3XB9LVy4UKecesZI4bnPuuiiS+t1Sqnw+p3vahJBpkgC8Aoc+Kcm49nnfkfXXntdfVwFGGyy7VZb6NBPf1Knfe2L+u63z9TqT35Sae9iaRj0uPPLrEaBDzz4wguet6EWLlyoE77wpVqfY8C6+NLLal9JYqb54Y9+rFbhvNtutbkOP/hAnXHyl/W9s7+u1Z/yZMkHp+i720f2GtnhBxddol/9+td6ypOfVGwSfnbeBReOguK7550vSXrehhsUdFXS4vTPfPrauv322/Xhj3ys+k/XdTr51DO07DLLaK01nrqY7PiMF+Tvuq7ejEW37FNSUpdGMOg6dZZMYoZv7GpuwZze9pYd9YD731/v3OX92u+Ag3TVj35c9xZnxZ8nG+e/6jfKjb/5b534xa/obe96r5670Uv0xS9/VZdc9kP93//d9RnoggULtPZaa+rNb3qD/vNLJ+iEo4/QgfvtrVf800u19NIPVLInXOCF+G+TYtckRvyZGO66Tiss/2C98uUv05GHH6L/+MCu+tQhh+oNO+6sa6+9rsK5nNRhP7el2xgYCvlOM+IfuBr/2TbBQdQ+PNv3vRYtWqRkWRwmuq6rTvqRvfbVqqs/TU94ytra5J821QEHHVL7F8KDcMVpSj8CBT5gso9nQBV35hHGj6/aurS/9MWb6MpLLtBVl16oKy+5QFdecoEe+YiHa9lll1HOWW/d6U068vBDtOqqT9AvfvFLXfD9H+irJ58a3IyXAy4biqSgA+SSpGc/8xmSpCOOOkbywGuCZdutt5CC1ysuPr/yecXF51deHS94ttmyJPfLr7hqtLSmXZI+e8hB2nWXd2i55ZbVz3/xS5186um69LIfjvB4cUdrSwo5n/m0tSVJZ3z9m+ptZt86e25m6smc9LOHHKT3veddWm65ZfWLX/xSJ59yui697PLqCy0fORzal3SUKkNUD344DGAiYUXJOevRj36UFi5cWPeQr7j4fF1x8fnadZd3SJJWW62salxGZOLnwTNLn9hsMjfRdH7xZ33djxi0kBOYBzzwATr00wdopZVW1A5veZsu/MFFVZde3D9lsyH8lbaqD+NDEfy//d3v9f4Pflhbb/c6bfzSl+uDH/6ITjjpS/qvX5W9wbtSFixYoCeu9gQ9Z4P1tNsH368zT/6KDj/4kzpwv7211Rab6mUveZFWfcLjtdKKK1Q/gWc/9/hffvkHa/UnP0mbv/LlOvzgA3XEYZ/WW3Z8k875zne17WveoHO+872R77eyYi81cgM76xza2N316/4AzvpQVJ7x+AtIEbBvXidMlkSliDYLJJijDoAqpAk6tc/1+ytq3zrrbO367nfoSU9ctToPDjKZTPT1b56l97777frmWWfrvPMvjNexYiaQpd/GvudWW2ymSy+7XFtt99oqz67vLkHjyqO4fJRWF8D9+Cc/0YYbrKcXbfxCnXbG12tbSkkLF96nniPLt846W987/8LKI3j/57e/rY6ErnPO+uZZZ2vXXYoOcvNaqSStteZT9cxnPE1HH3uCPvzRMpuam5vTMUccWmH6vrxPKwueoWLQKdXT6VTXXn+9JGmNpz5FP7joksqTJN3vfuUh6WrnQOX2XnON4Ou4E7T7R/eusMd+/vDqC+6QyIXTStIySy+jX/3612P7xGn1I/O75EkmtiCuv/4GLbP00jrw4M9UPPCSc9a3zjqn9vf6if1RGbzRBg7iAdo557qKcDnwI3hufWjhwoXa+yO76YeXX6kDDjq4xhW0gPPi/LRJ0r9oBBwwnNN2/Q036rgTTlJKSUsttZSe9YynaZONX6jnbrC+HvjAB4xo3lF5wAPur2c+o+x1b7D+urW+73v9/Be/1O9//3vddtv/Vr+vJSU94AH314P/4R/0oOWW0zLLLC1J+u///h997eRTdcJJX9LV11xbdejx7/GJvlq52+slHYFx2Kl9eIb6jmzazRihKBDuYprNeWUonDYQVgZcuOrIWvzxFQ/Gtv6aa6/TTTfdrKetvdZifPZ9r+uuv1433XyzHvqQh+ioY4/XUceeUI7HHK+jjj1ep5xWlszLLrNMvWmCHE9be8163fe9brrpJq24wvKSyfyQh6w8qkM3tKeUdO53zpPixleOQJKkhz30IVpj9adU+GuvC14fGrwGj0cde7w+f/SxOv3Mb4x0g0Ncd/31uummm/WMp6094kGho1Uf/3hJ0n9FcplMJlp5pZX0yLjrWXm1PtV2Udxu9Dn9zG9Ikl673ba1PueslVZcUU+NJXatj2NvA+pqqxa+fvWrq5XDoVdaaUU98pEPr/0IXkl1f5my7dZbaNlll9HlV1xVKsj1AYPfVMlSyBrX0Pz5L3+pZZddRr/97e901DHH68ijj9Mxx51Y9H/M8br2urIvB9/J4oCj00wzlnvUufwTe97T9Q0+ZL/f/e6r//jAe3XIYZ/Tx/c/UIsWLar0gPP+LW+OV+Y33od2/MuTuMfV/Py8vn3Od/Te939Qz9/kZfrABz+s08/8hn7xy/+qeO5u6bpOj13lMXr609bWhs9ZXxtusH458ttgPT1trTX1qH98pJZZZmn97ve/1+eOPFrbvuYN+tjH99d//erX6mfMpJEFOalH5hSxgk2A7+wrXOD1uHOcCps7vs6dQLZud0PDiBsIRqTBmVO87gQMzLmDqL4aNQQa18CybIfuMcefqJVWXEHfPP0/9ZYd36hXbbOl9t93L+385jeq73sde/yJevzjVtGXTjhGO7/5jdp2qy205+7/oW+e/p9aa801NJlM9OOf/FTPfubT9b5d3qltttpcX/nCcbrPfcpGODyffOoZWrhwob584rHadqsttNMO2+vYIw4LLse8yvj7/kUX69LLLtdzn7O+DvzEPtpmq8210w7b68jDD9FNN99S4XPOOvb4E/W4xxZe37Lj9tp2qy30kd3+Xd8+8xStucbqi+FG78eecKJWXHEFfeuMk/WWHbfXq7bZUgfut7d2fvMbdfRxJ+j222/X6179Kr1lx+31lh2311Gf+4xuDtpj/Q9/TcseIckGeyLhRRdfqksvu1wbPmd9Hbjf3tpu2630vve8U8cccehILi+O58ijjzO+3qi37vQmHXPEYcFX4anrhr3tHbd/vd7/nndpu2220p67/4fe8daddMONv9FuH9krkJdD1/ydcr1b3jfbBPE3K3vsuU+5+/+hf9Oeu/+Htttmq2Lbzx+uww85sOrGB3d83YMUeyjkJAbon2Jrq/p3M2vhx6AKjvn5qQ4/4ihd+sPLZ9Jv8VAIfNqcR7cDRxIEePvmxhI46XvrbbfppC9/VW9/9656+ebbaLvXvVFHHHmMzvz6N3X1NdeMdH1vlHO+8z295V/fqY1f8grttc8ndPU114a8WTmPl8jwyUc0vAzyDo8U0S/bgDWdludNPWehY4dznacU7567orzgFCjXDQqy7E5rIx2GgKkWd87Dc4MUnM+X7TlnHfjpz+gje+2rm2++WTts/zrt+u53aLW4uz43N6f9DzxYe+y5j6SsHbZ/vXbd5R1ab51n68qrfqTrr79BOWftsPPb9eurr9E2W22ut+/8Zv3u92XWIUuERx5znI4+rjzCsusu79BWm2+qr3/zLN34m99IGjs+/PUx29nyVa/ReedfqGc/8+na9d2l7xe/8jVdedWPJButDjjoEO2x1z6SVHldf911dMVVP9J1191QDQw8hX5FB6/Xe9/1dq226hOkuLG26799SFLSDtu/Xlttvpm+8a2z9PNf/LLyXexUCvbz5flomRPHlJK22PbVOu/8C/WskOvFm2xU5bo9ngHsLPG1Dva+f99NWdKObxz4+sUvfinZAItvfGiPPfW85z5H73332/WC522oH//kZ9r21W+ovuSPto2SWGW4ki6Xlti2ffX2+t55F2i9dZ+t97777dph+9dp4cKFOuvb5478ltkh/RjI3X9zBJYnSIXNps1+N7rGtz0WiI/5+Xn99Gc/r3hphy5yeIB7PXXJtpO4pp/jhjd0eFfi/09/+pMuuPAH+ujeH9fO79hFL/qnzbTxS1+h173xzXr7u96rw484UqecdoZOPf1Mfed75+n662/QNdcMTzK05ZZb/qDrr79e3z77XB38mcO19Xav0xvf/FZ946yzdettt0aSLL/h3fKSPIvBs/q+fMBjSKq9UirJkq8ieVuxwdC3yJtjjjacA9/309EPnaZVV39a1RQO4AYHEIXOuga2t304ip/TL1vSdaM6TmCy7XfCDwWjujM5P86r03EHnNg3KeEBHK2czhMlx3J8ao9SuDy0wx99NGOZMKtdzfKAa9pcN/RFr+BwPTufTmNWQWb6uw6O+fxhWnaZZbTxS19R4Wnj3PXnMOiLctD+++q5z1lfq67+NCl4gj8vjnNJMgDTnrssJIkWF/qh75x9wbvVg9dRwO32d7h2JotuwEeBJ46e1IBzGOp6iwfq6Ot92v4UxwOMywpMew1s38R/kvTYxz6mIGfvPka4G274jf5w661V74M+xjbOf4fx31HZ2+hImcUERCHAtcJ5wec4aAMP57NGOKcJXpwtNyM/uOjjym+VRRvnrkRXCHiSJRovwMOfwzkuhSxdE4guK/0dHnyy7QrnDThkw5mwH7jgO9nsAzzQdTzOg8MD43KutOKKevxjV9F1119f8XR2J9hxwzM03Q6z3tiAF2Bp92CcpQv6UO+0c/iN68Rh0TcF/K383leBlwIP7gfIx3Fqn2hDNsfJtcL2wEIn2cwSGC+OUza4gnuU0GwWDmyrh1ZWdOF8ca0Z8Z8l/eSnP9ePf/Iz/fTnv9CPf/oz/ejHP9VPfvpz3fKHP/y/G/9PeMralWM69s3oyjntMoNQ5yOaH91ZnY5spjVLYIeD/qxzCjzTz9tcFmAJcHBxbOHBS194Bg7YFj96nDWLdBko4EJfjq+zT+KBlz7gXFI9R+pm0fb6tu+Bn9hH97vvffWNb52l1HX6x0c8Qi/a+IVauPA+esnLt9C1112nPGM27XpDnvn5+cVmb9Bgpun00aPXzZIFOk53OmMGn8KeJA/6u35bfPQBzmnM4gG+23a3qceEyzPrHHzOc0uTd8Hh1em2coK/tQE08aOWBrhcB8jU3avxP44V8CzpnOI6h2+KywLsPYn/+m+UjpDiU1ZnymFkn7mn4GQo1K/5yYzkIyD1FFcS19B3XAjmPzeW86eGRzecTOnUQaO3/xNxPFwDh0Hadtef0/N69MW1mhm593W9tMZ1GwFPu+s/zXjNDT4k6dbbbtPKK6+k973nXdr13e/QK/75pfrVr6/WS1+xha6/4YZRH/SZLUmgX5fN4aVhK3LSfIm7PoJmtgbvLLu4zL6cm/XLpstZNmp1RL0aPmmX2Yk2mZ+5Tb2vt6lJKBT3J+CBm5WUgFOTAJwedbN8kHKvxn/cpMt5eFuKdv5mmuLnrkupvCEHffAB1/7azyF6cR6xG/BVN0uK/9We+vTcGptzr3dkrYDez40wCy99KMBNbF8QYcDV0qC0fLjzOJ8u07z91zV0nMfeEobTo9558ZLuYDrvRzeCF8cJrlYn1MMTtID1YMCxnB40XMcU6h2u5RMYeOhsjxR46ik+yLiO/HwaSy6fTTkN+KDN+aCdc5e71Zefww84KfDjfZ1X15PL5joA5yy5XactbNvmeDlHPnBid4rjaeEp9PO4cx44v1fjv8/1pQPv38V7+3NzE81P50f/udQmMY4Ux+PwuoP4XzQ/P/o3UG/LuXwnoKUrlTe34K1zArlxiM6e4aL0tlThCOIczju1mcUsIV1Y2Z4FzNOnrXM64Gjb2nZgZM4CjLe3eKDtgeE0274omAQwiz/0ATx6bfXC0QONPpx3zR7ZkhwfWPA6b47L+7X8U5zvNGPpBT14auUBv8y/ciRL8LR+BR6CHxxTe9CZfs4D/Vr++fm1t7c8t23AwyM/eOTa4Zx3vwbOdSjjC191P3D8yfzT+W15TM3sjBk8R/oDr79U/PfliZn6Xn7Uz83F85Jmn3Q3459vlLbtwCjwzd1J/IMH2vPElfWp2kBABPepOQ4Kga7Zw/D+mjGtR9EcoePCUY9xwQl9h3WYFrb9QbOl5cV5xEGqEmfI2iYLx41sLe9djPrQcRoK/tEhda6PFv/UHo+hjydRcFIHHucDHnnrRaYLaDlth3FdOQ8OC4zrzvXptvE+FPClZsDpLZhkN0Scjre7Dlta4M/mKy3PMr/PFg8uA9eOBz4pbgOXA3jnueXHi9vZ/UbGE7w6D8iAT3pcg4M+f6n473OZceY8/nfTPvYy0RE4c87175KB5cMyXoBtf9D2/hwpziO6xhaTWbI6Iu9AQWFOFITAt4bhml9uHN9xgLuzpQTw0EQh1HE30o3hsCy/oUN928fb4dvr22BEfpebdmjSRmFvzXngBz5oZ3NQ8Lg8bV/HS3v7+BEODD7qnE/XVzb9gocZj8PT5jpDj67Ttr6PgKStlYt68MKn63ouno9EfnDj3NAhOVDaQUY2iFDX8uz0pzb7gr7zQaGP6xhcjt/bWrrYgHb8gu2lJdHOTSyhR4d12/rR6VHulfiPpXkX3w9NGr54D+5JV/5Sl2vnl2UxdQt4GuFvFf+KglPIsjZC0wElTe3OZAvPcdqMhq3y+cmYcqeCNjih5w5BG2Vi7wrT7nAY05MGysyRLOjjxek4T24E2tQklVZvrfytvK18ikCBf9qgAX0SBjqCNrDgp55z5596eJPZFtvQzl1wL7TjH+CgD8XrZTOnafxLZ8sH9OEFeOqoJ7m7LlNzo8v93Hmhn9sIfYLLBw9kb21FP+paPMA4HNf0QT7Hi1+AC9korS0os+zgMUJxvaDPdG/F/6TTNP7rPccM078KVWgM3yaljl9eQvzzfVLKZDLRor9C/Nek6Z0RVo1ToZC23hUOATeqG7sq0kZslACc44emtwELDhQgcy76OT6cHtwOxzXt1LuyKLQ7fXDlZjlTDdw4ucvH0XFCmzpk4Qd/yE49QU9xW3qdgicSqmxG6fCzZOG81T18dfEID+3wSn+3icvhv7YPNLPNlL2NdpnP5GZ5CG8KHvpmBkY/2T47+MAPnNfTptCp98curZ2g4zpz/UBLRgc8rj9Z3FCvJUxAgPWnEiiu91m0OW9pK3DepfiPf/DM8dcgJEled/Tvwzp99OHy9UuI/8lfIf47gLxSZvz2uCQhWoYgmJolK4LA8NT2B93RMKALriaI1ThyC98qr1WEO6oXNwS8Uu90KLlJbPRz2afNhv0svI7f+QInusJhXC76UOe8OA7o9PG5v2xJ3p9VbPXi9m7l9zrXhffr7SZcW5Ithdw2tIGPNnjjWkvYZ25ldj6A92D3o/ehDvv4NYOOy8ssC57dPn34JO3Qxz+QDZzI6EdwwIvrgdLaT9GXFUKrH84p6LI9Auv+oLsT//G5RJbW89P5+udpc/+PxH+VJptRJzOWl63wXmh3hXF0BunvjgEtfgqaOFFbgAe3Gwv49pwCXadDPfRTPJbkOFzubMnNHYf+1KFLN4o7nvMuc7oWJ3XYxWVweu3Mhr6zaIJ/EjM2aANLnTuO26/FSSERMct0WbpmQx2doyvgW1sokjm43BYyv0V+cFGcb3D44NCFLR2fy+W6dDjqkRlcssEfWWQB2lkszZLJk7D/vB566MeL10Efmi1cb76JHtGly+w8zyq0u844UjeZdJrEPxX006lStM9N5urHOJzm3zL+F91Z/OdmhpNsQ92dzBE709NYDjpDzqj34edKnqXgZKNF288dnnbZKADOWQK7o1JYEgCH0zh9jvDQ4qBN5vTwAV76Ud8mQPTo+JwG9cgGrMOjV8frvHbNY0oyvbtsskRNnzsqLj/6o4/zAh/UuXydLbXQG304VzNjdz1wdFjXkevAbeJ9ZsG39fRBh64zShvw4ACWa8ft9Dh3veMf/EgWCp5IJrNsiy3V8EIflz/9xeO/12TS1Q9jIKvbMt1B/C/6K8Q/z3HK8DsPnYJJnIlzkFMHoyQFggNiwNzVaxjBMRDW4XMT9G0AUt+2gZf+DuOyOD1vkzk+d6PRg4w35xUH9B9tlFn02nqHh0fZCEs9R+wmS3SOF17RSYuvfdzI5fQ6cFPnOoH/riv/gYM+WvmAjQ/K1Of1SLJuw/lF45sVyNg1s6zJZFI/BkFxHaCr6fywtSH3r9hjy/EPnSM8IUtKZT8OPbo8s+zMNTBuW3Dk5ikG1w/6RY6Z8ljcAMt1y1ffbI1Q57rAfpxD0/mCZ8fpsrWyDtfEa9lzpOScNZ0WO7te6Z9zedg8heytjNS3bQXvXYt/+PE23Un81/89lwnqwYWiWsJdzPq8wDA4WObOKq6cVmCZEjAmsGnGa38I1dvSzPsgDz/gqrx9+aq58wrcNO4Uen94kCWqRYsWqbOAxqGQw5NCW6A7i5aaRIEj0KYZugIevK4rivNJEkNntFFPX5JL/RQbeiLx5PLVcmg7rMNI5S8f+GO56fy0PJbi+p0LvozvftrXnxR/EBeJDbjKtwrvJGYFHdrp100sWQVu9FAfF+uLXA6n4Eem337G7LP1AerSjITr1zlnLViwQLLlvsPOOiZLOtDoFvsIeCnUt3ykey3+5zU/v2j0iTYv8Jki/rSE+J808V/+8vjuxX99QH0J8Q8tcNKvX0L817RPBxhwpeEMIINBV6Y7Aj8YpzgO7+N17ngwyagBnAsHHo7ON/zBr2wE6fu+bka7grPNYqCP8mT8tTxNms+dqdEpim/r3WCdLYWdZ4dB/y6H64hfZ8nTaXLObzo/HV5viyRHgkP+FIkmRZJRk8Bcb+DwBMksrZt0tR78JB7OJ6l857OfxtsbWaPkja3oX+WJBKpIyN7uNIBPKWl+0XyFc731017T+Xj8KZIuid35Bh84Zfxxh9r17z5AHe0kIPd/tyl2cF8FVwo/cFrui06HfrNgOLZxdPfiv697lPBKcRzeJ/2F45876oq/SkZfTkt3I/47OlPoyI+OKZSFsqlTMAtS+vtD1q2hwcEPvI4POL9uaTqPTtvPZ8lBe/uOKX1JRLQ5Peq9OM5kd0S9fRY/0EmhW+dPljjp607R8tPylW1GCk3KSJ/xB1+SpDQkaK6VImGg13j5rZsU+iRRjjmX/+yZ1dZPi6/NLRgnFGad3aTsWSHXNJd/anSddV2nydxk1Gdubq7OGKfzU80vmh/x101KH6eZY1bM2ynAKQ38TialHR7rH+XFl+7hzW0IfvSI/r3Mup40LxxU+5hdXQ8EPLjoD10SBvDe38//WvGfS2PhPd7y4ee+nP/C8c8D9cijPyP+61/4AoDwjpDSKpebMlzDIEr06T94nAkYd/rJRgHaSaw4iissx75cthHRFdDFWzIozXmdN0OnODqPLS7aa5+Gb87hD11yTh9gO/YBG8fl3HHBh7d5wV4yPumTzOGdT8dbZYzE4Phzjo8tpPK6W9VzwKUugqEv/9/d8z/e7rRxPYn3jElGKf5dE3okMhJT5S2pJPB+Wh+Upl+tC/NUOzUJ33lR4+Ouv4wf5tgKsMQNPvqwVEw2I3I/xO6tb3Iuu8njtp117tdpRjJznMD6UeYT+F73F4n/4WMgXi+VD2soZn/wnlJJljnn+hUjZOzuQvwz0LY61p3Evyd6P9K3xUV7xwmFEQpDypA44Ra2xSNz6tboyRTj9X7EaO50GNl5S7bHgZJbIad2x9iVwKtcqZkZAOPHFg9ytUqF79T8FbLj5aeQt61zGTg6nvYcHp2GB4PDcO44csy0nP86m4pE5niAVRNIYiCImZo0zNqo54aMTF/I2/pLlSuScpUpkphi2eyw8FcDzGbANVEHTnCM4IMX9mbZywQHumAm634je3oCXqjntUjq0EFubq6gD/pTvB9HaHN3Gz6g6Uf3B/h2/ih/rfifzoj/bEkV/dyV+OfTcsjpbeBweWfJ0+rPYVs89Y/VYJLSN3sWdJAx0y/hsZSWgSUVkl1ugtydBhxcu/L40T/b3WCuvT+Fa6fp+P26azb1nUfXGYZEnzJnw2AuJ23Oo+uDei/0aeXp7FEs6qEJPXC78yAb9Pq+r7N2l5vi+F0/9BfOb3xiL+pJRr29NtnilgVNywNtVYZJ+EEkPk/wnsBcTuo414wAk8ni/eDX5aRf17wuPG1mW8C4D3CUxYPXyXzN+XB+UvO0An2BR3bqXGb81X1Z9zj+sel44G5L9cnwI5bOrX74IQv6cL1w5DVK9xF+FK6hQx34/bqbEf//HyQR+VXCAh+OAAAAAElFTkSuQmCC;" vertex="1" parent="Gm3EFjgsQVNfLWqenXtV-7">
          <mxGeometry x="281.15999999999997" y="57" width="164.94" height="53" as="geometry" />
        </mxCell>
        <mxCell id="HskYA32kKZUXuh5xqCnA-2" value="" style="shape=mxgraph.arrows.bent_left_arrow;html=1;verticalLabelPosition=bottom;verticalAlign=top;strokeWidth=2;strokeColor=#000000;fillColor=light-dark(#FFFFFF,#FFFFFF);" vertex="1" parent="Gm3EFjgsQVNfLWqenXtV-7">
          <mxGeometry x="542" y="24" width="30" height="30" as="geometry" />
        </mxCell>
        <mxCell id="Gm3EFjgsQVNfLWqenXtV-12" value="&lt;font size=&quot;3&quot;&gt;BTN_CHOISIR_FILE&lt;/font&gt;" style="rounded=1;whiteSpace=wrap;html=1;" parent="Gm3EFjgsQVNfLWqenXtV-1" vertex="1">
          <mxGeometry x="108" y="239" width="153" height="60" as="geometry" />
        </mxCell>
        <mxCell id="Gm3EFjgsQVNfLWqenXtV-13" value="&lt;font size=&quot;3&quot;&gt;BTN_ENVOYER&lt;/font&gt;" style="rounded=1;whiteSpace=wrap;html=1;" parent="Gm3EFjgsQVNfLWqenXtV-1" vertex="1">
          <mxGeometry x="108" y="665" width="153" height="60" as="geometry" />
        </mxCell>
        <mxCell id="Gm3EFjgsQVNfLWqenXtV-14" value="" style="shape=image;verticalLabelPosition=bottom;labelBackgroundColor=default;verticalAlign=top;aspect=fixed;imageAspect=0;image=data:image/png,iVBORw0KGgoAAAANSUhEUgAAAS0AAAAdCAYAAAD/7jr3AAAAAXNSR0IArs4c6QAAAARnQU1BAACxjwv8YQUAAAAJcEhZcwAADsMAAA7DAcdvqGQAABFhSURBVHhe7ZxZdxvneYCfwTJYCIIERYIECFIUQYoSwE0LJdEWbStJ3cRNdE5TZ+mpT3ORi9zkD/QqvetVcpWe094lPccnXRy3yandSInt2JbMSCJFUbIoiZu4YCFFkFiJfekFRdsaY6AZgGrjFs/l+47waIbfvPjmmw+v0H/MU+KPCkEaqFOnTp1P0EgDderUqfPHTL1o1alT5wtFvWjVqVPnC0W9aNWpU+cLhaBmId7pcNDR0YHZbMLa2AhALBYjmU4TDAQJbmxI/4lKyi/COx0OnE4n3V0uGiwNACQSCdbW1wn4D8JbHqfDQWdHB4fNFhoen28iFmM1ncAf2HimXpejgxGrFfNjbzIW51Y8iu8Ze7ucHZzoasJseexNxJhej+LzP2NvVzsnhk2YzY+9yRjTt9L4fM/W2+Fy0NzXSmODBYDYboLo/BbBZzyuOjpdmN2DWM1mAGK7uySX7hD0+5+p1+F00dY6gMWy540ndgmF7hHwB56pt9PpxN3a+8T9uxRaxl+FV1HRslgsjI4MQ6nI0uIioVCI7e1tAFpbW2lra6PX7aZQKDEzO0sqlZJ+hAI+X7AsFgvnzp5heGgQnVZDJpP55LPNZjOiKFIoFpmZmWXy2vUqvZ/HYrEwPjLCiZKIYXGVbChMansHAFNrC2LbIbLubm4UUkzO3jpQ74ujo3zb3MCAL4A2HKEUjgAgtNjItTSz2OnkF/Eov585WO+Fs6O8NtTIoDaIPhOBVHgvabaRFm3cKzr4+UyY964dsPeFYV77TpHBgQX0uhCU9sYVQivpbBv3Fvr4+S+KvPf+7QP1nnzuFI0vOQi2xAkX40SycQBsohWbYMERthJ5d53pq9MH6h0dn4DnvsmS1U0or2U7UwSg1aihTZOjN/GQwodvMPPRBwfqHTv1PHbnV4nEnMTjEI0XAGiy6rA2Fmhu3CCw/hY3pq8eqPf50+M87zhHU7yJfDxPJpYBwNhkQGPRErfG+WD9ClemJhV7n1q0+vv6ONzdxb25u0xOTpLJ7EmlGI1Gzk9M0NfXz/LKKg8fPpQe8hSeLFr9fX1MTDzPIVszm5ub5PP5J/L76HQ6HE4nW1sh3nv/Ax4+XJEeoor+vj5e6u7FPrfM1uQUhUxWeggAOqMB+8Q5gn0u3llZOBDvd/v7eXk9gP7mLciW9woGA9mxU1zqaOP1B/cPxPvaxFEu2oI0bM5CvrwXnYGk8yS/2mrlZ+/fOxjvd11c/OpdGsRJoPy4AiPJ3AS/+q+j/Oz1lQPxDnxthODxNLd2F8gWc9JDADBoRE41HqP1Yy1zb908EO/hP3mVe71fYjKmI1Mof9sZtQLnm/P0LbzL8qV/PhDv8OhFEqnT3J/Pk8uV94qiBu9xHQbddWZu/vuBeF8e/QrudC/x+SiF3F5xlqIVtTQda2ZBt8DbNy8p8moPtbb9rTS4T5/bjb3tEJcvXWJ2dpZCYa86lyOfz7O8vEw4vMPQ4CAarY5IZG+WoIxPi1af283Fb7xCqVhga2uLYrH8CQMUi0Vi0ShWayNej4eNzUcqvZ/S53bzzbZOdJeusD17l1KF8y3mC8SXV2kOx/EODhLQUpP3R0d6ee7aFJp796GCl0IB7do6x3ZTeAYHmS0UavL+3TfcfKU4jbj1AIoVvMUC+qiPIWsaj2eQ6c18bd4ftfCViUuImlmggpc8eu0yQ8d38BwfZHpW7bj6lD63m/7vn2bascr93VUKJflxVSgVWM9sknIKDHm85JYTNXntr/0Nl21nmI2BTL0CIF+C5ZSGsP0oQ57jaFY/rsl78vQPWVodYHklR4XbiEKhxMZmgSKHGfIeZzcxX5P3r8f+ikMrNuIrMUpF+RMuFUqkNlO004Zn0MtKYu2pXtmiZbFYGPR6uHzpEmtra9K0LOFwmEQ8ztjYaYLBDdkZ0ufZK1oWi4Wvv/I1isUC0WhUepAsqVQKgyjicDiYn59X4d3DYrFw0TuM9tJVYms+aVqWdDiCMZ6kfWyUB8FAVd4fnDzJ+LUpiv6ANC1LKRqlI5VGGB7ips9XlfeHr5ziy8VpiAalaXlSUZximoJjkKn5Kr0/OM6Xz1+CovJxRSmMsyNOgTGmptWMqz0sFgunv3Oe6Y5VAqktaVqWaC5B2lpkyNqH7+OVqryDf/F9LtvGWNutVJyfJJwtkWhoY6xFQ3Bupirv8xOvsbR6lM1HMrPnMsQTBQpFGwP9RlYf3q7K+62Jb9KyYmN3a1ealiWbyGIpNtDS38zcw3sVvWXfHgqCwOjIMPfm7qoqWPssLi6ytLDAyMiINFURQRAYP3eGlpZmVQVrn52dHTra2zhzZkyaqoggCDw3MkL73ENVBWuf8OJDXAs+zoyMSlMVEQSBCydG+dN1v6qCtU9hZZU/23zE+RMnpKmKCILAl8+NcrElqK5g7bOzxqvt20ycqcJ7YYiLX72rrmDtU1zk1a/PM3F+WJqpiCAInDx/iuDxtKqCtc/qbpDt4SKj46ekqYoIgsDo8y9yr/dLqgrWPovxAktHX2bk3PPSVEUEQWDs9AS76dOqCtY+/kCGXGGcU6fGpamKCILA+dPjuNO9qgrWPvFAnGOFAc6dOitNPUHZouXo6KBYyDM5OSlNKebKlSvodRrsdrs0JYujo4OhQS8bKt8mfJaNjQ1Ojo6o9o4WtGxOTklTitm6cp0xnUm199sGE5qbs9KUYoxTM3y30ara+9qgGeNG9V7Lxk2+N9qk3vutPEZd9ePKYrrC9/5S/bhqeKGDW4kFaUoxN5MPaLngUu0tnvtzJqNlbzNFXImL6CdeVe1ta3+Zew/Kr9cpYe5+kc6uV1R7n+sYJzpf+fGuEvEHcV7sPl/RW/ZqOpwOlhYXZRfdlZBMJllZWaHT6ZSmZOnq7kKr0VScGj6NXC6HXtTj6nRIU7J0O52Ii2uyi+5KyCVTGFcCuJzKvUc6nfT7g7KL7koopVIc3dyiS4W3t7sTj2ZDftFdCbk0XjFEl4rr3HvEgefoYoVFdwWUkngHVuhyKfc6ezoJ2uKyi+5KSBUyPGpL0qnC6zh8hKXGXtlFdyUk8yVWmtx0ujqlKVlcrh4icafsorsS0pkisV0Xrk7l9+9hVzfWWKPsorsS8pk8TbvNFb1li5bV0kgwWMVjg4SA34+lYW9fRmX21rMOd7kUv/asRDqVwuVyScOy9FispIKPpGHVZP0bdDdYpWFZhpttaB6pf1yRYtzcxNvcLA3LMtLVjD4VkoZVY049YtilwjtsQa+rfVyZjX6GvUrG1R4tfXa2CtV/+++zVYxg622ThmWx9noI5sreYqoIFAxYeo5Lw7LY7UfZCVdfsPYJRzS0th6VhmVx23vJRWr4InxMIZKnt+2INPwJZa+oXtQfTPFIpxFFvTQsi8ViIZer/ttwn3w+j+XxZkElWESRfCotDasmn05jEQ3SsCw2gwHStXtL6czeZynkkMUAudq95DPYGozSqCyHWvRQqn1cQRqbTZQGZTFazWQKNczuHpMpZjFYTdKwLHqrjVS+9uKRLpQQG23SsCxGs41stvrZzj7ZbBGjqUkalsVqtpLPql+7k1LMFmg07m0yLkfZogW1X+h91HySIMj8d6pA+PxeVVlUHPpUBBVnrJUGakCjXItWzcV5ChpBuVh7cH9eNGpO+AC9qgaL5uD+wiVVf7ODPGHlnyWoOPZpCBUudFlLLpvHZFL+jSKH0Wgkl1U+c4rHY+j1ymdmcuh0OuKJhDQsSzybRWdSPmOQQ2c0ElexPhXKZMBYu1cwGtjOKp9JPIqnQV+7F52B7YQKbygHQu3jCoxsbysfV+lIEoNW+UxUDoNGJBNVPlPMRUKYdPI3n1KMWoFcbO8XGUpIJ7cRxbK3tipEUUN6/5cRCogmI+jE2gu1RtQSS8ek4U8oe2aJ3V0cDuULjnI4OzvZTSp/9bnu8x9MsTSZ8Pn90rAsa7txTA75txVKETs7WE/KX2wpH0cjFO3K10jkSLe3MxdVvmZz2xclZ2qVhlWTNNm541fh/ThJLl/7uEqmO7kzp3xcRZZCtGmVr73J0aZpJrKsfC0wsXIPh772xzSnNsPuyn1pWJat0AItttqLpa25SGhb+RvX5dAK+mblj+1yaJt1PAzJ74wvW7QCwSDuvj4MKtZJpJjNZnp6evAHlC+8rq37KBSL6HQ6aUoxer2eXDaHX8W+p9VgkGxfN1pD9RdcbzaR7nHiU3G+y4EgC50OEKv3CiYT8+1trKvxrgeYK3aArnoveiN3s62s+1V4HwaZm+8Dqh9XCGbuPuhh3afc61/14wg3Imqqn8WbtAbsW2ZV4yqwuoI7voxBW30BMesEeqJL+P3K9w/6fKs0NwbQ66v3Gg0arA0+/Cq+/Fd9a8SscbT6smVFETqDjmhDpOKko+ynBwIBNFodZ86ckaYUMz4+TqFQYnNzU5qS8OmFDQQC3L17n/b29ieOUIPdbmf29h02N5W/DQwEAtzWFmlTuVnysxwaP8XNQlq1981MmsLIkDSlmPTJEd5IxFR7f3E3Tbp9UJpSTNw+wuu3o+q9v9STzlc/ruLJcV7/t5Jqb/LKJkMNbmlKMSOmPqIf+FV7Ndd/zRlr9YvT45YshY/+Q7U39OgdBvqrL9ID/QJB3yXV3mub17H2KX+DLsXSb+Gqb7Kit2zRKpVK3L59B+/gEF1dXdL0U3G73RwdOMbMrLrNi6VSick//IFINEZTk/K3Fvu0tLQQ2g4zee26NFWRUqnER7dnCQ32Ye1Svh9mn2Z3DxsDh5mcvSVNVaRUKvHOrVu829OFRsU+q300h7u57Ojg9zPqvb/7wwxvR13QpN5LSze/3rbz3rUqvO/e4e13hkBQP67QuPn1pWO89/5taaYipVKJmQ+ncS004Kjisbi7wYF9TmT66rQ0VZFSqcTtK+/hXfuQrgb1az3uRi1Hl99l5qMPpKmKlEolpqbep9F8C3ub+tm002HAZJjixvRVaaoipVKJD6eustKwjrltr/WNGhodFhbEZa5MVd58LPvbw0w2i14U8Xo9hHd2FP+sxu1288KLL7G67mNrS8kepCensJlslsTuLl7PcbRareINri0tLehFA7+5/Fu2tpSvO+yTyWaJi1q83uPod2JkosrWpprdPWhePMtb60tVe/0aAa/HQ1s8QSm+1yLlaWgOd3P31Cg/nb9ftXdtF7ye43RoE5BR+OKipZtpcYSfXL5Xvdcv4vV46LDvQEnZuELjZvrOS/zk731Ve9nJ4fV4SDRkieeT0kPK0t3gYDTSzdy/3qjaq48E8Ho8hE2tRBVu+HQ3ankh9YDVN/+xam8h/wiv5ziZXBO7Cn9G5HQYcB/2Mz31T1V7w/kwXo8HU9ZELqnshUmjw8Lu4TS/vPHmU72yRQtge3sbo9HE2NgYloYGgsGgbKcHo9HISxcuMDZ2hjWfX0Vrms8/d29v7xAK7dDpctFut5NKpWQ7Peh0OjpdLqLRGL+5/FtFrS3k2N7e4ZFRj3PsBO0NFlLBTdlODzqjgY4L5wmNDfKWb6lm78caDeLoMEesVrSPtmQ7PQgGA7nxs7w94Oan8w9q9t4KCWhcw/TarYipkHynB52BpOsMb0R7+fHl2lrTbG/vcOuOGY1ujN4jDYjaYIVOD0aSuQu88Z9n+fFPfTV7hdUMwy1Haeq0sZWPyHZ6MGhEzlq99M5ZmfuXGzV7jf45xtpELM4egjmtbKcHo1bgpZYCY8u/Ze3Nf6jZm80scWygEZuti3CkJNvpQRQ1DA/qOdR0nempn9fs9aX9tA604mxxkotkZTs9aEUtNm8Ly00PeePGm4q8T+2nxeNNn8+uCeDni9Y+lnoTwHoTwHoTwJqx/H9rAvhZnk27ZfmitU+93XK93fKzoN5u+f9wu+Vnx9MLVp06dep8lrJvD/9nqBesOnXqqOd/sWjVqVOnjnrqRatOnTpfKP4bjeDBB+di2/IAAAAASUVORK5CYII=;" parent="Gm3EFjgsQVNfLWqenXtV-1" vertex="1">
          <mxGeometry x="286" y="98" width="342.52" height="33" as="geometry" />
        </mxCell>
        <mxCell id="Gm3EFjgsQVNfLWqenXtV-15" value="" style="shape=image;verticalLabelPosition=bottom;labelBackgroundColor=default;verticalAlign=top;aspect=fixed;imageAspect=0;image=data:image/png,iVBORw0KGgoAAAANSUhEUgAAACAAAAAmCAYAAAClI5npAAAAAXNSR0IArs4c6QAAAARnQU1BAACxjwv8YQUAAAAJcEhZcwAADsMAAA7DAcdvqGQAAAJGSURBVFhH7ZQxa+pQGIaf3l4ChUBBCOgSSCmcTRwkoFjaxSHQQaWhQ8HFH+Jv8B+4ukQJgkOWQofSTsWhdAh0EodCoRAQhHDvJvgRa+IFywWf8XtfyMM5J9+RUuoPP8gvOdg3B4GDwP8rUCgUME1TjjNztOse6Pf76LrO7e0tcRzLODU7nUC5XMayLAzD4OLiQsaZ2Emg0Wgwm80Iw5BmsynjTGQWKBQKVKtVfN/H8zxKpRKWZclaajILNBoN4jhmPB4TBAFRFP3TKWQS0DQNx3GYTCZEUcRyuWQ8HuM4Drquy3oqMgnU63VOT0/xfX81G41GaJrG9fX1WjctmQRarRbT6ZQwDFez+XzO4+PjzteQWqBYLHJ+fs5oNJIRnueRz+epVqsy2kpqgZubGz4/P7m/v5cRz8/PzGaznU4hlUAul6NWq+H7/satNxwOsW0783pOtYo7nQ7tdpswDImiSMYAnJycoJTC8zx6vZ6MN7JVQNM0BoMBX19fvL29yXiNs7MzTNOk2WyyWCxknMhvOZBcXl6Sy+XodrtMp1MZr2FZFv1+H8dx8DxPxolsfQOu6xKG4daPA7y/v/Py8pLpMX4roJRCKbW2eLYxHA4xTRPbtmWUyLcCrusSRRGTyURGG3l4eODj44NWqyWjRBIFbNsmCALq9Tq6rnN3dycrG3FdF8MwqFQqBEHA1dWVrKyR+BcYhoHjOBwfHwPw9PTE6+urrCWilFptxDiOCYKA+XwuaysSBfZJ4hXsk4PAQeAgcBD4cYG/Kie8uTleB9QAAAAASUVORK5CYII=;" parent="Gm3EFjgsQVNfLWqenXtV-1" vertex="1">
          <mxGeometry x="918" y="97.92" width="28" height="33.24" as="geometry" />
        </mxCell>
        <mxCell id="Gm3EFjgsQVNfLWqenXtV-16" value="" style="shape=image;verticalLabelPosition=bottom;labelBackgroundColor=default;verticalAlign=top;aspect=fixed;imageAspect=0;image=data:image/png,iVBORw0KGgoAAAANSUhEUgAAACcAAAAiCAYAAADcbsCGAAAAAXNSR0IArs4c6QAAAARnQU1BAACxjwv8YQUAAAAJcEhZcwAADsMAAA7DAcdvqGQAAAIHSURBVFhH7dYxaBNRGMDxf9KjoRcTciS0SHFKIaMiTqlLZj0kgyZdbg5kc+8a0Dm6HGS4oaLQwalbhia7hNRWRFuLSymnIUTxQhriYqR9aN7d9aEd8h/f9x38OB7HRXK53IQrWlQ8uErNcWGb48KmBJdOpdiq13nTbvPiWZ3rmbS4EqrIZT8l6VSKne1tEskkZx8/oGXX+PH9Gw8elfh8eiquB+pSb+48bNje5ezokGF7l6X4NV6/esmN5WXxkUCFxomwiecBMPE8ZcBQuL/BpqkCBsbJYNNUAAPh/MKmnQc+f/pEHEvzjQsKmzbxPEbvDsjevCWOpPnChYUBoGlo2TUOu11xIk2K03WdLcchubrK6OBtYFgsv84oGuXx5qY4lTYTp+s6tm0z1jQ+7XVZvH2HaDojrv25KWxB42GpxPvjY3FD2kxcpVLBMAwsy+JeqczR/j6x/LocqACGDFcoFHAcB9d1GY/H3N/YkAMVwZDhWq0WxWIRXdcB5ECFMGS4RqNBIpHAtm05UDEMGc51XSzLwjCMmcCFlRXlMGQ4fAIX83eVw/CDYwYwFovxdTTiy8mJchhBfzYzmQyO4zAYDGg2m5imSTwep1ar0e/3L+wOh0M6nc6Fs6AFwvELWK1WKZfLRCIRcfw713UxTZNeryeOfBcY9y/zdef+V3Nc2Oa4sM1xYfsJFa4fE3rcZPEAAAAASUVORK5CYII=;" parent="Gm3EFjgsQVNfLWqenXtV-1" vertex="1">
          <mxGeometry x="664" y="98" width="37.25" height="32.48" as="geometry" />
        </mxCell>
        <mxCell id="Gm3EFjgsQVNfLWqenXtV-17" value="" style="shape=image;verticalLabelPosition=bottom;labelBackgroundColor=default;verticalAlign=top;aspect=fixed;imageAspect=0;image=data:image/png,iVBORw0KGgoAAAANSUhEUgAAAF4AAAAxCAYAAABTcB7hAAAAAXNSR0IArs4c6QAAAARnQU1BAACxjwv8YQUAAAAJcEhZcwAADsMAAA7DAcdvqGQAAANeSURBVHhe7du/Szp/HMDx5/tUhJJcovwDzu0IBxsN3IvAQYhoCfwDKmhpcmkQKsSxJYgWqaFNKEiIaGiJoM0hcLFRI0k67z5Lyufe+vlCeD++4Pux9Xq/I3iq59HdCcMwbBTfafJA8YcKHxAVPiDi72O8pmnMzMwQDocJh8POncqvfH9/Y5om3W4X2x79Gh2Gj0QixGIxbNvGsiwsy5L3Kr8ghCAUCiGE4OPjA9M0HesaP+/02dlZTNPENE0V3QW2bQ97xmIxhBCOdQ0gGo1iWdbYj4QymcERJBqNOuYaQCgUUu9yD1mWNfKdOQyveEcIgaY5TyDV6aQPbNsef4xX/KfCB0SFD4gKHxAVPiAqfEBU+IC4Gr5UKlGtVuUxhUKB6+trHh8fubu7o1KpkEgk5G1TxZXwe3t71Go1MpmMvEQ+n2d7e5tOp8PJyQn1ep10Os3BwYG8dapMHP78/JzV1VVeXl5oNpvyMpubmzSbTba2tqhWqxSLRe7v70mn06RSKXn71Jg4/NHRERsbG+zv78tLpFIpFhYWuLm5ccyPj48BWF9fd8z9ous6uVxu5P8nA5qmkcvl0HVdXnLN+L/8C8/Pz7RaLXkMwPLyMgBPT0+OeavVot1uMz8/75j7pdfrkc1mKRQKI/E1TaNQKJDNZun1eo41N00c/r8kk0n4eXFknU6HxcVFeeyLZrNJuVzGMAxH/EF0wzAol8tjD51u8TT8/1mj0XDEj0QijuiNRkP+FVdNbXik+IeHh75Fx+vwn5+fAGPP2efm5nh7e5PHvhvEf3199S06Xod/eHgAYG1tzTFPJBLE43He398d86A0Gg3Ozs58i47X4W9vb2m326ysrDjmu7u7fH19cXFx4ZhPE0/DA1xdXaHrOpVKhXw+T6lUIpPJUK/X/3kaOg08D396esrl5SXJZJKdnR2Wlpao1WoUi0V561QRhmHY8Xicfr8vrykuCoVCtNvt4c+ev+OV8VT4gKjwAVHhA6LCB0SFD4gK7wMhxMgt8BqgzuE9NrhH/m8agGmaI3ezKu4RQox/FGdwiUvFd9+gqXwZUePno9Dtdocb1QvgjsElxXFP/jketxRCEI1GCYfD6imRCfX7fUzTpNfrjURHDq/4R51OBkSFD4gKHxAVPiB/AOxlP79IiEXeAAAAAElFTkSuQmCC;" parent="Gm3EFjgsQVNfLWqenXtV-1" vertex="1">
          <mxGeometry x="946" y="97.48" width="64.31" height="33.52" as="geometry" />
        </mxCell>
        <mxCell id="VqrlR4_iN_i2oVeqkXGc-2" value="" style="shape=flexArrow;endArrow=classic;html=1;rounded=0;exitX=0.006;exitY=0.406;exitDx=0;exitDy=0;entryX=1;entryY=0.5;entryDx=0;entryDy=0;fillColor=light-dark(#FFFFFF,#FFF7F4);width=5.2631578947368425;endSize=9.947368421052632;exitPerimeter=0;" edge="1" parent="Gm3EFjgsQVNfLWqenXtV-1" source="Gm3EFjgsQVNfLWqenXtV-12" target="VqrlR4_iN_i2oVeqkXGc-6">
          <mxGeometry width="50" height="50" relative="1" as="geometry">
            <mxPoint x="100" y="259" as="sourcePoint" />
            <mxPoint x="32.51132000000007" y="463.7840000000001" as="targetPoint" />
          </mxGeometry>
        </mxCell>
        <mxCell id="VqrlR4_iN_i2oVeqkXGc-6" value="" style="shape=image;verticalLabelPosition=bottom;labelBackgroundColor=default;verticalAlign=top;aspect=fixed;imageAspect=0;image=data:image/png,iVBORw0KGgoAAAANSUhEUgAAB3oAAAKFCAYAAAAqOeiCAAAAAXNSR0IArs4c6QAAAARnQU1BAACxjwv8YQUAAAAJcEhZcwAADsMAAA7DAcdvqGQAAN3SSURBVHhe7N15fFT1vf/x95nJShLCvoQ9EQVBgwtSBLSoIBSXWrVFvYqVXosX7ILV63KlrV6XH/bHbRV+Wlus6K3SVq2KFAtWtBCp4kJkFUwU0LAoe/aZOef3x1ly5mQSkpBAAq/no6cz8/2ec2aIfCfDec/38zX69+9vqREMw1A4HJZhGAqFQsFuAEeRZdnD17IsRaNR7zEAAAAAAAAAAACOb0Zjgt5wOKykpCSFw2FJIugFWgHTNCVJsVhMkUjEewwAAAAAAAAAAIDjV4OSWsuylJycrNTUVCUnJysUChHyAq2EOx6Tk5OVlpam5ORkZvYCAAAAAAAAAAAc5xqU1obDYaWkpBDuAq1cKBRSSkqKN+seAAAAAAAAAAAAx6fDJreWZSktLU2GYQS7ALRChmEoLS2NWb0AAAAAAAAAAADHsXqDXsuylJSUxExeoI0JhUJKSkoi7AUAAAAAAAAAADhOHTbBJeQF2ibGLgAAAAAAAAAAwPGr3iTIsiwlJycHmwG0AcnJyczoBQAAAAAAAAAAOE4dNuhlViDQNoVCIYJeAAAAAAAAAACA45TRv3//OpOgWCym7OzsYHMtl5y1Xz+9dLeyUi1ZlmRZhiwZ2rEvRf/x+xzt3M+sYOBYOHDggMLhcLAZAAAAAAAAAACgzTn77LM1cODAuLZYLKbPP/9cH3zwgWKxWFzfsXbppZfovfdWa9euXcEuSVL37t11zvDhWvTaa8GuBmmWoPflOz5Vzw4xSSFZMpywNyTJUMm+ZE2Z21NlVYRNwNFG0AsAAAAAAAAAAI4XiZacTU9P1/Dhw3Xo0CG99957we5jqnv37ho5cqRWrVpVK+ytr6+hmiXo/deDmyUZkkIyLUmWG/jabfat/dhy9rMsqWRfkp5+O0NL16QFTwkc16677jrt2bNHr7/+erBLPXv21I033qiHHnoo2NVoLRX0XnLJJXqtid8uAQAAAAAAAAAAaIyzzjpLAwcOlGEYce2WZWnLli3asmWLJkyYoD//+c9x/a1BokA3UVtTNNMCvCFZVlimaUhWWJYVsmf0htspre/l6nDOg+pw9i/Ucfg96nTmz9TpjBnqPOyHOu2bN+jnP7koeLJ6rV271ttWr16tu+66y+ubMWOGZsyYIUlavHixFi9e7Duyhr+vZ8+eevTRR9WzZ8/gbodV33NI0oQJE7R69eomnRvHtz179uiee+7RhAkT4tp79uypZ599Nq6tNbrtttuCTQAAAAAAAAAAAC1i4MCBWrJkiV544YW47bXXXtPAgQNVUVHRIhPfmsOuXbu0atUqjRw5Ut27d2+2kFfNFfS2O+sJZZ77vLLOfVZZI+er/TceV/aIR5V91n1K7TpMiuyRonulyF4pekCKlUpmmWSWq31GfPLeEB9//LEefvhhrVq1Stdee63OPPNMSdLYsWM1duzY4O71ys/P19ixY5Wfnx/squXRRx/Viy++GGyu0+uvv66XXnpJc+fODXbhBPf666/rgQceiAt73ZD3H//4R7PM5gUAAAAAAAAAADgeGIah8vJyRSKRuK20tLTWLN/WyB/2NlfIq+YKeg1VS1XbpaovpKovpeoSqXqHVL1bih6UzCrJqpbMaue2ytmcx420Z88e/fGPf9S7774rSRo8eLAk6corr9SVV14Z2Lt+r7/+uk477bSEJXSD8vLylJbWuDLTDz30UKNfE04M/rD3uuuuI+QFAAAAAAAAAAAt7pprrmnQhtavWYJemRV2aGu6IW6C21i1ZEVqAl+vrzJ4tgYbMWKEdu3apT/+8Y+SU9b50Ucfjdvn97//fcIyz65HH31Ua9eu9R7PmDFDb7zxhneMe77Fixerb9++6tu3b9z+8j3HihUrvNmZEyZM0OLFixM+t/81/fGPf9TatWt13XXX6brrrvPuy1nH1f94xowZWrFiRa3nevTRR7V69WqtXbu2UTOOcey9/vrreuKJJ3TnnXdqw4YNhLwAAAAAAAAAAKBFPf/88w3a0Hz85Zr9ZZyPVDMFvb7w1h/mWpH4WbyxSt9sXifkNauCZzussWPHau3atRo5cqTee++9YLenb9++2r17t8aPH6/NmzfrO9/5Tr3r5Z555pn64Q9/qA0bNmj8+PFasGCBxo4dq7vuukuTJk3Stm3btG3bNp122mneMX379tWaNWs0ZcoUSdK///u/S5LuueceFRUV6bTTTtOCBQu8EtN33XWXRowYoYcffliXXXZZg2cIu6/tiSee0GmnnaZPPvnEmwk6duxYLViwQKeddhqzh9uYnj176vvf/76WL1+uM844o9aava3BJZdcouXLl8dt3bt3r9X2y1/+MngoAAAAAAAAAADAUbFly5ZgU6sQXJM3uGbvkWimoNcJd71A1wl5Y5XOrb/PH/Q6gXAjuWv0LliwQOPGjUs4U1eStm3bprvvvls7duzQ3/72N6WlpemCCy4I7ua58cYbJUk/+tGPtGPHDs2dO1fbtm3T2WefHdzVs23bNs2dO1cffvihDh48qLS0NF133XXq0KGDF0j/8Ic/lJwS06NHj9a2bdv0xz/+UTt27NBLL70UPGVC7mu78847tXbtWo0YMUIdOnTQm2++qcrKSn3ve9/TXXfdVW+QjdbFvybvj370o1pr9rYWr732mrf+tbvt2rWrVtvPf/7z4KEAAAAAAAAAAABHzLIspaamBpvVrl07WZalSCSi999/P9h9zAVDXldzhb3NE/R65ZirakJfs8qZ0VslWcHZvJW+rfEzet01eufOnavdu3e32nDz4Ycf1mmnneZtbonpI+E/32mnnaYdO3bosssu04oVK/Stb31Lzz77bPAQtEL+kNct1+xfs7e1hb0AAAAAAAAAAADHypYtW3TJJZfUWkf4sssua7UzeSXpnOHDa4W8LjfsPeec4cGuBmueoNdfttlfxtlfntkr5xyYzduEoNc1Y8YM9e3bVzt27Ah2SU5Z5euuu049e/bUd77zHe3fv7/esPXpp5+WnDVve/bs6Z1/+fLl3j6Jvi0Q9Mc//lGVlZVeqeiePXt6z1tUVKRu3brpuuuu05lnnqnvfOc73nEbN26UnLWH3dfs+tvf/iY5r01OKeff//73kqQdO3bo7rvv1ooVK44o9cfRc+ONN8aFvC437L3qqqvi2gEAAAAAAAAAAE5UH3zwgRYuXFhrHeGFCxfqgw8+CO7eaix67bWEIa9r165dWrTotWBzgzVL0HvwwH47tI0ry1zHFtjny90VwdMdllsSecqUKVq+fHmtsMy1bds2XXvttVq6dKm6deumBx54ILhLnA8//FC//e1vdcYZZ2jp0qX63ve+p0WLFmnu3LmSpJUrVyo7O1tr164NHlrLvffeq+zsbC1dulSvvvqqKirsP+dDDz2kbdu26c4779RvfvMbffLJJ94xH374od59912NHTtWr776qr788kuv7/XXX9dzzz2nM844Q2vXrtVvfvMbFRUVacKECVq7dq3Wrl2rMWPG6LnnnvOOQev10EMP1fn39vXXX9cPfvCDYDMAAAAAAAAAAADgMfr3728FG12xWEzZ2dnB5lrGn16lKd+sUrdsS7IMyQjJMg1ZMmRZ9q0UkmWFZFnyHpdVGnryDUv/WGcET3nCuO6663TnnXfq4Ycfrne2MdAUBw4cUDgcDjYfsV/+8pesyQsAAAAAAAAAAHAMNUvQm5x/vjr+x0OSZdlBrmUvimxJvjZLsiRT9q3ltJc99V+y1q0MnvKEQdCLltRSQS8AAAAAAAAAAACOrWYJejeN/X+y5+Rakumezp63K8uy2+3U19vHMJyHsjSw4Laak51gCHrRkgh6AQAAAAAAAAAAjk/NEvQCaJ0IegEAAAAAAAAAAI5PoWADAAAAAAAAAAAAAKB1I+gFAAAAAAAAAAAAgDaGoBcAAAAAAAAAAAAA2ph6g95QqN5uAK0cYxgAAAAAAAAAAOD4VGcKZJqmwuFwsBlAGxIOh2WaZrAZAAAAAAAAAAAAbVzCoNc0TVmWpdTU1GAXgDYkLS1NcsY0AAAAAAAAAAAAjh9Gnz59rLgGw1A4HFZ6ejplX4HjgGmaqqysVDQalWXFDXcAAAAAAAAAAAC0UcbQoUNJfgAAAAAAAAAAAACgDWHKLgAAAAAAAAAAAAC0MQS9AAAAAAAAAAAAANDGEPQCAAAAAAAAAAAAQBtD0AsAAAAAAAAAAAAAbQxBLwAAAAAAAAAAAAC0MQS9AAAAAAAAAAAAANDGEPQCAAAAAAAAAAAAQBtjDB061Ao2AqgtHA4rJSVF4XA42AUAAAAAAAAcVdFoVJFIRLFYLNhVr+TkZCUnJysUYg4QAACtmWmaikajqq6uDnZ5+G0ONEBGRobS09MJeQEAAAAAANAqJCUlKT09XRkZGcGuOqWlpSktLY2QFwCANiAUCiklJUXt2rULdnn4jQ4cRjgclmEYwWYAAAAAAADgmDMMo0GTE5KTk5WUlCTLosAjAABtSTgcVnJycrBZIugFDq+uwQMAAAAAAAC0Bg25fpWSkhJsAgAAbYBpmkpNTQ02S6zRCxxeZmZmsKlVCYVC3toqzSESiSgSicg0zWAXAAAAAAAAWqnS0tJgU5zWfo0LAADUL9Hvemb0Am1Yamqq2rVr12whr5xvgLZr167Ob4cAAAAAAAAAAADg2CPoBdoodyZvS0lOTlYoxFsEAAAAAAAAAABAa0SKA7RRLRnyuo7GcwAAAAAAAAAAAKDxWKMXOIymrl8ybNgwXXfdderYsWOwK6F9+/bp5ZdfVkFBQbAroaa+rsZKVPMdAAAAAAAArcvhruEcrWtJAACgZST6XU/QCxxGUz4Ed+vWTf/93/+tf/zjH/roo4+C3Qmdeuqp+ta3vqX7779f27dvD3bX0pTX1RSJ3jgAAAAAAADQuhzuGs7RupYEAABaRqLf9UeldPOECRO0YsWKYHObc/HFFysnJyfY3OpNmDBBq1ev1l133RXsatV69uypBx98UIsXL47bHnzwQUnSo48+quuuuy54WKuQm5ur8vJy/elPf9LmzZsbtL388ss6dOiQ+vbtGzwdAAAAAAAAAAAA2oAePXro6quv1tVXXx3sanYtHvROmDBB99xzjx544IFgV5uzdu1anXbaaW0q7HV//pWVlbrwwgvbTNjbs2dP/f73v9ehQ4c0adKkuO3QoUNavHix2rVrFzys1QiHw6qsrAw2H1YkEgk2tRl//vOftWrVqrjNNWzYMK1atUq33XabJGn27Nn6/e9/7zs63tVXX63XX39dSnBsUxzu+dRMzwMAAAAAAHC8mjNnjp588sm47UhdcMEFmjNnTrC5Rdx///265pprgs0tas6cObrggguCzcfE/fffX+9/vyeffFLTp0+XJF1zzTW6//774/r9Bg4cGHe8/9immD59uu68885gcy1H+jwAcDTMnj1bjz76qIYPH64xY8boz3/+s/793/89uFuzadGg1x/yuqFNW1ZSUtKmwl7/z//gwYO6/vrr20TY64a8jz32mB566KFgtx566CE99thjys/PD3ahDs8//7zOP//8YHOzW7FihUaOHKmRI0dq/fr1+vOf/yxJWrNmjUaOHKn/+3//b/CQw2rKsa+//nqjvynjPs+4ceM0bNiwYHeb9sorr+iiiy4KNgMAAAAAADTK8uXLdfPNN+vmm29WcXFxvWEgWp/CwsI6//vdfPPNmjdvXtz+DdXYY5sagN98883q0aNHk44FgKNh9uzZkqTvfve7uuOOO/SjH/1IP/rRj3Teeec1OrNoqBYLeo+3kNfVVsLeRD//HTt2tImw99Zbb9XKlSsT/r256667tHjxYt16663avXu39uzZE9wFCTzxxBP60Y9+dFTCXtfGjRuDTW3ChAkTNHDgwGBzm/bYY4/pZz/7GWEvAAAAAABoNi+++KK6d+8ebEYbsXXr1mBTm3DvvfcGmwCgVejRo4f69++vO+64I659586duv3229tW0JsoZDyetPawt76ff1sIe/Pz8xPO5JUzm9dfxjn450Nib7/9th599NGjGvaOGDFC7777rvc40Szb2bNne2We3dm/iQSPve222+JKRLvfknHLL2dnZ2vmzJlx5aMl6fe//32tYxL1TZ06Na7v6quvjnu+2267zXu97nP6zZ49O+7P4+7jP94V/LMEf0bN4Y033tCvfvUrwl4AAAAAANBi3HK+7hYskzx9+vS4fv8X7a+55hqvPThL2N8XPM59nuBx/jLTwfP5+4IzQ/3ljf3HuaWF3f7gcS7/8YlKDPv/HP7zu6WS/T8jfynj4M820bnlnL+u1xZ06qmnasOGDd7jRKWt/T/7+kpsB4+94IIL4l6v+2dx/xyZmZmaPHmyngyUj77zzjvr/DP6fzaTJ0+O6ws+n7/0dLDMtJxzBf9e+I/3P3fw719Df74ATjxjxozR559/HmyWnLC3pbRI0Ou+Sd56661avHjxYbfW5oILLjjsNmjQIMkJJVubukJelz/snTBhQrC7TbnuuuuCTajD0Qh7x4wZ4wWWBw8erLfc8pAhQyTJK/Xcvn37w66jKycYveqqq7zjRo4cqTFjxui2227zyi8fOHBAc+bM0ciRI73jhgwZoo0bN2rkyJGaM2eOxowZ45Vonj17tnr37u2d74svvvBey7BhwzRz5kzvfCNHjtRVV13lnbchHn/8cb3wwgsaOXKkbrnlFl111VUaNmyYhg0bpquuukq33HKL97paCmEvAAAAAABoTjfccIMKCwu9x7fffrtX2vmRRx7R2LFjvVD2zjvvVF5enlc2ePny5d5xmZmZ6tevn9fXvXt3LzS84IILNHbsWD3yyCPecbfccot3rJzA8uabb/Zmej755JMqKiryzue/uD527Fg9/vjjuvnmm1VYWKhLLrnE63PDSPc4OYGgKzc31/vzvfnmm167K9HxmZmZXv8111yjhQsXev0ZGRlx4ag7O/pm5+eXm5vrhYq33HJLXNnspsrPz/cCy7KyMj3//PPBXTzdu3eP++9SVlZWKxxN5IILLtDkyZO9/2Y333yzunXrpunTp2vLli26+eabVVpa6v0sXLm5udq6datuvvlmLVy4UPn5+d7fn2uuuUb5+fne+QoLC+OC3MmTJ8f9bMeOHeudtyHmzJkTV9Y6Pz9fF1xwgQYOHBj392/hwoXBQwEgTlpaWrCpxbVI0PvSSy+pqqpKP/jBD+JmX9a1tTZvvvnmYbdVq1bJNE1t3749ePgxN2bMmDpDXteOHTt00UUXHXa/1u7aa68NNuEY8q/Ru3fv3nr/fm3fvj2uhMH8+fPVu3fvuH0SGTdunF544YW4thdeeEEjRoyIawvavn27Fzz/5S9/0YEDB7wPi2PGjNH8+fO9fefOneu9lhkzZmj9+vX6y1/+4vUHn78+s2fPjnvuNWvWaP369brwwgu1Zs0ayflAKud1+Z8HAAAAAACgNRk7dqwXFC5fvtxbl3X69OnatWuXFxxu2bJFxcXFOvvssyUnxHv88ce98zz//PPasmWL9/jhhx/27hcXF6tTp06S83yFhYXevu75/bN6/aHxNddco127dsWtF+u/7z/X0qVLvSB24MCBys3N1TPPPOPtu3z5cvXo0cN7vGvXroQBr+o4ft68eSotLfUeP//883HH79692/tzSlJpaan3Wrds2aJdu3Z54W9ZWVncvnWth3tzHSG0yx9mHjp0qN5JB6WlpXH/XZ555pkGleoO/jeTpNdee015eXlx+wX5//68+eabKi0tVZ8+fSRJw4cPj/vvPG/ePO+1XHnllSouLo77c/v3PRw3bA/+PRk8eLD3Z3Bfh5sNAEAif/nLX9SjR4+43x2uiy66SAcPHgw2N4sWCXofeugh/eMf/9Czzz6rnj17BrvbvPT0dI0ePVo7duzQunXrgt1Aq3T++efrRz/6kR599FG9/fbbwe5m54a4dZUiPpI3tW3bttV63L59+7i2oETP17dvX+++W+p51apVevzxx5Wdne317d2717vfFH369IkrzzxkyBDvw+gtt9ziPXewnHRzuuiii/Szn/1Mv/rVr/TGG28EuwEAAAAAAA7LnVUanA0rZwaov8Rtbm6uOnXq5IWy/uDPzx+GurKysrz7/lmoTzplf93gTc6X+12dOnVSWVmZ9zgo0TUef2h8++23e88zefJkZWRkeH31nddV15/R5S/tnJubG/fnTHR+N9y99957lZeXpycTlKJuKjfYrKsUcaLX01DBn/P27dvjZjcnkuj5/MGy/0sGTzqlmN3/docOHfL2a4rMzMy4c+fn53v/bR555BGvzHSwnDQABC1btkyPPPJIXNh70UUX6dZbb41b6rI5tUjQq+M47CXkbXmFhYUNWj/4rrvuiisP05rs3btXXbp0ifvQeTg9evRQp06dEn64PVJHO+Rtir59+yYMYxPxB7Tu44YeWxe3fLJ/q0tDvr3ot379+lrndoNwt9z0yJEjdfrpp8et39tcCHkBAAAAAEBzmjdvnsrKyuKCr+LiYm+2qLv5Z0n6A9XG8Jcsdrf6ZlX6w9nGCj7PzJkzg7s0ij/cnDNnjnbu3Omdu7i4OG7fw5k5c6Zudkoo+9fvPVr69OnT4OuW/tnHauSxdfGXZna3uoL14PMfzq5du2qd253N7Jabvvnmm5WXl1drHWMA8Pvd736nV199VY8++qj+/Oc/65VXXtHkyZP12muv6corr2yRZRVbLOjVcRj2EvIeHY899phGjx5d7/rBEyZM0OjRo/XYY48Fu1qFjRs3atWqVfr5z3+uhx9+uEHbfffdpw0bNmjt2rXB0x2xadOmHfWQ152dWlcp4iFDhsTN9r3qqqsa9I2Wjz/+uNYauYmODYbB9Vm/fr3uvvvuYLMk6e9//3vcer7Dhg3TmDFjvP41a9bowIEDcbNx/f3PPfdcrT+ra9iwYXHB7sGDBxsdIjfErbfeSsgLAAAAAACa1TPPPOOtZbp06dK4NWX93DLEN9xwg9d2zTXXNCj43bBhQ6PWW126dGncGr8KrLNbF/c1NjVATXR88FyZmZnauHGj9zg3Nzeuvz7+P8OhQ4fqDLOffPLJhP8NEnHPWVdoHvw5XnLJJSoqKorbJ5ENGzbEra+rOo5tzDWwoqKiWjPIXe+9917c8w0cOFD5+fle/5YtW1RaWhr3M/T3P//887X+rK6BAwfGtQdLaANAIn/5y1/03e9+V9/97nd1+eWX6wc/+IF+97vf6Ve/+pV+9rOfNXvY26JBrwJhb1tHyHt07NixQz/4wQ906623JpzZe9ddd+nWW2/VD37wA+3YsSPY3WrMnz9fv/zlL/XUU0/pqaee0ieffKLy8nLvcXl5uT755BPv8YMPPqhf//rXMk0zeKojds011xyVkHfMmDFeeeLTTz+93rB+/fr1uvrqq739V6xY4a1jW5877rhDK1asiCuF/MILL8Qdu2zZMl111VVatWpV3LF1+cEPfiBJcef0B9UrVqzQ448/rlWrVunhhx+utUbv/Pnz4/7sK1as8PrWrFmjOXPmxJWG9r8u93W6bf51i5vL5ZdfTsgLAAAAAACa1ZYtW1RYWKjJkydLzoxLt8Stv7yunNLDcoLIJ598UsOHD69zNqbf888/r8LCwrhz1le6eMuWLXrkkUfiyvw21L333qtu3brFPVei8K8u9957r3Jzc71jt27dGjeLdfny5XE/n8bM6HXLNj/plBV2f56N5S+DnZeXV++M5V27dqlfv37e/rt3765zbWC/559/XsuXL48rg11UVBR37OrVq73/Rg0xb9487d69O+6/jRukv/nmmyosLPSe75Zbbqm1Ru9rr70W92cPVokM/p158sknveA4+HepIT8DAEjkjTfe8MJed2JZczCGDh1qBRtbwoQJE/T6668Hm9uUnJwclZSUBJvbhMWLF2vSpEnB5latZ8+euvXWW+O+YSWntPNjjz121ELew60fcThDhgxRXl6eTjnlFHXu3FnvvPOOJOncc8/Vnj179Mknn2jbtm1as2ZN8NB6HenraqgjLatyPLrttts0YsQIffe73w12AQAAAAAAHBOHu4ZztK4lAcfaNddco1NPPbXJgTgAtKRhw4Zp586d2rlzZ7DrsBL9rj9qQS/QVh3ph+DLLrtMp5xySrA5zieffKJXX3012FyvI31dDZXojeNER9ALAAAAAABam8Ndwzla15KAY42gF8DxKtHveoJe4DBa64fgo/W6Er1xnOgIegEAAAAAQGtzuGs4R+taEnCsEfQCOF4l+l1P0AscRmv9EJyamqrk5ORgc7OKRCKqqqoKNgMAAAAAAKCVSXTx16+1XuMCAAANk+h3fSjYAKBtiEQiwaZmdzSeAwAAAAAAAAAAAI1H0Au0UaZptmgQG4lEZJpmsBkAAAAAAAAAAACtAEEv0IZVVVWpvLy8WQPfSCSi8vJySjYDAAAAAAAAAAC0YqzRCxxGWlqakpKSgs0AAAAAAABAqxCNRlVZWRlsjpORkSHDMILNAACgDbAsS2VlZcFmZvQCh9Ocs2UBAAAAAACA5taQ61fV1dXBJgAA0AZYllXn73GCXuAwYrGYLIuJ7wAAAAAAAGh9LMtSLBYLNtcSiURkmqZM0wx2AQCAVso0TVmWVeeXugh6gQYoKytTRUVFgz40AwAAAAAAAC0tGo2qoqIiYRnHupSXl9d5oRgAALQ+kUhE5eXlwWYPa/QCAAAAAAAAAAAAQBvDjF4AAAAAAAAAAAAAaGMIegEAAAAAAAAAAACgjSHoBQAAAAAAAAAAAIA2hqAXAAAAAAAAAAAAANoYgl4AAAAAAAAAAAAAaGMIegEAAAAAAAAAAACgjSHoBQAAAAAAAAAAAIA2xjj33HOtYCMAAAAAAAAAAAAAoPUyevbsSdALAAAAAAAAAAAAAG0IpZsBAAAAAAAAAAAAoI0h6AUAAAAAAAAAAACANoagFwAAAAAAAAAAAADaGIJeAAAAAAAAAAAAAGhjCHoBAAAAAAAAAAAAoI0h6AUAAAAAAAAAAACANoagFwAAAAAAAAAAAADaGILe41j79u2DTQBwzPCeBCTG2AAAAAAAAADQFAS9x7Hk5ORgEwAcM7wnAYkxNgAAAAAAAAA0BUEvAAAAAAAAAAAAALQxBL0AAAAAAAAAAAAA0MYQ9AIAAAAAAAAAAABAG0PQCwAAAAAAAAAAAABtDEEvAAAAAAAAAAAAALQxBL0AAAAAAAAAAAAA0MYYPXv2tIKNzWHo0KH69uWXKzcvTx2ys1VaWqqi4mItWrRIH374YXB3tIDOnTtrz549weYjlp+fr82bN6uioiLYJUlKS0vTGWecoVWrVgW70EwG9O+vvJNOUlI4LEmKxmLavHmztm3bFty1Tcg+8yKFM7K9x5E9JTq0gb8/La1Pnz4aOHCgJKmoqEhbt24N7tKsWuo9CWjrGBsAAAAAAAAAmqLZg94O2dn6+c9/rszMTL38yitat26dduzYoX79+mnwoEG69NJLFTNNzbr3Xu3+6qvg4WhGLXXhuG/fvurRvbveW7062CVJOvOMM3Tg4EEVFRUFu1odIzlNWYPOUVJ2F8kwajosS9EDX6tsyweKVZb5Dzlm/OFuzDT1r3/9S4cOHZIkdevWTWeccYYMJ/TdsmVLi4d2LaHTmCu1d8WLweY2I/uMC1Sx/RNVf/1lsKvV6dSpk04//XR95Hzx5syzzlJhYaH27t0b3LXZtNR7EtDWMTYAAAAAAAAANEWzBr2dO3fWU089peVvvqlf/+Y3wW5JUlI4rCk33qjLLrtM06ZN044dO4K7oJm01IVjwzA0YsQIffnll9q+fXtcX4/u3XXSwIEqKCiQZTXbX60W0/608xQt3aeKbRtlxaJeuxFOUrt+QxTOyNbBtf+MO+ZYueiii7RixQpVVVXVntEbjaqoqEifff65MjMz9Y1vfENvvPFG8BTHjGEYGjBggPr27au01NRgtyTp9b//3Qt6J1x8sSqrqvTFF1+oqKioVfxdSk1NVf7pp6tDx44KOV8K2L17tz786CNvn05jrpRVVaGy4sJWFfZ269ZNZ55xRrC5QQreecf7QsGRau73pPzTT9ejjz6qH/3oRyr8+ONgt06e9YI233dVsBn1GDxokGbOnKmhQ4dKktatW6e5c+cm/Pmi+TT32AAAAAAAAADaqqRwWDdNnapJkyapW9euwW5J0t0lfXQwZucjkhTZu0N7Vryokj/Njst6TgTNGvQ++uijKi4qqjPk9Zs6daqGDx+uadOmBbvQTFrywnFmZqaGDx+uVatWqbKyUpKUnJys0aNH66OPPtL+/fuDh7RKnUZ/R/tWvZpw4BvhJHUceZn2rnwp2HVMTLj4Yr3+978HmxM6Z/jwOmdcHwu5ubnq2rWr1q1dq7Ly8mC3xz+jNz09XUOGDNHBgwe1efPm4K5H3TnDh3sz1aPR2n9fwu2ylH3WeB34YKnaDx3T6sLeXr16qWPHjlq3bl2wK6FBgwapoqKiWWeGN+d7Uv7pp+uBBx7wznnPPffUCiPP+lOJPvheTlwb6ve7J5/Us//7v/rnP+0vuFwwdqz+7frrddNNN0mSnlmwwCv3HfTPf/5T/3nnncFmNEBzjg0AAAAAAACgLbv55pv1jW98Q3PmzKnzenbw2m/myWep13X36tCGd1Typ9lx+x7vQsGGpho9apTS09IShrwnz3oh2KQFTz+tdunpGj1qVLCrTuvXr9eiRYvi2kaMGKH169fHtaHllZaWatu2bRoyZIjXNnjwYO3atavVhrypqak6Z/hwjR8/XhMuvthuNIyEIa8ku91fzrkNaU0hr5xy3/6Q1wgnK/us8TKS04K7eioqKrR27Vr17t072HVMdOjYsVbIa4STlXnyWeo4YpKyBn9D0f1fKVZ+SAfXrVBGbr5SuvSKO8exVFVZqXbp6cHmOqWlpanK+RJHa+OGvPfcc48k6Z577tEDDzyg/NNPD+7aaAUFBSopKam1jRgxotZ+wd9Hx4OhQ4d6Ia8kvbl8uQYPGuQ9vmHKFI0899yEW2ND3vXr1+vpp58ONuuBBx5QSUmJCgoKJEmLFi1SSUmJnn766TqPcU2dOtU7DgAAAAAAAEDbM2nSpHpD3kRKN3+g7c/8XF2++b1gV0Lr16+Pu/5bX85YUlKiqVOnBpvrNXXqVO+6cktfs2y2oPfSSy+t86J31pBzg02KxmJ69dVXdemllwa76nXWWWc1+geKllFcXKy01FT16N5d2e3bq2OHDq1i5mVd8k8/XQcOHtSbb77Z4JmxbUF675PV8dzL1WnMlXFbx3MvV1qvk4K7HxNpqalxM3nTep2kcFo7pfdOPDPQVVVVpZTk5GDzMREyjLiQN5zZUe3PuECxynLtf3+p9n+wzCvz7Q97kzt2953l2KmoqFBqWt3BelB6eroqKiqCzcecP+R1Z/AWfvxxs4W9o0aNUk5Ojv7whz/ogw8+UE5OjnJycvTuu+/W2q+xv7/agnXr1um8887zHl8wdqw2btoUt09zGDFihPbv36/hw4cHu/Ttb39bV1xxhUaNGqURI0YoNzdXOTk5uvHGGzVkyBDdeOONwUMAAAAAAAAAHCe6de3aqJDXVV5UqOROPYPNdbriiiu867+rV69OOOFn0aJFuuKKKzR//nyvraSkJG6fRObPn5/wunJLaLagd+DAgfUm3omsX7++zhKQdfnDH/6gmTNnBpvbrNGjRwebEra1RpZlad26dTr11FNVWVmpNWvWJCxp21okmpF5PEjrO1j7V/9de1e8GLcdXPOm0vvVzLhuLYxQWGk9c1W66T2l9ugvI9w6gtzGMEJhZQ46R+VFa5z1nSPBXWyGISMpJdh6TFRUVio9MKP3HF/I5r8vZ0ZvZVVVXFtr8OOf/CRhmWY37L3tttvi2tuCRO/5idqOhrlz5+rGG2/Uqnfe0ap33tG/XX+9Hv9//y+42xG75ZZb9NZbb2n//v21vrzVsWNH7wPQ0KFDW02ViET/TRK1AQAAAAAAADg6Tv0/y3TWn0qU97Ongl2NcuONN2rp0qX6r//6r7j2l19++aiEtUei2YLerl276tChQ95j94d71p/sZNu97/9hb926VV3rWEi5Lq+++qqKi4vrLN3oTod2twceeEBKUOLZfTxixIha6XtBQYF3nL+Mp/85/c/hzmQOTr8OPk5kyJAheuSRR7zHjzzySFw55NbuwMGDqqquVv6wYTpw8GCwu1UJzsg8XhjhJFmR2iV2Y+WHZISTgs3HXEq3voqW7lf1nhJFD3yttJ4Dgru0emm9T5ZVVaHIvl0ywklK6ZyjjNx8ZQ2xS9GH22Wp/WnnqeKLT1T91fbg4ceEaZqKRCJKTU312jp16pTwfigUUnJysqpaYdB700031Qp5XYUff6wbpkwJNjeLgoICPf30097vlUWLFnm/JxQo9eG2u/utX7++3t8Fren3QOHHH+umm27yyjHfdNNNWv3++8Hdjtjw4cP16quv6q233tK3v/1tr939fVxSUqI333xT999/vwYMGKASpzxKQUFBXDDs/13sb3fLPZcEvoWX6He6e96CgoJ6v7DWmv47JdK7d289/fTTuv3224Ndeuyxx/TYY48Fm3X77bfr6aefbjUl8gEAAAAAAIDG2PCf4/TB93JU9Kubgl2NtmLFirjr5OvXr9f9998fd83Xf/1y0aJFXsYYvOYYzCRdwf2bQ7MFvZ999pmysrK8x+4P110M2b3v/2H36t1bn332mfe4oS699FKNHz++1hTqESNG6P7774+bbv3973+/1mwhv3fffVcffPBBXCDcoUMH3XPPPVq0aJHeeust71wDBw70ntNty8nJUW5ubq3X0lC//e1v9emnn+qRRx7RI488ok8//VS//e1vg7u1Wp06dVJycrJSU1MbHdrjxJTW+2SF0jPV/rTzFErPUlqvgW1uLeSUrn1UuaNIGSedoY7fuESp3fspVlmq5E494kLeyi8/DR56TFUmmNWbSHpaWqss23ysDRw4UDk5Od7awK6CggLNmTPH+53gDy7POuss3XTTTRpVz3r0bf33QGNNnTpV+/fv17vvvqt77rlHZ511lteXk2N/ZsjJydEFF1yge++9V5999plycnLiyqPI+TB17733ej93t3/AgAH6+OOPlZOTE/ctvPp+pw8YMEBPPfVUvcFta//vtGDBAo0fP14//elPddlll3ntjz32mK688kpdeeWVcWHvZZddpp/+9KcaP368FixY4LUDAAAAAAAAbUVzzeiVs6xdhw4dpHqu+fqvX1566aV69913vX1ycnI0fvz4uHMGzZkzJ+6aZnNotqB346ZNGjR4cLC5XoMHDWry2n9/+MMfNGfOnLi2yy67TB988EHcNOqlS5dqzJgxcfsFvfzyy/rmN78pOeUkV69eLUnKzc3V97//fS9ZHzBggHfx1J3ZVVJSoo4dO8adr7Hci8et7aLx4YRCIZ166qnasGGD1q9fryFDhigpqfXNIK2XZdU569UIJ0mWFWzGEUjpnCPFIir/9ENVbN+o8qKPFC07oNRu/YK7tlpGcprC6ZnKGHimzGhE+979mw5tWKXKkiJJarUhr5x1etN8M3rrkp6erqrK2rPEW7vBDy5R5qBzgs2SpMxB5+jk//pTsLlRnnoq8YeFAQMGeN/scn8nuF8wCv5Oqktr+T0weNAg/e7JJ73Szb978skjXvc46Nvf/rbeeust77H/y1YNNXXqVH322We1wl85Xzxzw3j/t/Dq+51e17mCWst/JwAAAAAAAADNO6PXv4xcfdd8g/zVBQ9ny5Ytuv/++5s8eTSRZgt6P/rwQ1166aXBZknSofXvBJuUFA7r0ksv9ULVxnIv4g4dOjTYVcuXX34ZbIozf/58dejQQSNGjNDw4cN14403en3+2cE5zkyup59+Wp07d/ba9u3bF3e+pvjtb3/bJi4ap/c5RdlnjVeH4ROUk3+uSktLtXv3bu3du1e7d+9WzukjlX32xco++2Kl921c8H8sRA98rfS+g2uFvUY4Se36DVH04J64dhyZ5I7dVbFtkyL7v/K2yi+3KLljt+CurVYoJVVmxSGVbvyXKj5fJyta7fXFKkpbbcirRszoTU1LU3kbnNG7/ZmfK/enT9YKezMHnaPcnz6pkhf+b1x7c/L/nshJMPu0IVrD74GZM2fq2f/9X6908/PPP68f/+QnXv8zCxZ4IXBw+z8PPxx3rrqcddZZcYHrWWed5X3ZqqUl+p3eWK3hv1MiF154offnevXVV732W2+91Wu/9dZbvfZXX33Va7/wwgu9dgAAAAAAAKCtaM4Zvd/+9re1ZcsW73FDrvkuWrRIe/bs8fY5nBtvvFE5OTl66qmnGhQMN0SzBb2v//3vOnTokH7y4x8Hu7T5vquCTfre976n/QcO6I033gh2NdhTTz2lmTNneo9fffVVnXXWWXFJ+Pjx4/Xqq6/q3XffVceOHb2+W265xdtHklavXq05c+aouLjYaysuLq618LJrzx47AJw6dao3o3fdunUaMKBmvVF/+c7jQXqfU5TcsYdKN7yj0k/eU0UoTZ8eqFnzdmuppTIjVaXrC1S2ebWSO3Rr9WFv2acfKimrkzqOvEydxlzpbR1HXqZwZgeVffph8BA0QWVVldLS0lT26Ueq3hP/5hXZt0ulm96La3OlpqaqOhIJNh9TsbID2v/BMkX2fxXs0oH3/+6FvOcMHx7sPuaqKiuVmpbmPd67d2/C+2lttHRz6ab3VPw/N8eFvW7IW/w/N9f59+xIffbZZ3WuG9/WDB06VP/85z+9x28uX67BgwZ5j2+YMsULgYPbf955p7dfXR544AGvFLN/GzBgQKO+xTZ//nwNGDCgzm/RJVLf73QAAAAAAAAArcPur75q0CRPBWb0tsvLV2TvjuAuDbJo0SLl5uZ6E0Hru+a7b9++uGuZ7mTTxlQtHDJkiD777LNGXd+sS7MFvZL0yOzZunjChIRhryspHNZ1116r737ve3pk9uxgd6PMnz8/Lph99913de+99+qvf/2rN1Po3nvv9cpmLl261Ovr3Lmz70zS448/rgEDBujll1/22i699FLl5uZ653LT9ccff1zjx49XSUmJbrrpJm9Gr7veb0OnaLc1Kd37q6xojWIVpYoe3Kv9n3ygpC69vf6kbn21f9Nqr7+s+GOldm89JXlNy6pVWjpWUaqDH7+tvStf0t4VL9ZsK1/SwY/fVqz8UNz+aJovvvhCQ4cOVWoDyga7UlNTNXjwYO3cuTPYdUwk+vtTl6SkJHU4wpLuLaGiokLtfDN63/NVVPDfb6ulmxUIeyW1eMgrSaNGjfJ+J5SUlGj9+vXBXdqMdevW6bzzzvMeXzB2bJOXWEjkm9/8ZlzZZtcHH3xQ6wtYh3PFFVfElU853Ieiun6nAwAAAAAAAGg9/v7665oxY0bcBJTDaZeXr97X3K09K14MdtXJnyXKCV9d9V3zLS4u1l//+lctWrRIL7/8sle98PQGLIFXUFDgnXPv3r0JZwk3ltGzZ89mXYS0W9euuv2OO5QUDuvFF1/U5s2btXfvXg3IzdXgQYN06aWXav+BA3pk9mzt/qr2jDg0n86dO3szj5tDx3O+pYPrCxQrOyBJCmd2VPtTR2rfe39rUP+xds7w4Tpw8KCKiooUjdbMRA6FQurfv786deqk999/P+6Y1mTCxRfr9b//PdisTmOu1N463rzq6zuaDMPQwIED1bt3b6UkJwe7JacqgPt6J1x8saojEe3cuVMbN26U1QrWSq7r709QUlKSTjrpJGVnZzdobdajqUOHDho8eLBWrVoV7Ipz9tln6/PPPtPXzfj+oRZ4T5KkeXPnavqMGcFme03eWX/R5vuubtGQ93iTf/rp+vFPfuJ9iNq4aZMe/3//T6tb8Xvj8aAlxgYAAAAAAADQFiWFw7pp6lRNmjRJ3bp2DXZLku4u6aODsbD3OLJ3h/aseFElf5otK1b39fvjUbMHva4JF1+sM848U4MHDVK/fv20detWbdy0SatXrz6ics1ouOa+cJzef6iS23dW2eb3paQUtes/RNHS/ar4fF2D+o+1jHbtNPS005Sdna2QYXjtMdPUnq+/1sZNm1p1udqLLrpIK1asUFVVVVx7x3Mv1/7Vf5cViZ+BGW6XpfbDLtC+d16Ja2/NWkswnUhdf3+CTMvSgQMHtH79epWWlga7j6mkpCSNGTNGq1evrvO1paena8SIEVq1alWtv2tHqrnfk4DjBWMDAAAAAAAAQFO0WNCLY6/ZLxwbhtL7DlZa9/6SpMrd21Sxdb3kzrY8XD+OyID+/ZV30klKCtvfUtm9e7c+/Ogjpfc+WWl9B8sIx5cVtmJRVWxd760Z25pln3mRwhnZ3uPInhId2lD/rFM0Tbdu3XTKKacoo127YJfklHfe8umnLVLWttnfk4DjBGMDAAAAAAAAQFMQ9B7HuHAMoDXhPQlIjLEBAAAAAAAAoClCwQYAAAAAAAAAAAAAQOtG0AsAAAAAAAAAAAAAbQxBLwAAAAAAAAAAAAC0MQS9AAAAAAAAAAAAANDGEPQCAAAAAAAAAAAAQBtD0AsAAAAAAAAAAAAAbQxB73EsEokEmwDgmOE9CUiMsQEAAAAAAACgKYyePXtawUYAAAAAAAAAAAAAQOvFjF4AAAAAAAAAAAAAaGMIegEAAAAAAAAAAACgjSHoBQAAAAAAAAAAAIA2hqAXAAAAAAAAAAAAANoYgl4AAAAAAAAAAAAAaGOMc8891wo2AgAAAAAAAAAAAABaL6Nz586WJKWkpAT7AAAAADRRdXW1srKylJGRobKyMlVVVQV3AQAAAAAAAJqM0s0AAAAAAAAAAAAA0MYQ9AIAAAAAAAAAAABAG0PQCwAAAAAAAAAAAABtDEEvAAAAAAAAAAAAALQxBL0AAAAAAAAAAAAA0MYQ9AIAAAAAAAAAAABAG0PQCwAAAAAAAAAAAABtDEEvAAAAAAAAAAAAALQxBL0AAAAAAAAAAAAA0MYQ9AIAAAAAAAAAAABAG0PQCwAAAAAAAAAAAABtjNG5c2dLklJSUoJ9AAAAAJqourpaWVlZysjIUFlZmaqqqoK7tLiMrPbq0auvMrPaS5IMw7A7LMmyLPeuvHuWZNk3Hsuy7MdOo3vftEyVHTqgr3duV1VFue8IAAAAAMdCOGQoMyVJ2WnJ6piWrJ7t09W1XZoyUpIUs6SDVVHtOlShr8qrtK+iWgcqq1Ueicr5pwEAoA0i6AUAAABawLEOerv1yNHVN/6HhuSfraSkJFmSnJhXliWZliXLsmRakmnaYa5pWfb9YH9wX8tSzLQUjUS09r239ObLz6qi7GDgFQAAAAA4GgzD0KndMjV2QBcN6Z6tfh0y1SMjTeFQkiRDlhWSKcP5UqehSMzS9gMV+nTPQRXu2Kv3vvxKn+87GPeFTwBA20DQCwAAALSAYx30XnX9D3XhpCsUDifFtVtu0GtaToDrC3idsNdy+kxn5q8b8Lr72232VlFWqkXPPKpP162Oex4AAAAALa9/x3R9/8y+Gtm3s7pmpCspFJZlGbJk2LdWqOa+cyvvvlQRiWlPRbXeLP5Sz328Wfsqju6/WwAAR6bVBL154y9Wt9NO98rIWfZVppr7lmGXl3NmGMi5AGWZ0q7C91XyQUHwlAAAAMAxc6yD3pmzfqVThubXlGv2hbzujNz40LbmvmVKMWcWrxcE+/axj7fvRyMRvf7n32rtqn/EPT8AAACAlhMyDI0f2EW3j8lTt4x0hYyQLCssMxjy+h+7Qa/s+17gKylqmvqw5Cs9suIjfXGwNPh0AIBWqtUEvee/sVwHM7JlRkx7BkHMkhU1Zcbc+7LvR02ZMVOKSWbUlBWz1KnigAp/dEXwlAAAAMAxc8yD3p//SqcMGSZfzlsT5pqWTGf9XX855lqhrmnJkrN/ICB2Z/dGoxEt/fOT+njVG/6nB3C0hcJSuw5SajvFDXx/3Xb3cRxfQ+K7PvYi3oZlyarYL6O63P72CIBjg3EPnLDSk8O6ckgP/fjc/spMSZVlGTIVkmnWzN6VQnbo625OCWc74JUT8Lr7yrv9qqxSv171kVZtK1FVLBZ4ZgBAa9Nqgt6TVr6vaCRmB7pRU5Zp35pRO9y1vJDXkhW1NzcEVtRU2W0TgqeUNFkLSuZonK9l2cwcTVnoawAAAABaQOsIevNlGCFJTllmX2DrlW0OlnD23bdD4Zr7llUz09c9TyQS0bK/PMmMXuBYSkqRMWyilH+x1CFHCoWCe9Rw8xnnixxeYOOMcbvfHudem9Mvy7mNRaRdnyr04UsyvlwnWaazE4CjhnEPnLC6Z6Zoxsj+uuLUHgobYVkK2WvwOjN43du4cNcyZPpn8FohZ+jbs3ndWb6SHQBHYjEtXPuJ/vjxBpVVR4IvAQDQitTzKTCxUH0fHBvQX5dIVUxmtaVYxLS3qphi1fZ9M2IpVm3KrDZlOvtFq2OKVdv7RKvdT6CJFOuJiTnKyclRzsQnlDdngSYHdwEAAACOY27Ia1+/rQlt3XV53WDXDXkty12n193fng1c02/P9nVnAnsXkAEcG71OlTHuFhkDzpLRsaeM7O61t/bdpKxuUlZXKaurrPb2rbK6ycrsKiurm6ysrrKyusjK7CpldrVvs7pKmXabldlFVmYXmdk9ZZ40StFxM2Vldgm+GgBHA+MeOCF1SE/WPd/M03dO7W6vxauQTC/cTVSu2e4znTDY3d+yDJmWoZhlyDRDTr/h9SWFkvWdU0/RxXkDlNTE6/0AgKOj0e/Sa9as0W9+8xuFw+G4dsMw9NBDD2nNmjVNCnvNarMmzK22g92YE+zGqmJef6zaUqw6Zoe/VXYgHK2KBk+XWOFmFSlPJ+cHOwAAAIDjj+VM03HDWsuKD3bt+/Gze719nT7nDPHn8J3HcgLkIzNZC0pKVOLbVs7iQzvQYKddJGV0tO8nGJDuuJX3RQ9Llml6t2678+0O3/7ODMC4Y91ZgZKV3UvmkIuDT9dAk7WghC9iJ5Q/SytLVqpZ3gYnL1DJyllqjlOhlWHcAyeccMjQNaf30DdzOytkhJ3P5kbNrW/2rj/ktcPdmjLNpmUoakpmWqayx05U16v+TWZymi8sts+RnpSi6/KHKrdjh+BLaQTnc/6CxCM/f9ZKlTT1d15z/r4EgDas0Yns4sWLdfXVV+vRRx/1wl435J0yZYoWL14s02x8+RY32I1VO7N5I77H7izfiOXN7rXb7cdmpPYH2oQmT9S4ZXN1X6GcXzL+XwT+x/b9BQtWqsT9AJo/Syu9C081H0onL/BdkPJ+YdV3bgAAAODoMAz3wo8T1gaCXe/irdNuGHbptlrBr7sur2m613+dPvuCcfNM6fVV4smZqaJpS+q8INT68fkfR1eoa/+aB751Ot3xK28cO28Ipi/Mcfbzwp6YEwB549+UTPtLHf5AyL1vdsmreW40j8L7NDpntHPtIpGGvsdM1oIZRZo4+j7VeSq0WYx74MQzsHM7XTmkh1LDYedze02oKzfY9a27a6/B6+xjGbLCKVKHrkobnK9uV9+g3NtmqcvY8Wqff6bC3Xsp5p8N7ATCndIzNP2c4eqYnhZ8OY1QrOK8GQl+b03WzGm5wcaGO+zvSwA4MTQ66L377rv1zDPP6IorrtDs2bMVCoX00EMP6YYbbtAzzzyju+++O3hIg5gRU2Z1TLGqqF2u2ZnFa7ebilXGZEZMu1yz02ZGagLhuuVq2hIniJ0jzWzwAr25yiuarpycKVqoyVqwZLyWuheeZkoznN9MC6fUXIxaNi7RLywAAADg6LMv4tqhrbvGbiwWUyxmOlssbjNN09nsUDdmmjIty97XNBUzY/a53NlAzmZaptywuPks1JSJT6h43ERm/QANYIVqQh45oY4d1Dgz+AKhjzerzwluLHc/ywmAnNl+HVJCOqNHuk7qmKwkw3es/33A/0LQuuRv1BxC3uMW4x44sYRDhqZ/o6/6ZLerCXLdkNcJZf1tlkKKmYZiCsno1F3tzhipTpO+q57X/1A9vztF7U8/U6GUFO/81aYUjdnnsUtBh2RaYZlWWEO799CUYcNk+L5U0lhFRdL4ywMXzidP1Lhly7QsvhUA0EiNDnoty9Jdd92lZ555Rtdcc42WL1/uhbx33XWX/YGxCaJVNTN4zYi9Vq9drtmyt4hpl2p2w97qmFe6OVbvjF7/Gr1FmtGgb71KUrGWvuL8cyj/ZOXFBcbjlJs32O6bvMCZ0TtH4+KOBwAAAI4dd56tN5HHtDRsYI7GnX2Sxp8zUBNGnKwJ3zhFE79xiiaNHKRJIwfp1P5dnbA3pvy87vrOmMG66ptDdPU3h+p7Y4dq8gVDNfyUHGcmrxMMW+5c4WZW+IqWFo/TRDfpjauwU6L4yb75mrUy2Bec8Va7gs+syTXnXDDZLR2XoHR0wuo+zjlmuf8ecI+ZrAUlczTO/ffDgsl1vD6g+biXXe0Qxr6Vd+uEOpYlWU4I5M7qc4IeueGNO3vPlM7qkaanLuml31/SS89c3kc/OKOT0sKGd243TGqe4d+4MZm4slb8WF05a1b8e0DCcdyAsZnwuLrGf01fQyqE1f16/e9XwdeY6D2mjudcskRL6nnORv0c0Oow7h11jiP+vuP4MrJvti7M6yxJThhrh7ryZuHaM3ElQ5YZUtQ0lNTnJHW+/N/U/Zqb1WXCFWp/xjlK6dxVRoJlF2OWnNnA7oxe30xgK6TxeQN1cmf7+ZuiaM5cFU2b6fsSZ75mzcjTE3OW+Paq7/N7orEb2L/O94P6zlvXewUAtB2139UbwB/2Dhw48IhDXrlr9EackNcNcd1At9pZo7fKbjera0o9m9WmzAav0fuKlhbnys1oG2eZZua4s3dzlDNlof1LYI6c9ol6ojh4DAAAAHBsWKYzk1d2yeX0lLD69+ykTtkZ6uxsXbIz1KWDvXXtmKEzTu6laDSi5HBIA3t3VvdOWerWMVPdO2Wqe6csde+UpVP6dlFqkuFbz9e5oNyiJmvBkmkqmul+gfMJ5c3xX/RZovFLJ3qf1RtWxCdX02ZI03NylDNzmcbNKdE8TXcq+CxTrnchqu7qPlKupuUtCRyzUFNyZmqZ+4XTKQulyTM1rWhmI18f0HD2lzqcsRgX8Nib5bTJdPdzyq474U3csZaljGRDN5/RSaP6tFOf9sk6qVOKZo7sqlM6p3jnrgmV6quw1RgNHZN1VdaKf5+YrvG+L2PXMY4POzbrOE6qY/y7GlIhrL7X61PrNSZ4j5Ea8ZwJ2ms9R+A1oFVi3Osw44i/7zh+hAxDPxzeW0mhkCyFJCtkB7oJNtMyFDOltNPOUc/rZyjr9LOV0qWbQqmHK71cMyPYlFMC2p0dbBlKDifrWycNCh7UCAu1ZJn/S5yXa7yWyp1ndViHHbv1vR/Up473CgBoQ5oU9MoX9l522WVHHPJK8oW7zixedy1et80JgO3AN1qzdq9z2yD5l2t8brGKNkrSRhX5Q9/JE+t+8y/crCKNq/0mPzhPucVF2ij33G5HI84NAAAAtBDLKdtsWpb2HSxT4SfbVLRtpz7dtkNbtjrb5zu0+fMd2rx1h95avckp61z3FykNSWYsJsuySzlb5pH9O6B+zmf3/JOVp2Va4l7QKbxPc5c5n7fzL9f43GWa2+jFuYr1xHSnpOnCJVrmr+izcImWKU8n57vPXUd1HxXriTnOi/IfE7SxSMXj5sTPEgaak+nMtHNn6Fn2lz1qghnffWdGnwLrbtqz/OzHHVNDGtQlxb/spzqmhXVOTjuFDHehbuc8zfYW0MAxKSWurJV/svKKn5A7JAvvm1tTCrKucXy4sVnXcdJhxn8DKoTV93r9DvcaPQ18zkTtDX4OtCqM+/rHEX/fcRwZ0j1Dp/XIjl9717eObs3MXnuLmJaMzt1lJCdLRv2X/2tm+Nszd03/TF45M4WdWb5Du3dX5/R2wVM02MI5TyhvxizlS5o8c5qK5jZieYHDjd363g/qU9d7BQC0IfW/0x+GZVl6//337Q+IR8iMWPYavBF7hq7pzO41o3a7GTFlRp0SztX2fa/Ec72lm31v1EvGa+lEd4H2Qt031/62YElJiUomqp43f3uNME1b4pWHKFkwWVo4R09oml0KaV6eirwZvY05NwAAAND8aibp2BduZIS0ZsuXen3VOi1ZuVZ/W/mxXltRqEXO9tqKtdq47SvJMGSaMWeuUAKWJTMWq5nRa7bEGr1ugFukzQ2++tOSElT3aYzC+zQ6J0fTNU8llIlEC4gPc+y1NGX5QpyYW7rVWWPTve/t7wuFTEtVUVMHK+O/UB01Le08VB0IkpqrhGsjNLmyVoJx3KCxmeC4RjuCczToNSZS13MmaG/yc+BYYtw3BH/fcXyYMLCLUsJOACvDntHvzOCV12avrWtZhmKWoWgkFjxNnEhFhUrWFOrTN99SVVmZFxp76/OaYee2Zr3e7LRMDezcJXiqhit8RUs1XpdPnqUZeTWhbIO06NhN8F4BAG3IEQW9zcku0WzKrHJn7zqzdatiMqstRX2ze82oU7q5qqakc2ILNcX/Jp3jhrxu9xTfG/gUTfH6F/ruO5xfJvFv+IW6b7TzePQUTRntO6bOcwMAAABHgTPhxg1hjVBI2VkZ6p/TTf16d9eA3t2V69wO6N1d/Xt1U7v0NBlGyD6mjou4lmTP5HXW6LWsllij1y29NkULVVNhx79e74xxzgxfZy3fWtV3mqvKTl3VfZqg8L7RmvhEsfISTvsFmq4m7KkZ+Ja37qY9QuP3sferue/ubwdDX5dF9OonB3Soyg59LEnLiw/pve1lirnhkRv8mM09/g+jrspahZtVlDtNM533ifxZM2rG/GHGcZ1j8zDHNUhd56jv9SZQ52tMpL7nTNTuaNRz4Jhj3B9mHPH3HceJpJChM3plK2yEnGBX3uxdL+R1QlqvnLNl2OM/wLIsHfjyS6176SUV/N852vjHhfr6g49kVlU7pZt96/O6j32zh9OSUtQ9s70Mb5XwxirUfXOLNG3ONGnpKwlm8x7+83udY7e+94P6znuY9woAaAtaTdBb/s/XVLbmHZWueUflH7+j8sICla99RxXrVqli/Tuq2rBKlZv+papN/1LVJ//S2E7lGhrepczd62Vs+HvwdAAAAMAJzZLvgqxlKSUc1qRRQzXh3KH61qjT9K3Rp2vSmHxdel6+LjsvX5edd7quOG+oE97WmfNKzkWi+DV6g3s0ha8ST8kMFU30r71lV9jJcyvmLBmvpROdEFiFum/0TBX5qu/Y3/Bvrio7dVT3qddCLVnm/HkWTPaVmyzRkmlFTSgzDRyG5QQ63qw95747Rv3hjL+9jvvRqKn573+tqS9v1VMffK2H3t6hnyzeph0Hq+P2s8OeZnkDaLg6K2st1BRnjc+SkhLN01LfmK9jHB92bNZxXKPUdY76Xq9PwtcYeI+ppZ7nTNSe8DnQ6jHuDzOO+PuO40OXdinqmJYcP3vXDWC9EDbk9Mmb1WtGayZGWaapfZ9/rvfnz9eqRx7RV2+tUMrX+5QRNZUWTpZh+M7rL93shr7OFlJY3TLaKyUpHPcaG2XhHD1RXNeyK/V8fj/s2K3v/aCe89b1XgEAbYjRuXNnS5JSUlKCfUeVlZouK1zzGizv/2puLdVcRMrp0lGVVdUqrahSpLJM4ViVeygAAABwzFVXVysrK0sZGRkqKytTVdXR/bw64+7Zyht8umRIsVhMIZm6aPgpSktJsi/uJrC/tFIvLP9YIUOa+I1B6tG5vfsp3LPj6wN6afnHijrfGY1GIlqx6Bl98sE/fXsBOJqs6x+V1fcMJ/mRF8rYnTVhkN0d2Mf5x7c3Q8+yZDn9spzxH9hXlrOmn6TQ56uV/sZ/uy+l9cifpZVL8jQ3x/1SSCvX1l4vjjnGfQKMIxyHhnbP1G8uGaJe7dvFlVJ219N1N/dxzAqpMmIqc/RF6jn2Ym0tWKEvVq5U1a7dSk9KUVpyqsKhsEJGWKZlKKlnD51847X65LkXVV38hZLCYcmdOWyPfslukQxLb3/+qR5fvUKHqit9r7I1mqwFJTNU5C3jCADHr1Yzo9eoqlCo/IC3hcsPKFzhbJX2llR5UElV9rb7y606+PUOmWV7CXkBAACAAMuySyrbM2+l8sqI/rayUK++9aFeWf6BXn7zfb30j9V66Y3VeuGN1XrxHx/olbcLJSOkiCktfmedFv79Xf3xb6v0x8UF+t/XVup/X3tHLy//SNXRmHcB2L7o614CAnAseDPzTMtbg9N77Kzd6e+LW8/Tcvqd8ext3hh3wqDAOe3Qx2q143/yzGk1pV7bgLb2enHsMe5rYxzheJSZmqzkkL20ijfLNm42rzPT12n3yjpLqty7Rzv+vkTtDh5Ut8wsZadnKC0pRcmhZIWUJENhWU48YCkk01nn1w2TY87avN59M6T0pBQlhVtNpAAAaE1BLwAAAIDm5FysdS7HGqGwKiPSvtJq7S2t0p7Sau09VK2vD1Vrz6EqfX2wSlUxSYYhwwirOmZo98Eq7T5Qpd37K7Vrf6V27S9XRcSSEQrLsiTTNGV6s30AHCv2xV87kPHKtdqD1At/3LDGC258jy1TvnbnhG7QY7nBkBP0OO1xYVCrkK9ZK52SiyUlmjNumWaOvi/B+n+tRVt7vWhtGPdiHOGEEDYkGSFZCjkfueODXUuGzLjgV5KzXm/IMJSRnKr05FSlhJMVMsKSnFLM/qBYsss9u7OCFVJMYWez75vOFgolHcEavQCAltBqSjcDAAAAx5NjXbr5P+56WHmDTpcpyTQtxWIxDerbRV2yM+z1e33XaC3Lcguy2deOnAu+7jq/9n3b5u1f6eOinc61YVPRSETvLP6jNn+0ouaEAI6q2LW/lvoOiwts7ADICW/8s/+8NifocUuyuoGRpbrLvLrHuo9NS+Ht76vdmw/GvyAALY5xD5wYzunTUbMvPlVdM9Kc8sz2DFu3XHPMdMo2KyTLrCnd3P68C9R52HBtmTdP4ZgpwwrbobAZkmkZillSzJSScrpr8Pe/pw3PvaLKohIlhcNO+Guv+ety4mB9UFKsee+9of2V5b5eAMCxxIxeAAAA4DhkyVLMuX5rWpbSU8M64+TeOqlPVw3s000n963ZTunXXaf062ZvfbtpUL9uGtS/uwb376FTc3vq1LwcDXG2bwztr9SkkDdzyLtIDOCYcWfYeTP1vPCmZgZerXb/jD//vm6gE7yfaFYg4x84Zhj3wInhUFVE1THTCV7tGbv+cs1yZ/bWurUv+5vuDGAZMi1DofZZ6nrReRr0k3/XkJk/VM/zvqFwaqpMy54ZbFphmW4ZZ9kBsv9xaXW1os563QCA1iHcrl27X0hSOBwO9gEAAABoolgsptTUVKWkpCgSiSgWiwV3aVFnjb5IHTt3l+XM6K2oqNL+g4e0fefXKv5ylz77YreKv9it4i92qWi7fb9o+259un2Xirbt1KfbdmnLtp3asnWHNm/doS2f79CWbTu0vqhEO/Yccif2KBaL6YtP12rvzm3BlwDgKDGHXCy1t8e7HcjUzMDzQh5ntp4X4shSh9SwzsrJ0MDOKaqoNlVWVVOuNXi8nevUDoNCB0uU/PnK4EsC0MIY98CJwbSkb53SQ53SU52Sy/a6unbZZrcMc0hyZviaCikak9L6DVC7njn6+r33FTINu2RzSpp6XTZB3Uado5Ts9kppn6msXj0UTknWF//6WJF95ZIRkuk8hym3ZHTN832w4zOt3bnVXr4FANAqMKMXAAAAOA65F2fda7umpE+2faUPNm3X+xu26b0N2/Tehq16b/1Wvbt+q/61bqtWrftcq9Z+roKPP9PKj4u0ck2RVn70qVZ8tEVvf7RFb3+4Res/2+mUfrZkmqY9w8e+egzgGLIs+2pw3Aw80w5w7Pv2DEA3xDm9W7p+/53+evzb/fTYpf309FW5Gt6rnQzLt96nN5PPCXl863S657G40AscM4x74Ph3oDKiHYeqZDrllO0vXsgOeC3VrNkbt06vfd9m34+ZhoysTLU/OU9GqHYkYKpmbV7TCilmhRWz7FLQ9hZWVczSrrKDiphH9wusAID61X5XBwAAANDmOddnnQu1UigcVnJKqjIzMpSZmamsTPvW3jJqtox2yszMUJbXZ29ZmRnKzMhQUnKyZNgXlkzLkmXZYe+RmaTZBQUq8G2zJzldg6ZrYcFCTR/k7ufeD/L1xR3TGPWd3zZpdoEW1rcDcCy4X7rwl2X1l1v1zcazTEtd24V17wU5GtM/Sz2zktUtI1ln9c7Qk1fm6pQuaU6gU3O8/zau3bRkNnn4M+6BI8K4Z9zjhBAzLX1YckBR0/5qpRfoSl6I6625G0qSlZFl3zrj1LLs8s2mJZnhJIVTU+KfwBGLWt7avzF/yWZnlrApQ2WRiHYfOhA89DAY9wDQ0gh6AQAAgOOQZdkXYt35tskhQ9eMO0M//M5o/cdV52n61efr1u+erx9975v6yeSx+uk1Y3XbtRfoZ/92ke64fpz+84bxuuvGi3X3TRP1X1Mn6d4fXKJZ/36Jpkz6hsIh+/zu1jy267mpozRq1CiNmvqc+t49W5MkadM8TR41WfM2BfevR4OPOfwFn6DFd4zSL3RTo44BWpppWZJpOrP4/SFNzTc+3ACoS7uwHhjfW+cNyJLhlIS0j5R6tU/RizecorN7Zcgw7XEud0agb1agPUvQ/ZLHkazTx7gHmopx35hjGPdo29767CtVRC1n5q7stXm9kFcyw8nKPPMbyr3tbp1y1yydds+96nz66TXlnU173+rSCpXv3R88vSoOlOrgzj01wa5/87XtqSjX9oNfBQ9vAMY9ALQkgl4AAADgOGRf47Uv/MZMU9FYTF/vP6Q9zva1f9t3UF/vO6iv9h3UV3v92wHtdrc99rZn3yGZsZhMM2aHyc5F4Ga16XNtU1/1b6UXWTbNe0r/CDYCx5IXxDjlV91Srpbp3Dcly9TQbul67NJ+umxwR5mWFHNyHNOSYqb9uHNGsh69Ik8j+2XJkCXLTnec8/vO5wRIR5T3+DHugcZh3Lc4xj1ai6I9ZXrj0112OWY35LXswDdmSplnn6vul1yppKxsSVJSZqay+vRx3ifs/Q2FVH2gVEX/KFDlgUPeuUu/3q81f3lDsfKYLCUpprC9WbW3D77cogOVZb5X1gSMewBodgS9AAAAwPHImdVjX5O1VFEV1dJ/bdTCv7+r5/62Ss8tXqU/vvaOnn3tHT3zWoEWvLpSC15ZoT+88raeevktzX9puX734pv63Qv/0JN/fkO//fMyPfGXf2jxijWqqo7IMu01eu3yzc2c9E46X6MKnnW+qZ/g2/h507XQKf2WuLxa4JhBNfvXlIubpNkFd2uU+uja+QUq8GrI1XN+7zzzNX++MxMhrr1AC6dP9z138LXX97p85wMayxnsbiBTE9A47ZalQV3S9ODFfXT+gPbee4N/c+fomZY0oHOafjmxn4Z0a1czK9ALkezNDYBkNVPiw7gHGodxX/sYxj2OU6Zl6feri1VaFfXKNtvr8UoxI6ysIcNkJCUFD5PcL386M3vDVki73l2nt3/9B6165q9a9eyremvuQu1c86nCRopk2OvzuuWb3c1USAerq/Vm0QfB0zce4x4Amh1BLwAAAHCccmf0SoZC4bAqo1J5tVQWkUojlr1VmSqttHSoytShKlMHK00drIjpQGVMBytMHSiPaX95VPvLozpQVq3y6pizRm/NBd/miXmdCzEFBSq4W3rwjsXBHRx9dO310i+c0m+69hfxF4dqmaTZ86/Vtgf95eIWavqgxbpj1IMqcEvJec/nO/+DBepz7U3OhZlJmj1/jFa4ZecelK6fPqjW+X+hMRoV9/x1qet8QBO4Y90p2WqZ7q3d3jE1rDu/2Utn9Mrwgh0nt4kPfayacq6n9sjQb646Sd0zU7yZg/6wx7lyfIQz+xj3jHs0GeM+gHGP49sXB8v14vrtzpC3Z/ZaMhSzLKnOkNeSGbO8Wb2hUJJSlSRr9yHtWrVeOwrWKba7VKlKVSiULNMKJyzfHLNC+tsnK3WgsmYmcOMw7hn3AFoSQS8AAABwHLLcNXqda7JGKKyklFSlpLVTano7paZnKCU9Q6lp7ZSSnm7fpqUrNTXd3ic1XSmp6UpJs7fktHQlpaQqnJQsyfBm8tpBcnNEvf61u7bq+uC3+z3b9dwv5mmT7DW6ni3oo355wX18BvVXXxXobff6zmGP8Z1/8dsqcEvLDeqvvnEXqUapT788u337c3rKOf+mec+qIHDGhOo6H9AUlj0lzxuTTtgjSdmpIf3nN3N04cBsGTW72rP43MduW02mI0ka1D1Df546RHld0mR4X+6oOb89/o8E455xjyZj3Mdj3OM4Z0l6Yf02fb7XLp1syQ5vY5GY9mxcJzMajd/fsrRn0xZZkZizlq8zqzeUrLTkdGUlZygjJUOpSekKhZJlOTN3Y95sXkOmQoqahj7esVnLP30v7vyNw7hn3ANoSQS9AAAAwHHIvmjrXgB2wl7DkBEOywglKRQKKxQKy/C2kH0bdu8HNsO+tc/tXvi1Szc3S87rt+kfWrG9vos0rkHq3zfY1pIK9OAo5yLVKP/sgKZq7vPhRGU5JVu90Mc0JctSXsdUzf5WP117RldZztqc3vqcpr3FnFs38HH3cffL69JOc783SKf3yrRDH69MrB36mEcc+jgY90CjMO5bUnOP0+Y+H05UJYfKNf/DzdpbXi05n/eTQmHteutNfbbs7yrfu1dmNKqKfftUvPxtbV32lsKhsGSFZCkky7mV4fx7wEiWjCQv4I2fyRtWzAqpaO8XemndUkVi9nMeMcY9ADQ7gl4AAADgOOTmr/Z1WXcWTk1Ia1r2Gru1Hjvr8ZmmJdNyHjvHmTH7selsMTfwbe6kd9CFGtNnu7YWBTskqY/GXOhMARh0ocb08X2LP5FNn2ubRul8d2GsQdN1/ajDHJOIc55aZdc2fa5tfa7VTc75B02/3lfSrUhb/ReyJp1f01fX+YCmsOxBb1l2cmNZlvI6peqBiX01/uQOcrIg79b0zezzZvX5Zvf5t5glDe6ZoXsn5alfpzQv6HFDHzVX4MO4BxqHcR+PcY8TQMy09GbxDj390WZVxywZMhQOhZQajWrXm2/o/cce1YrZv9K7v56nba8tVUpVRCEj7M3oNWWXe7Ysww5z3Xbnvn9d3pgV1r6KMr224Q3tOvRV833aZ9wDQLMj6AUAAACOQ5bklVi0w1g55Zada7S+kLcmCK7Z3NLM9q1ph8DeOZwLy1bNDKIj5ytvNn+MVkydrHmbgvtI0nZt6/cLZ79rte3BO1T/tZzFumPqc+p7t//c7jGL9XaB87yz3StEdbHPo2vn2+cpcI9ZrDseLNAo5/y/0ApfSbdNmvdsTV/B+fL11XU+oAmcL2PItG+zU8O6/Zu9dE6fTMkw4sId9z3ADXQs50shzuH2ffex02/I0Nn9svXwd05Ru5RwM415Me4Z9zgSjPsAxj1ODFXRmF5YX6y5//pYMdNSSIZSwknKCiep3aFDSv7qa6UdLFWmEVZKOEmGnNm8CjmhrhvsOjN8nfumFZbpPrbCipmGXlm3RJ9+XSTTMoMvo5EY94d/DQDQdEbnzp0tSUpJSQn2AQAAAGii6upqZWVlKSMjQ2VlZaqqqgru0qJu+Ml/q+/JQ+1w1glx7Yu39sxd0ym77N63SzGazmxd0ynLXPPYnf3rHes8jkYiWrP8JW3dcCTrdh1PJml2wfXaWucFLKD5VV7ygGI9T5MsqX1qSD85r5duHN5dhm+fWhGN0xBsT/jY1/iv4v36yfPr9eW+SklS8o4P1f7d/6nZ4YTEuMfRx7g/1hj3OPa+dfIA3XTm6eqcninLKbUcM0OyrLBTqjmsmBlW1Ao7s3STFLPCzhZSTDW3bsnmiGVp18GvtGjDYm3cuTH4lCc4xj2A1okZvQAAAMBxyHTW7rM3dzaPG9Q6M3WdMoxuyGs5M3TdtXctS17o687udQNib7Zv8IkBHHXGoa8k01LfDil64Fv9dcPZ3b2ZeXHrc1q+NTqD7Qkee/v7Hg8f0EFzJg/Ryd0zJElJ5buDLwfAUcC4B/D3T7fqvuXvaFnR56qIxmTIUMgIyTAMybJLNFu+cs2WU77ZLeHszux1Q94DVWX6x+a39Pt3n9KmnSSZANBWtOmgNzksjeoX0fzvlOlXE8rULzumkP+riwAAAMAJwAgnKa3XAKUPGOxt+yMRZw1dyZIT0vpKM9tr7dqzdr3HsZoQ1zJNmWYsPuCN+fb11vI1pY5dldZ/kNL6D1J6/0FK6tBVMvhgDrQk/7jPjO5S7+xk/WJ8P40/paM9k98JaPzlWk3LLtMaC67TebgtsO+Z/bL1s4knqVeHZGUbuxn3wFHCuAdOPIk+57tbSr9T9GlGV/3h63LdX/SlPrRSFDXCsixDkiFLqgl6FQoEvvZj0wqpKpysQuOQ/nfnKhVUfanyrt2U2v8U7/M9n/MBoHVrs6Wbk8PSpJOr9eMRFeqSZsoypQ9LkjR7Vbo27k1qvqVDAAAAgCY4WqWbjVBIncZ9Vz1vuE2hdhmSU7SxvRnTObs/V0o0Ej8T1wlnY06IW/PYdNbitUNe+3F8qWb7+JpyzpJU0b6jvhh0pmKhJNmRslT5ZZF2PHq7qr8oCrxaAM2h1ri3DI3PTtbVfdKV4vv2s/fP4gaWa23wfpIOVZv69ZZD2lIRkWVZjHughTHugRNPrXHvFmd31tk2ZH+p05DdlRoKqdeenTqz6GOdsmub0isqvXLNUWfzHiusfe2ytHFAf32S109l6WmKxKLOuX3vAN7yvHzOB4DWqs0Gvef2iuj+88vVJS2mfSf9m0KV+5Xx6Wv6dG9I/7UqU1sOJAUPAQAAAI6aoxL0hkJKHzpS3W+8Wyk5AyTDLthjOf+XblZrQOkepUerJGedXje8rbnvttcEwV5ZZl/JZrvdN+PXkirTM7Wne39FUlLjXpZZXamqTz7U/oW/UuTLT+2pRQCaRx3jPmxIgzJCyk0PKcm9DhwYevUGQFbtUuzue4n/sWVJlaalNQei2lEZ87oZ90ALYtwDJ546xn3NGLXHW/ywsz+jS1LIjKlj+SH13L9HWeVlSomaislQWVKa9rXL1NcdOuhQerosJzx2zub+z/eeET+uGfcA0Pq0WNAbCoW8b/k3t5M6RPW7iw+pQ4qlA6dcp8phP5RVcUAZy2cpreR9fV0e0s0rO+iL8nDw0DpNXlCiOZqpnCkLg10tK3+WVi4Zr6UTR+u+wslaUDJDRRNH677C4I4AAABoS1o86A2FFRsyQRkX/ZvCHboonNFelnMBKO6SjP+O7zpM8KKQ12cY9sNEF228Cz7O//sf+64IWZFKmaUHZB74WtVvLlC4+B3Japl/GwAnFMY9cOJh3AMnHsY9AKARWizo/etf/6r33ntPs2fPViwWC3Y3SXJIOrtbtf773FJlpyWp9KQrVHHmD2WktVc0GpW56xNl/XO2Unas06f7Q/rl+mx9Xp4kM8Hvrjj5s7RyXp6KlKei6ccyZCXoBQAAOF60dNAbze6jA+MfktI72PXaQu6XHGtdlYnnlHezvO/v17FvrTZLRtw1pDqex5Jk2WWgJUvhPcVqv+JhhSr31+wDoEkY98CJh3EPnHgY9wCAxmixoPenP/2pLr/8cr3xxht66KGHjjjsTQ5JE3pX6j+GlKtzmqnSwd9V5VlTZaV18ErPxWIxmV9/rnb/ekppG5Zp3f4UPbY1S1vKk4O/zuLkz1qpeZqu6ZqneZqu0ccsZSXoBQAAOF60eNDbcYAOnH+frLDzOT54IUayF9WyJMnwLvrI2c1fpM1rjGsKnMuyLxi5rYb8V4OCz1vTFy7bqaxVjyhUuTewD4DGYtwDJx7GPXDiYdwDABqjxYJewzD0k5/8pNnC3hFdqnTvsFJ1SjZVmn+dIsO/Lys1ywt43bXGTNNU9ODXavfWb9Xu49f1eUVYD23roOLK5OApHfmatXKeNH207tMs2XfvU03Omq9ZK5doWq79aNnMHNnVnRO1B4PawOP8WVq5ZJrsQ5ZpZs4ULYzbJ3g8AAAA2qqWDnrNjG4qO3OarHBq7QswcQ/jL+wYvnJvhuwLOzWC5wle2KnhnqdmtkBwX/sikFH+ldqt/18ZkbJAP4DGYtwDJx7GPXDiYdwDABqjxYJeqXbY++CDDzZ53d6/jNmjnNSYDg67TtFzb5aS07yZvKZp1gp7Y/t2KXvxw0r/Yo32RkP63obuwVPa8v3hri/0LZQX5o5fOjEwy7eu9mBQW0+IO3mBVp48R6PvG1z3PgAAAGizWjrolWR/8dFIqn3hJpEG7NI09Z/YMKNc/AGaEeMeOPEw7oETD+MeANBQLRr0SlIoFNIf/vAH9evXT9OnT9f69euDuzTIz06L6qIJl6t6+LVSWpYX7CYKer37Oz5Vx4I/6NX3P9FTOzKCp5R8ZZvdwDZ/1kotyZurnCkLnRm4eZqbM0UL4w9K3F5f0Cv/bF7HspnKmSKCXgAAgOPQ0Qh6AQAAAAAAcOIKBRuak2EY+vGPf6x+/frplVde0YYNG4K7NNhfy09R1eibZaVmKhaLKRaLqbCwUAsWLNCCBQv07LPP6k9/+pP27Nnjhb3Rzn21c9J/6bl9nYOnc0zWzGm5yp22RCUlJSopKdGSabnSuImaHNy1WSzTzJwc5bibXQMaAAAAAAAAAAAAABqlxYJef9nmV155Rb/+9a9l1arn3zhugBuLxWSapj766CMtWrRIr732mhYvXqxFixZp7969ikajikajhy8TPXmixhU/oYn+8DVnop4oHqeJkyUVvqKlxeM0Y1Z+/HF1tWujiopzlTfYeTh5osa5XYWbVaRExwAAAAAAAAAAAABA47RY0NvcIa9lWV7IG41Gvfv+8/r7vLV6Y7G48/hNnjhOxUtfUXyV5EK9srRY4+ykV/eNnqki34zfBZPtfepsn7tM4+bYbSUTpWXeeRdqysQnJN8xJfZBAAAAAAAAAAAAANAoLbZG71//+lf985//bJaQV5Jyc3P10EMPyTRNby3e5557Tn/729/i9rvnnnvUp08fL+y1LEt33HGHKisr4/YDAAAAWhJr9AIAAAAAAKAltdiM3iuvvFL/8z//0ywhrxLM6K2rNLPb59+3uV4DAAAAAAAAAAAAALQGLRb0Jgphj4RpmqqurpZpml6QmyjAdQNedzt48GDC/QAAAAAAAAAAAACgrWqxoLe57d27V++9954qKytlWZaqq6tVXl4e3E0HDhxQJBKRaZqqqqrSO++8U+86vQAAAAAAAAAAAADQ1rTYGr0AAADAiYw1egEAAAAAANCS2syMXgAAAAAAAAAAAACAjaAXAAAAAAAAAAAAANoYgl4AAAAAAAAAAAAAaGMIegEAAAAAAAAAAACgjSHoBQAAAAAAAAAAAIA2xujcubMlSSkpKcE+AAAAAE1UXV2trKwsZWRkqKysTFVVVcFdAKBZhIywumTlqEeHXCWHU2RYhixJkiXJ8PaznFavy895HGz2s7x9LJVV7dfOA0Uqrdp/mKMAAAAAAC2FoBcAAABoAQS9AI6WAV1P080X/B/17niyDCNcE9paliwZzmMn+rXsu26TfeuLgC1/oOt/HH98JFalDTsK9Nzqn2tf2Q73aAAAAADAUUTpZgAAAAAA2rDzBl2tPh0HaV/pPu3Y+4VK9n2h7Xu2auf+L2Waph34WpJpSpYpmZZ7a8ky7T7LbTOd+5bsPtNSNBbRV4d2ateBEu088IVK9m9VVaRaQ3O+qVF53w2+HAAAAADAUULQCwAAAABAG9YzO0+WZeiDz/6lf6xfon+sW6wla17Q2+tfVzQa9UJcO9T1b3ag6wa/XsDrhrxOX3l1mVZ//rZWFi3R25sX6Y2NL2rb3k8ly1DvDoODLwcAAAAAcJQQ9AIAAADHm1BYyuwsde4jdelbs3X23Xcfx219arZONZuVcOstq2NvqUMvWakZklGzDiiAo8uQIcuyFDNjiplRRc2IorGIImakZqauO6vXH+o6t3Z5Zst5bIfA/v1M01LMjCpmxhQ1I4rFIs5MYUkmYx8AAAAAjhXW6AUAAABawDFbozcpRcawiVL+xVKHHClUz3c73UU5TUtW3MKcdiDkLtBpOVP83G47IXJuYxFp16cKffiSjC/X2ckQgKPqzknPaVDPb+iN9a9q14ESxcyYKqoOKSstW1cOn6qkULLkrq/r3frW3E1wa6/fa4/1Q1UHtLJosSoipaqKVKqqukLD+1+oQd3P0tovl+u3BT90DgIAAAAAHE31XPUBAAAA0Ob0OlXGuFtkDDhLRseeMrK7197ad5OyuklZXaWsrrLa27fK6iYrs6usrG6ysrrKyuoiK7OrlNnVvs3qKmXabVZmF1mZXWRm95R50ihFx82Uldkl+GoAHAV2WWbflzcsU5a3Od/NcDbTK9/sW7PXN3PXntlrOev3Osc539+wz2HJkmnvY9Y8JQAAAADg6CPoBQAAAI4np10kZXS073tT82q4ZVnlX6fTNL1bt92u21qzjyxn5m/cse5sYMnK7iVzyMXBp2ugyVpQUqISb1upWfnBfYIma4G3n+9+/iytbNDxdfGfF2gbLGfm/dBeZ2vUSeM0+uQJuuDUb+vck8YrpLAX3rpjuSbUlUwnzfX6AmWdTVNKTUrX6T1H6ew+F2pk/4kak/dt5bTPc94Xgq+mYSYvKNHK4ECbvEAlCyYfZhzXMUYnL1DJylkKNgMAAADA8YygFwAAADiOhLr2r3ngWzfXDXoUF/i4ga4vsPWHvDEnAPJm+ZmSKfs8viDYvW92yat57kYr1hMTc5STk6OJT0jT5jUxsCm8T6NzRuu+wmAHcPxyQ9kumT3Vu2Ou+nY8SQO6DFKvjnmSDGeN3vgQV5bhvCcYcTN73bV83S95mJapsJGsbpl9lZOVq97ZA9W34yBlpnaQ6fQ3xcIly5SbNziubfLEcVq2ZGETxvFkLZhRpImj71ODDwEAAACA4wBBLwAAAHAcsUI14a6T1jgBrTNzNxD2erN5ncDWcveznODXmeXbISWkM3qk66SOyUoyfMf6jq89f7hpCu+bq2W543V5k5Je4ATkzNAt/mqjPv7iPX24rUDvFi1X4bZVisZidoDrhLimWbO5M3bdzQ2BTdMu22yakkxDVZFKffr1x9qw610VfrlSH25/U7sPfRFfLrqxNhapeNxETfYaJmviuGVasjBur4bJ36g5hLwAAAAATkBtJug1Jt2m0C8LFPrvd2Xct0rGff+SfvGONKtAunelzHv+qdhdbyv2n28pevubit7wpKyepwZPAwAAABzX3JjXDl+dGbrerRPmemmOvY8/4HVn6Xqzdk3prB5peuqSXvr9Jb30zOV99IMzOiktbHjndkPkJgc+h5M/Syu9ss4LfMFQIsGyrvmatbKmLPSCyYn2CT72adRzA8eGu57u1j1F2rRzjdZ9uVprtq3Uhi/fVywWq/kyhmkpZpoyTdO5ddqdPjf89c8ANk1LVZEqfb5vgzZ/9ZE27HpXa0ve0VeHdnjhcJMUvqKlxeM00R1Ukydq3LIlsnPewJj0jcOVs072TuH1LVmiJcExGjd23bGvOt4TAAAAAKBtajtB71mXSqGwNyvBjMXs2QOxmMxoTFbM8u6bUVOxjv1kdj9F0ey+ktFm/pgAAADAEfHKL9cKdp2ZvE6bTHc/e0au3R841rKUkWzo5jM6aVSfdurTPlkndUrRzJFddUrnFO/cNWFy00q4BuXPmqFxxUv1SqHswGfJeC11yjrnzJRmJExkE8nXrJVLNH7pRPvYnBxNadRswSN5buAo8oasXUrZtGLOrVkznJ2QN2ZGZSVFFI1FFIvFasLd4GZaCco4O+c1feFx8LU0WKFeWVqsvJPtMeWVba5lshYsmaaimfY4nK7xGhfXl2iMxh+TM/EJ5c1xguPJMzWtaGYT3xMAAAAAoHVpMwmolZRq/0PTCXIVM2VFTZkxZ4vGZMXs0nGmGbNnIBghlZ5xow6eMyN4OgAAAOD4ZDozbN0QxglsagJZ331nJm9wvV17dq/9uGNqSIO6pPiX+1XHtLDOyWmnkGE/l3eepic+knI1bYk9w27JtCLNdMuw5p+sPF9fyZxxtdb1rFP+5Rqfu0xzG77QZ7wjeW7gKHKGsM0LZZ2y6t76u5aisYgGXpikSb/I1oBRYYUyqhWJVSsWi9r7O2PZC3jdcs7OuS1ZsqyYLPfczj5NVfjKUmn85cpXvk7OK1bRxuAezjgsfkJznEC28L65WubvSzRG809WnnxloAvv09xlucob7JaMnqOVfGkDAAAAwHGgzQS9siQrZge4lmmHu96aYDFT3dJDevGqvnrogu5KsSw79LUsmakdVNn//ODZ4gVKOpWsnKX6/8lXT2m3uuTP0srGHgMAAAA0UnyIa39eluULb2NuyWY3BHLue/v7wmDTUlXU1MHK+CQnalraeag6ECAfaenmYj3hzsrLmeKUb3Ut00xn9l1OTo5yjuoUvGP53EDDWM7au2lJGcpIyVZmSrbap3VSRmq2LEteueZoNKqULFMp7QydcUWGvnFDhvqOMGQmVSsajShmOjN8vTLO9q0sQ2lJmWqX1F4ZKR2UldpJSaFUZ93f4KtphMJXtFTjdfnkyzVe7iz+xmrkGC28T6NzcjRd8yjdDAAAAKDNazNBrxmN2eGub/auGY3JjMRkxWLqlGLorJ7t9J3BHZQkS1Y0Kss0ZRxu0aD8WVrpL/WUk6OZRXlq9u/pF96n0Tmj1dTJBAAAAEBDxM3Utes418zaNe0yq/H72PvV3Hf3txOcr8sievWTAzpUZYe9lqTlxYf03vYyxdzQ2A18jyjxqUPhZhVpXNNKJjtrgNY+dqOKip3ZfXLWBg3sIR3hcwNHkftdi8Hdz9bIfhN0/klXaPzgazUm73KFFJYse0avHeTGZJqmFLLU7aRk5V+eoRE3pCu9W1TRWHVN2Ou8DViWlBLK0NCu5+mcXpdodN+r9M3ca9Sr/ck17zNNVqhXlkrT5kyTlr5iz+IPKtysotxpmukEsvmzZtSM17rGqNPurf+bP0szxvlm+EoqvG+0Jj5RUzoaAAAAANqithP0uuvvRqJ2yBuJynLLNcdMfb6nQj9+baumvlCs8sqITOeik6yoDDMWPJ0jX7PmTVPRzPgAduGU4AwCAAAAoI2wnCDXm63rm6HrBrxuKOtvr+N+NGpq/vtfa+rLW/XUB1/robd36CeLt2nHweq4/eyQ94gSnzos1JSJT0jTltRU4GnwFLxC3Td6pop8x9qHFuq+ucs0bo5zvomqKQUb50ieGziKnDW308LOjN7Ujmqf2lkZqR1kWYYd2lqWTFOKmZZMZ4ZvzIwpKdVSj8FJGn1zhrqfZqo6VqloNCLTrCn9bMhQWjhT7ZKylZHSUZkpnZUcSqv3O9UNVfjKUhWrWEvrnM67UFNm1ozXeVrqG691jVG7Pc8d40vGa+lE59/5kxd4+y6ZVtT00u4AAAAA0AoYnTt3tiQpJSUl2NeqRO9Ybpedcy9MeSXn3BJzpmTKWZ9Xkmkq9f2nVd79HEU75KrLS9cGT+nM5s3T3Fql4WpMXlCiOe7XhZfNdMpATdaCkhkqmugExPmztHLJNOXaO2lmzhQtdPbRMmncuCLNzFmiiYc9BgAAAMeL6upqZWVlKSMjQ2VlZaqqqgru0iKs6x+V1fcMJ/GtWa/T7qwJge3uwD6WvZM3M9ey7CDHDX+9tpp97dnA9mzf0Oerlf7Gf7svBcBRcut5z2pgtxH6bO8GHarcq+polaojlUoLt9PpvcYoFAorZkZVGSnXGVenaND5Wd77gvdlDef94ct1VVq/pFqlO8NSNEkhI6TqWJW2HVyviupSRWPVikQj6p09WN0z+2vj7uV6ds304EsCAAAAABwFbWZGrxWN+WbwxmSZps7OSddfr8vTLy7MsdtiMSlmSTFTlhmTTFOGJRlmNHi6GsVF2ujczZ+10vlmb81augunuCWdZ2rZuBkJ1tidrAX+0s8z5Ssblau8oukJ1hir7xgAAACg6dwg157N61tz11uD11mPN25dXmcdX8vp932Z0nvsncMpA+07px32ttSMXgCHZdmlm3cc/Exbvl6jjTvf09qSAm3a9b6iZsyuxG7a+5imKTPmzOiNxRSL2aWcTTMmyzLV89Qkjfr3NJ1ysZScHVHUNFUdq9IXhz5R0f4P9cnX72rD7gLtLd/pnRMAAAAAcGy0maDX+8doLCYzampolzQ9eHFvDe+dqR8M764HLu6ndkmG3R+Lyoqa9uwDMyqjvrXCcmvW4y28b7Qd6Pr7vbJOcxKv25V/svKUq2lLnJJQc8Yp11vsq47yU/UeAwAAADSdOytPdq1WL6SVE/B6s3P9ga3vsV0dx213Tuit5+sGwk7AG1if15sJDOCosodqzXi35Hxxw7LHtOkfq5a7Vq8d9vo3N/hNybCUNzqsbqeasqxY/Dj3vWc4bwkAAAAAgGOkzQS9/vV4v9G7nR6e2FcDOqWrIipVRKXLT++qH5/XS+2TDVlRS2YsJpmWvT5vrDp4OlvhZhUpTyfXNZk2f5ZWzpFm5uQoJ2einigO7uBa5uzjbFMaUoS5KccAAAAAh+GGvL6g1g5n3L6aINgLeH0BTq3g13ns7eMLge1233MCOCbsoNZ54I5hqybslfO9DtOyQ99gwGtvdrtlWYrFTH2xvkLbP6qSGbOc737YAbJpWbJkOmGyU9IdAAAAAHBMtJ2g1wl5L8ptr/++uL/6d0pXZVT2FpNkhHTFsO76t3NyFLZizoxee+aCUWctqYWa84Q0bckCTQ52SdLgPOW6pZ3zL9d4e0HdeIWbVaRxjSu93JRjAAAAgAZww1h/UFsT/NbR7p/p69/XF+TG3U80G5iwFzh2nCA2LSlTmamdlJ3aRR3Su6l9WldZluEOV9n/RI4Pei3LfRxTLGpq/65qvf/XAyp4qkJV+1MkKyzDCqldUraykjurfUoXZad2U0oo3R7ydf1zGwAAAADQ4tpO0GuaOqd3hmae30edM1NUFbMDXm+LSqFQWFNG99VNY/p5MxIMq76g1ynXPFOaU+KUUS6Zo7wnpuu+QkkL5+gJTdOSkhKVzMtTUcIZvQs1ZeIT0rQlzvElKlmQMDb2acoxAAAAQAM4X3a0g1p3HV7/Zsqy3LLLNeWcO6SGNKpPpi7MzVSPjCQZXqjrrOHr7R+/xq9dEtpXFhrAUecMew3ufK5G971KF550gyYNvkVjT7pGISXVlG72hbzu2rx2uWZT+3dW6cNXD2j5vIP69M2QkswshY0UyTKUGsrQaZ3Ga2TP7+mbfb+vcbnT1DtrqH1ehj0AAAAAHDNG586dLUlKSUkJ9rUq2VPn64HJozQkp31NdTj7i8s1951/YFqS5v1trV5+/H5V9Bwls30fZS+dETwlAAAA0GKqq6uVlZWljIwMlZWVqaqqKrhLi4h+b46s3vnxs3DlzLqVOzu35sOzZVnK756uWRfm6OQuaQob0rZ91bp36Xat3l5qBzmynFl7Ncf6z+3OJkz64n1lvP1/fK8GwNHww28sUF7nEZJll1a2h6U9xg2F7CDYiqoqUq7Tr7I0cHS6PYadss8lm6r08aIKle5IUchMVTiUrJARliz7u+GWM8a99wCXZWjznre1cON0XyMAAAAA4GhpM0Fvt7zTNPKcs5Wckiq5Aa97p+bGu923d68+3LRdu3tNVDSlg7KW/cjpAQAAAFreMQt6r/6VzD7D7NLKvhBW7lqagaC2a0ZYj1/eX+cNyFLI8A7RFweqNfl/N2vDrnK70XSCI9/53BNaliTTUujLD5T1z6YEvZM0u+BujfK1FDw4SncsljRouhbOH6MVUydr3qZJml1wvbZOnax5m3w7S845nD75jwnuV5/6zm+bNLtA12+dqsl17QAcAz8csUC5nc/R+yWLtfPgZyqvLlV55UG1T+2iSwbfqnAoWTEzqupYhU7/jqmTRqfKsixFKk0VLjmkT/8ZU5KVobCRprARtsNhGd4/sMujB7Tm69e0v2K3KqvLVB2p1BndL9FJHUdo85639adNTQl6GfcAAAAAcKTaTOnm3UVr9dLiN/THjcn6Iu1UHeo0TKWd8lXaOd++7XC6SjuertIOQ1Xa8XQl552vc6+8RUNO7q9Q5d7g6QAAAIDjkmk5NVzlX2fXN4vXt6Zul3ZhPTC+t84bkCXDzmplHyn1ap+iF284RWf3ypBhOuGuaa8BbC/4abdZpr3Mij3br+4lUw5vu56bOkqjRo3SqKnPqe/dszVJkjbN0+RRdQcwCTX4mEmaXbBQ0wcF2+u2+I5R+oVuatQxQEszLckypagZVbVZpepYpapjlYrEqn3vA/YM3KpySxWHovr8gwr97f/s16dvhpVsZivJSFdI9ixe+3z2+4Zd7tlS1KxWxDt3hWJmzD6393XrpmDcAwAAAMCRaDNBrySFynZrQOp+9RxwsrJ75ik7Z6Da5wxU+14nKbv3QGX3OknZvU5W+x65at9zoDI6dtegnCz12v1m8FQAAADA8ckLYO1A1l2XU956vaZkmRraLV2PXdpPlw3uKNOSYk5+a1pSzLQfd85I1qNX5GlkvywZstflleWs/+uu1eus32vXhg2+mCba9Lm2qa/6t9JQZdO8p/SPYCNwLJmSaVoyLXsNbnuzg1rTtGSakmUZCilJn79j6N1nq/XB85Yie9orNZSlJCNVhpUkWSHnyxvu5h7rrMsdd263L/himohxDwAAAACN1qaCXiNWpZIVz+qvd07QX+4Yp7/cfpFeuP0ivXD7OL1wxzi9cMd4vfif4/XSXRP00p3j9dKdF+tvv7xC+z/5Z/BUAAAAwPHJcgNeO4itCWaddsvSoC5pevDiPjp/QHt397jNnZtrWtKAzmn65cR+GtKtXc1sYC88dmcL1wTIzWLS+RpV8KwzMy/B7Lu86VpYUKCCggItTDjFLnDMoJr9CwoKNHuSu8/dGqU+unZ+gQrsRltd5/fOM1/z5zszD+PaC7Rw+nTfcwdfe32vy3c+oJFMp4S6PQvXN5vf1y7LkGElqXpfmvZsSlcokqGkUJpCRrId8Dqzgp23DS8kdt8/3LDXHfNy9mu2L3gw7gEAAACg0dpU0AsAAADgMOLKtNqlld2A1rIsdUwN685v9tIZvTK8QNfJa+PDXmeCriXp1B4Z+s1VJ6l7ZkpgjV73uZznO6LAxwleCgpUcLf04B2Lgzs4+uja66VfOKVede0vDlNOdZJmz79W2x70l4ddqOmDFuuOUQ+qwC0d6z2f7/wPFqjPtTc5QcwkzZ4/RivcMrMPStdPH1Tr/L/QmLg1R+tW1/mAJnDGeue0vuqTdar6Z+frpE5nq2+HoZJleGNcMmQYSQobyQrJCXidULfWreWExJYUUoq6pJ6kXu1OU9+sM9Q/+2xlJnf13jeajnHPuAcAAABwJAh6AQAAgOOJZU/F9Wb0ubNwJWWnhvSf38zRhQOzZdTsas/edR+7bTVZriRpUPcM/XnqEOV1SZPhzeKtOb89e/BI+Nfq3Krrg7P5PNv13C/maZPsNTmfLeijfnnBfXwG9VdfFehtN8857DG+8y9+WwVuKdlB/dU3LpQapT798uz27c/pKef8m+Y9q4LAGROq63xAE9jhrKXc7LM0rNu3NKLXdzS637U6s+ckGUqyZ+o65ZtlGrKc8Nf+4kZgc9b3dssyW6aUbLTTwMzzdHqnS3VW1yv1jR6T1S39JJmWJbPZ1uhl3AMAAABAYxH0AgAAAMcRd/1ML+x10pq8jqma/a1+uvYMexZezL8urxMCxZxbN+h193H3y+vSTnO/N0in98q0w16vPLQd9ppHHPY6Nv1DK7bXF8q4Bql/32BbSyrQg6OcUGqUfzZgUzX3+XCispxx/HXFF/ry0CfadmC9Pt9XqC8PbFbMNO0SzKblrNdrh7j25m+zNyvmhMK+fSKxan1V+Zl2lG3U9tJ12nZwrQ5V723e0s2MewAAAABoNIJeAAAA4Hjilmx2Ftu0LEt5nVL1wMS+Gn9yB6/Uqnvrn9Hrzeb1zer1bzFLGtwzQ/dOylO/Tmk1s3mD03+P1KALNabPdm0tCnZIUh+NudCZ8jfoQo3p45u1l8imz7VNo3S+uxDmoOm6ftRhjknEOU+tMqubPte2PtfqJuf8g6Zf7yvhWqSt/uBq0vk1fXWdD2gCd/h9duADrdm9RO99+VcVbPuTCnf+XTEzWjNb15n5687Cd2ft+mfvmk4ZaHc/07JUHSvXp4f+qY/3vqYPd7+o93f9RV+VJxygTce4BwAAAIBGI+gFAAAAjieWHdDICWqyU8O6/Zu9dE6fTMkw4kJdN/xxg1zL8nJir5Sz99jpN2To7H7Zevg7p6hdSrj5wl1/OdP5Y7Ri6mTN2xTcR5K2a1u/Xzj7XattD96h+rObxbpj6nPqe7f/3O4xi/V2gfO8s91EqC72eXTtfPs8Be4xi3XHgwUa5Zz/F1rhK+G6SfOerekrOF++vrrOBzSeHdJaisQqVRUtU0W0VBXRQ6qMlcuMuWvturP8a8a+G+7K7bNq9q35/oYh0zRVbVaoKlaqimipKmOlilmR4MtoAsb94V8DAAAAANTN6Ny5syVJKSkpwT4AAAAATVRdXa2srCxlZGSorKxMVVVVwV1aROUlDyjW8zTJktqnhvST83rpxuHdZfj2qRXNOg3B9oSPfY3/Kt6vnzy/Xl/uq5QkJe/4UO3f/Z+aHU5IkzS74HptrTOwAprfDUP/oP4dhuvd3X/WjkObVV51SFWRcnVK66MJuT9RUii55jsZzhc67Fv7gX9su/v5v8NREdunD/Yt1L6KnaqoLpVlWjq721XKyz5Xn+5/W38tvrVm5xMS4x4AAADAscGMXgAAAOA4Yhz6SjIt9e2Qoge+1V83nN3dm5Ebty6vU67VNBO0J3js7e97PHxAB82ZPEQnd8+QJCWV7w6+HABHgWmZTvllu2y75U7Pd2fkB9bc9dbj9dpqNnemr58l/7njF+U1jOBXQgAAAAAARwtBLwAAANDGGeEkpfUaoPQBg5UZ3aXe2cn6xfh+Gn9KR1m+9XbdwNfbJMWC6/Mebgvse2a/bP1s4knq1SFZ2cZupfcfpKQOXSXDP4cYQHPzj/vS9GpZlqVTsy/SmJ5TNa7vrZqY+zOdm3O9Qkry1tq1b921emuC3VrT9wPSQlka1vEqnddjmsb1+anG9f2JemeeLkk6mFXBuAcAAACAY4TSzQAAAEALOFqlm41QSJ3GfVc9b7hNoXYZkmVofHayru6TrpRQTeji5TjuLD+vJ/HjBu8n6VC1qV9vOaQtFRFZlqXKL4u049HbVf1FUXBXAM0gOO67lIR15p+rlWxXUQ+UaU5Qntl3/0iUt5feuS6s8nZRxj0AAAAAHAMEvQAAAEALOCpBbyik9KEj1f3Gu5WSM0Ay7II9YUMalBFSbnpISU7Wm6gUq/9OXLdl1cqAgsGQ5Zyz0rS05kBUOypjXrdZXamqTz7U/oW/UuTLT2s/OYCmSzDuDVPq8nlMvTaZSq6qHezaj2vKOfu7Diu4o2XJMqSybKk4P6zSbEkG4x4AAAAAjgWCXgAAAKAFtHjQGworNmSCMi76N4U7dFE4o70sJ+h1Ih33bs0df8gTl8H4+gzDfpgopHGa7BvfGqDx/ycrUimz9IDMA1+r+s0FChe/Y9eKBXBkGPcAAAAAAB+CXgAAAKAFtHTQG83uowPjH5LSO0iGHQDZaqUw8Sx7d0uWvMLOifat1WbJiMuM6ngeS5JlyrJMSZbCe4rVfsXDClXur9kHQJMw7gEAAAAAfgS9AAAAQAto8aC34wAdOP8+WWHnc3wweJEkmU6T4YU8cnazw574QCe+KRgA2QGR22rIn/4En7emL1y2U1mrHlGocm9gHwCNxbgHAAAAAPgR9AIAAAAtoKWDXjOjm8rOnCYrnFo7cIl7GB/kGL7yrobsIKdG8DzBIKeGe56a2YHBfe3Qxyj/Su3W/6+MSFmgH0BjMe4BAAAAAH4EvQAAAEALaOmgV5Ks1CxZRlLtoCaRBuzSNPWf2DCjhD1AM2LcAwAAAABcBL0AAABACzgaQS8AAAAAAABOXKFgAwAAAAAAAAAAAACgdWvTM3pjaR1V1XO4ou37y7JMpRwoVlrJv2REyoO7AgAAAEcVM3oBAAAAAADQklpsRm8o1GKnliRFs3pr//CZKhv8XVX2GqGq3iNVOuRa7Rv1c0UzegR3r9/kBSopKfG2lbPyg3s00mQt8J3vsOfMn6WVJStV3y7NI/i6jsZzNsVkLWi1rw0AAAAAAAAAAAA49losjX3xxRd11113KRwOB7uazAolK5bVU5GOuTpwzo8V69BPlhGWjJBkhGQZYUUzumn/N+5UJLt/8PDEJi9QyZw8PTExRzk5OcrJmail45fUH8w2SLHvnDNVNG2JShZMDu5kK7xPo3NG677CYEdLqHldE5+Qps2bpSP9kwIAAAAAAAAAAAA4ulos6P3nP/+piy++uNnCXislQ2WnfVd7/397/x4e933fh57vAUjwAkGyDMuSxxfagE2HsR0ksXM17cQJSRWJEyZxmmCbNnTSpmEqeqXidM+p2i4eH2ZPs0lbmGqkLdNuk6BtGvb0KCqySdCQTtzQbJrYclzkIlmyAZuyPbYkW3eQBDDz++0fMwDB4UUUibE58uv1PCPMfG+/AfyPHr39+Xy/9//Il7//l7P0qpEU1w+m3HJdyrbq4WLzDTn19X89Ze/Gc8bPN5KJA7tzbHxtyDqbg7cdTvaP5yKx7BU4kn2jhzO/e3Qdz7x6swfvzrGhPdkr6QUAAAAAAICu0rGg99ChQ5mens6uXbvWJew9PbQrz735x1O/4dUpe/uSVFJu6Eux9YYUN9yUctOWpKeSvuuvy8DrXp3Nb9uVxo/+s5Sv+eZmxe+FjOzNnqFjmTnSNj47naPzw9k+krNthCfOtnc+p9p3ZCInVlshT108yJ2dztH53Rkdy+qZU1MnWntWWhWPZOJELecU/o5NpXaiVXV7uc+6Uhc8v/27Nr/jyt9i9bues3ft73Dpv9/Y1JpW0hereAYAAAAAAADOcZEE9OqVZXle2Hs19/aeGvrelBu2tA8nlUrSuzFbq7fkZW96fa57TTUb+remZ+tAym3fksben09esaN911nzc3mwfSxJMpTh1W1D2T8802zDPH4sQ6vVvmOZmtmToystmseTA5fd8nkow3O3pVrdl7M582wO3n0su5tpcJJkbHR3jt19MLNX9awLG5k4kN3zRzM9m+f5XdZ817Hx7J8bb7WkrmbfkZW9+zM33to7ejjDk2vv2L3Y3y85su9se+tjuw+4lxcAAAAAAAAuw5Unr5ehLMvcddddOXnyZHbt2pUdOy4RuD6P5Ze98ZzPlUolfZt685LBLdm2/ca8avjG3HjzQG4Y3JK+zRvS01NJKpWUW29Mfff4OXvPMTScC3+r+cytJsDzOTzZimOPzORYWtW+I9sznKHsn2lVpE7uztDZdPgCzj3zaDNhPdeRmRxbbfE8ltHhw5k8cpnPumBFbruzZ8zsn8v4zoOZzfOdv+a7PjiX+d2TbVXN2zOcNZXRswdz97G1QflF/n5pVSzXaqnVJrN7ZTkAAAAAAABwSR0NeiuVSm6//fZs27Yt09PTeeCBB9qXXLbe5x5NkmzY2JMbXro5t7x6IK8evjG3vHogW7aevYt3w8beXP+STbnuhk3ZtHlDKpWkfMmr1py0xjntlNcY2Zs9Q3N5+AI57PmOZbxV3VqtVlNtlrie77LPPJLJw8M5MDGSkYkDGT463Qxik+d/1uzB7FydX1spvNZ8Dq9U7Z635nnOz9ln3JZ72lo0X4GRiZyYTOuZozk8374AAAAAAAAAuJCOBb2VSiV33HFH9u7dm+np6Rw6dChlWbYvu2wDn/79vOzm/rzqdTfk5a8cyA0v3ZyNfRf/+n2betN/fV/6B/qy4Qt/0T7d0mqVPLm2+rXZhjiHJy8SlK4x+3DmsvsyWiivtDZuD1YvbHb6aLJnPON75nL3wVbMe9nPukIv8PzZgzszeng+w9tHVveuBuYjEzmw+wJ3H7fbMZyhldbZI3uzZ6h9AQAAAAAAAHAhF09Kr9J6hrxJsvXTf5CXLM5n89aN6e2ttE9fUE9PJX31p9J74l+3T511ZF+q48nkasvjyWS8mp0rAeslHcm+0cPJ/pnW3lpqqyWua9og1w5kbnTlPtvLMDudo9md3XMza4LhSz1rPVzm+autlputn5tBdHPv8GRr38yeHB29jFD7yGQOZ39marXU7hnOnIpeAAAAAAAAuCyVwcHBMkn6+vra567Kfffdl+PHj69LyLui95ahbPyWH8yG139LUnmejLosUjzx+Sz+4a+n8bkHk3X6DgAAcDmWlpYyMDCQ/v7+LCwsZHFxsX0JAAAAAFyxjgW9PT09KYqifRgAAL4mCHoBAAAA6KTnKYu9ckJeAAAAAAAAgM7oWNALAAAAAAAAQGcIegEAAAAAAAC6jKAXAAAAAAAAoMsIegEAAAAAAAC6jKAXAAAAAAAAoMsIegEAAAAAAAC6jKAXAAAAAAAAoMsIegEAAAAAAAC6jKAXAAAAAAAAoMsIegEAAAAAAAC6jKAXAAAAAAAAoMsIegEAAAAAAAC6jKAXAAAAAAAAoMsIegEAAAAAAAC6jKAXAAAAAAAAoMsIegEAAAAAAAC6jKAXAAAAAAAAoMsIegEAAAAAAAC6TGVwcLBMkr6+vva5a8rwnlvz8rd8Q1ImZVmmLJMU5dn3ZSVlWbbGkpRlyqJMWSSPzt6f2sf+e/uRAADQMUtLSxkYGEh/f38WFhayuLjYvgQAAAAArljXBL3f9cEP5Zn+G1IsFymLMkWjTFkvUjRW3qf5vl6kaBRJIynqRcpGmZeefjqz//cfbj8SAAA6RtALAAAAQCd1rHVzT8/6Hv35zQP58YH+3Dv0iiwuFnnqTCNPnmnkydONPHmqnidPL+fJU0t58vRynjpVz5MLy3nyVD1PnKrnU8tb2o9rGctUrZbamtfUWPsaAAAAAAAAgGvL+qaxa9x77725884709vb2z51RZYXG/nywul8+qlnsrzUSGOxkcZSkcZykWK5TGOpSLFUpFhspFgqU19qpLHUXFNfKtuPW2M+h0erqVarqY4ezvDkVGS9AAAAAAAAwLWsY0Hv8ePHc+utt65b2FssFTn51HP56KNfaga9S0Uz3F1shr5F63NjqUxjqdEMfxeLNBYbqS/W24+7sNmHM5fhbB9pnwAAAAAAAAC4dnQs6D106FCmp6eza9eudQl7G0tF3vqywbx3x3B6lss0lleC3WZVb/NVrlb3Nsebn4vlS1X0rjE2mt3H7s7B2bTaOp/IxGrou/Zz8/3U1InUaq0K4JGJnFhtAX22Knhsak1r6NW+0Jc6GwAAAAAAAODSOhb0lmV5Xth7Nff2FstFJv/kLzPyb6fz7OnlVovmIsVys2Vz40wjxXLRbNfcGiuWm+8bS0X7cWsMZf9MK4idTMb3HWlfcBFDGZ67LdXqvhzJWKZm9uToSgvo8eRAK7U9sq81Vh3Psd0HhLkAAAAAAADAVbvy5PUylGWZu+66KydPnsyuXbuyY8eO9iWXrb5YpH7dy1Kvbk9Rr6yGuc1Wza0K38VWZe/K/byt1s2NS1b0rr2jdy4HLruydj5Hp2ebb0e2Z/icwHh3hoZbv+vYVKuidzK7z9kPAAAAAAAAcGU6GvRWKpXcfvvt2bZtW6anp/PAAw+0L7lsRatFc7M1cyvEXQl0l1p39C42x4ulZqvnxlKrsvey7+idztH5oaxktC/MsYxXV6p3q6nuO9Js5zyZ1vhoDs+37wEAAAAAAAB44ToW9FYqldxxxx3Zu3dvpqenc+jQoZTlpSprL+1suNuq4l25i3dlrBUANwPf+tm7e1s/L8vI3uwZms/cg0nyYObWhr5joxevyJ19OHPZvdquedWO4QzNz+XBrJy9MvECzgYAAAAAAABo07Ggdz1D3iQplsvmHbzLzQrdolXdW9Sb48VykaLeauG81HxfLDc/F5ds3bym5fLMnhwd3ZmDs0kym4N3H8vuydbcaHKsfeuqI9k3ejjZP9Nq01xLbWosOTKZw9mfmVottXuGM7da0ftCzgYAAAAAAAA4V2VwcLBMkr6+vva5q3Lffffl+PHj6xLyJsnWyf+aol6mrJcpGs1XWS9T1IuUjaTRKFIuF83xRlI0muFv2WiuueHIT7QfCQAAHbO0tJSBgYH09/dnYWEhi4uL7UsAAAAA4Ip1LOjt6elJUVxmy+TL8UMH0th6Y4p6mZStgLdIykaZsmi+miFvmbJI9nzrm/Pol57Opz/3eJ794iO5/s//XfuJAADQMYJeAAAAADqpY0Hveis3bUnZe/Y7lqv/OPuzTLn6vvqyG3NmcSnPnV7M8pmF9Db8hzUAAL5yBL0AAAAAdFLXBL0AANBNBL0AAAAAdFJP+wAAAAAAAAAA1zZBLwAAAAAAAECXEfQCAAAAAAAAdBlBLwAAAAAAAECXEfQCAAAAAAAAdBlBLwAAAAAAAECXEfQCAAAAAAAAdBlBLwAAAAAAAECXEfQCAAAAAAAAdBlBLwAAAAAAAECXEfQCAAAAAAAAdBlBLwAAAAAAAECXEfQCAAAAAAAAdBlBLwAAAAAAAECXEfQCAAAAAAAAdBlBLwAAAAAAAECXqQwODpZJ0tfX1z53Tfrrf+O9+bG/9bfTu2FDijIpijJFUaZeFCmKpFEUaRRlnnn6qfybD/x8Hvzzj7UfAQAAHbe0tJSBgYH09/dnYWEhi4uL7UsAAAAA4Ip1XUXvm775O/LlZ8/k0Seeyxe//GxqX3omn3v86Xz+8WfzyGNP5eSjT+fkF5/Kl08lN978mvbtAAAAAAAAAF2v64LepXojlVRSlmUaRZmiLNMo03qf1udmhe9yvdG+HQAAAAAAAKDrdSzo7enp0NGVVphbnG3b3HwVaTSabZuLokyjUaQoivbdbcYyVaultuZ1YmKkfREAAAAAAADANaVDaWxy77335s4770xvb2/71FUpy6TeKDKwdVNuuG5zbrhuc24c2JytWzZmU9+GvHRgS24c2JJ6vZ6iLNu3X8B8Do9WU61WU62OZ27/TGpTY+2LusRYpmonIqsGAAAAAACAF7eOBb3Hjx/Prbfeuu5hb1E0Wzb3VerZ3FvP1t4i/RuKbO4p8qZtN2Xse96cH3/Xm7O8vJzysoLetY5k3+jhzO8eTbdGvQAAAAAAAMCLX8eC3kOHDmV6ejq7du1a17B3pS3z0Ktfnh2ve2V2DL0ybxp+ZV5980uz3KriPbO4mHqjcQVBb5LZ6Ryd353RlaR3ZCIn1rR2PrfYdyQTJ9rn2qtq135uvR87e+bUWDIyceLCraPPefZUK3xunTEx1bZnLFO1yezOUPbP1FpVyRf6fgAAAAAAAEC361jQW5bleWHvetzb2yia9/D+zh99PL/5u/89/+F3Ppxf/+0P54MfeTB/9GcP5+cP35d/8R9+PynKlM97R+/zGcvUzP7MjbdaO48ezvDkSmg7kokTM9lzdLTV9rmafUfa91/IUPYfSG6rVlMdP5bdk7Xck9uaZ4wfy9D+8bOB7syeHF1pKz2eHFgNgYeyf3imbc+R7KuO59hKK+p9R5Kx8eyfG3+B3w8AAAAAAAC41l198noJZVnmrrvuysmTJ7Nr167s2LGjfckLVpRJUZb5vp3fmB//vu/MT3z/zvzkD7wjf2v0W/OTo2/L33nPuzJ267elXjRSlFca9M5n7sEkI9sznGOZWQlIZw/m7mNDGd6RZGRv9gwdy90HZ9v2Pp/5HL7tYGaT5MhMjmU+R6dbZxyZybEMZ/vIyrNb1bm1WmqTuzM0vPL3m8/hydaXWrun3YNzmd89eW6VMAAAAAAAAND1Ohr0ViqV3H777dm2bVump6fzwAMPtC95wYqyeUfv5x9/Mo/UvpTP1L6Uz3z+8Xz6849n/nOPZ+6zj+Zk7Utp1Bu5ks7NzQB3Lg+/0Py2I45lvFWNW622qnRfiNmD2Vmt5rbco3UzAAAAAAAAvIh0LOitVCq54447snfv3kxPT+fQoUNXdmdum6Jo3tP7yZOP5i8+9fn8+Sc/l9mHP5uPf+Jk/uyv5vOxv5rPXzz82RSNxhW0bl5p1bwvR5Jk9uHM5dz7eg/sblX4tu7yPdtOecWDmZtvVf0mydhodretuCytZ59//gs3e3BnRg/PZ/iCZb8AAAAAAABAt+lY0NuJkDdrKnpPFRuyUGzMQmNDnlnqyTNLlTy1VMkTZ8o8caqeoixTXNYz17RHrh3I3Ojau2yPZN/o4QxPtuZn9uToaCsEzmwO7hzP3P6Z1t6VitnZHLy7efdurVZLbTQ5tuZpl6/57Kw5v/a8JblHMnOs9ftMjSVjU6t7Z/bPXUGbaQAAAAAAAOBaVBkcHCyTpK+vr33uqtx33305fvz4uoa8SbL/H0/m5lcPp94oUm+UWa430mg0slxfzvLScuqNRur1eur1ev7sD38rD93/ofYjAACg45aWljIwMJD+/v4sLCxkcXGxfQkAAAAAXLGOVfS+5z3vyQc+8IF1DXmTpFEkjaJMvSizvBLqNuqp1xtpFM3Qt9FopFFvpCjW99kAAAAAAAAA14KOBb3FC74f9/KUZZl6o0hRlClWQt1Go/m+3gx+G41m6FuWnfkOAAAAAAAAAF9NHQt6O+Xjf/wHq62ZG41GipUq3qJIo2gGwPXl5Sw8+1SefPSR9u0AAAAAAAAAXa9jd/QCAMDXMnf0AgAAANBJXVfRCwAAAAAAAPC1TtALAAAAAAAA0GUEvQAAAAAAAABdRtALAAAAAAAA0GUEvQAAAAAAAABdRtALAAAAAAAA0GUEvQAAAAAAAABdRtALAAAAAAAA0GUEvQAAAAAAAABdRtALAAAAAAAA0GUEvQAAAAAAAABdRtALAAAAAAAA0GUEvQAAAAAAAABdRtALAAAAAAAA0GUEvQAAAAAAAABdpjI4OFgmSV9fX/vcNaXS05utL3tFNvZf3z51Vlm2fjZ/FEUji089nsXnnjo7BwAAXwFLS0sZGBhIf39/FhYWsri42L4EAAAAAK5Y1wS9m15WzbafnUxueX1StrLcMinLMmVRJGWl+bMoUpatBctn0vPIx/PpqX+UYnmp/UgAAOgYQS8AAAAAndQ1Qe+GV74xfbf9es40KinLpCyLpChTFs2gtyzTDHmLMjdt6cljzy4nZZmtvUXq//KHUy6daj8SAAA6RtALAAAAQCd17I7enp71PbpRVnKmkWaw2yiSxpqQt1EmjSJFvZF/9B2D+R/vHc4/evtNKeqNPHumSLnSy/k8Y5mqTWWsfRgAAAAAAADgGra+aewa9957b+6888709va2T12RMknRWAl2GykajRT1Rsp6kbIoUjQauW5DJd/5qq0Z2NST73z11mzpTTMUvljOCwAAAAAAANCFOhb0Hj9+PLfeeuv6hb1ls5K3aLSC3XqRst5I2Wj9rDfyzKnl/PyHvpB//uEv5uf/oJbnTtdT1Iv2kwAAAAAAAAC6WseC3kOHDmV6ejq7du1al7C3LLMa7hbLrYC30azkLRpnP5/4zLP5Z8e/mBOffmZ17PKMZap2IhNjEzlRq6VWq2VqLBmZOJFa6/OJiZGzq6eaY7VaLbWpNc2fR87uPzEx0TxzZduaudpqy+iRTJw4e9baowAAAAAAAAAupGNBb1mW54W9V3dvb9ls2Vyvt+7pbTSrextFynrzft6Vts6LS/VW5W8jZdFoP+gShrL/QHJbtZrq+LHsnqzlntyWauvz0P7x1ft8j+yrNser4zm2+0ArzB3L1Mz+zI03527LnuxePXssUzN7cnS0tW88OTAxkoyNZ//ceOusavYdWd0AAAAAAAAAcEFXk7w+r7Isc9ddd+XkyZPZtWtXduzY0b7k8pXN+3bLRrOFc7NtcyMv3Vhk7xu25off2J/+nmYL57LRfDUrgC+3ojdJ5nP4toOZTZIjMzmW+Rydnm1OHZnJsQxn+0p17thUqwp38myYO7I9w/OHM9kKa2cP3p1ja+cylP0zrerdyd0ZGt6RPDiX+d2T51QLAwAAAAAAAFxKR4PeSqWS22+/Pdu2bcv09HQeeOCB9iUvQCvgLVrVu41Ghgcq+aVbX5nDP/L63LX39fnf3nlLrt9wto3zatVv+1FXa2QiJyaT8Wo11epoDs+3L7iYY609rde+I8nsweysVnNb7tG6GQAAAAAAALgsHQt6K5VK7rjjjuzduzfT09M5dOhQyvIqItdWRW9RL5JGIzduLPO/fVc1u7YPpkwlG3p78jfe+or8w3e9Khsai83K3noz7F13O4YzND+XB5NkZG/2DLXGZx/O3ND+jLfC2pGJA2erfWcfzlx2N9s1X8DswZ0ZPTyf4dWSYQAAAAAAAIAL61jQu64hb6sNdNloJI0iZX05d3znzbn16wbTU6mkXiSNIunb0Ju/8a2vyi/8wHCK5cXWnb1F1r2k98hkDmd/Zmq11O4ZztxqRe+R7Gvd7Vur1XJPjp5t3Zwj2Td6ONk/02r5XEttamxNC+haZvbP5e6DrVbRAAAAAAAAABdRGRwcLJOkr6+vfe6q3HfffTl+/Pi6hLxJUtz0+iz+8Ady4+bk9rffkvd+2yubVb6t+XL1H80f/3zm4Rz+o89lYanMS3/nZ1Kpn1lz2lfIyEROzAzn7uq+tK7tBQDga8TS0lIGBgbS39+fhYWFLC4uti8BAAAAgCvWsYre97znPfnABz6wLiFvkqQoMrixkYldr8nfeGs19UayXCT1lVcjqZfJctn8+TPfPZSf+s5q+itfhYC3ZWx8/9kWzwAAAAAAAADrpGMVveut3PKS5J23pfqm78jGDb3Nat6iSFk0y3rLskiKMkVZpJJKkuTZ507niY/9l2z8q3uTot5+ZAeMZOLETPav3NmbYxlXzQsA8DVJRS8AAAAAndQ1QW9SSdm7IZWeDasj59QKr+3dvFZjOZWy0T4KAAAdJegFAAAAoJM61rp5/ZWpNJaT5dOrr8raV/10KvUz57+EvAAAAAAAAMCLTBcFvQAAAAAAAABE0AsAAAAAAADQfQS9AAAAAAAAAF1G0AsAAAAAAADQZQS9AAAAAAAAAF1G0AsAAAAAAADQZQS9AAAAAAAAAF1G0AsAAAAAAADQZQS9AAAAAAAAAF1G0AsAAAAAAADQZQS9AAAAAAAAAF1G0AsAAAAAAADQZQS9AAAAAAAAAF1G0AsAAAAAAADQZQS9AAAAAAAAAF2mMjg4WCZJX19f+9w16/qtm/O24VflB9+6I2961S2p3viSnFku8vAXnsj985/N7378r/L5Lz+VZ0+fbt8KAABfEUtLSxkYGEh/f38WFhayuLjYvgQAAAAArljXBb3ftv01+Ynv/Pq861U3JouLaSw2Ul8ukmxI0bsp5cbNOd27KX/0mS/kV/7ww6k98WT7EQAA0HGCXgAAAAA6qataN3/z8Cvzj/7aN+Z7b9qQPPNE6qfOpLFcpih7Uy96Ul8qUn/2dHqfejbf9fKX5bZd78rgwED7MQAAAAAAAABdrWNBb0/P+h79kv7N+dl3fn3e0LeUYnExRdmTstyQouxJvejJ4HvHc93bdycDgymKnuTMct7+8pfne9/8pvT2Xuy7jGWqVkttaqx9IkkyMnEitdqJTIy0z1yGkYmcuNK9AAAAAAAAAJdwsQT0qt177725884709vb2z51Rd5w8w351sENKZfrKYreNBq9aRQ9qRe9OVNP+qqvyg3fvScv/5s/neXeTak3elN/djE/863fnte+7Kb249aYz/zwgQsEsmMZ3z/UPnj5Zg9mZ3VnDs62TwAAAAAAAABcnY4FvcePH8+tt966bmHvj33z67K5sZyi7E2Z3hRlbxplb4pyQ5YbvVl87rnU/uIvslgvsrjck0axIY1iQ4onT+WHRr6p/bhzzM0le/a2Jb1jo9l97FiOnTsKAAAAAAAA8FXXsaD30KFDmZ6ezq5du9Yl7H3LSzelKJKi7Emj6Gm2bi56U7ReS089nU/8x/+U+/8//ybLi0Ua5Ybmq9GTr3/JLe3HnWNu8u7M7R/P2QbOI5k4MJzDkzNrVo1l6pxWzGs/j2TiRC21WvPV7ATdtn5kIida8ycmJtbMXercc/fValNrviMAAAAAAADwtapjQW9ZlueFvVdzb++26zenKHrSaFSaYW/Zm0bZDHyLoie9qeTGckNuXKpkQ2VTiqI39aI3jXJDbtlyQ/txbY5k5tjujK6kqCN7sydHM325bZfHxrN/bjzVajXVajX7jpy3IFMz+zM33py/LXuyu33JBY1lamZPjo4291XHkwPn95gGAAAAAAAAvsZcefJ6GcqyzF133ZWTJ09m165d2bFjR/uSy7a0uNSs4i17U5Y9KcpKsnFLNgzenI033ZKkkkq5MT3ZmHrZm6VyY5aLDVkqNua50432485zZPJwhg9MZCTJ2Pj+zN19MJeb8+bBuczvnsyJi4WwI9szPH84k60AePbg3ZfXEnpke4YzlP0zrYreyd0ZGr7yvyEAAAAAAADw4tDRoLdSqeT222/Ptm3bMj09nQceeKB9yWWb+/KZlGVPyrTaNpcbsvUb35pXvPenM/x3/07KJPVyQ5bLjVkuN2Wp2Jiloi9L5cb81eNfbj/ufLPTOZo92Ts2kQPDZ0PZyzJ7MDur1dyWe9a0bl4vxzLeqhSuVqupnl8uDAAAAAAAAHyN6VjQW6lUcscdd2Tv3r2Znp7OoUOHUpZl+7LL9me1p1shb6t1c3rT+7Kb03vdddnQ358zzy5kuezNcrkhi0VvM+gt+7JcbMzHap9pP+4CZnPw7rnsn9yfHJ2+QDXvg5mbH8pqQe3Y6Hntl2cP7szo4fkMb2+r7J19OHND+zPeCoBHJg6s2XuJc2cfzlx2a9cMAAAAAAAAnKNjQe96hrxJ8vuffDSL9TJp3cvbqJf54l8+kMVnn02S1GY/kSLNds3L5YbUy42plxvz+KnF/OH8n7Ufd2FHJnN4/ljuPnh+zNsMgo9l92SrjfJozrZfHptqjtVqmdk/d4H9R7Jv/Ozee3J0TevmS5ybI9k3ejjZP7N6fm19y4UBAAAAAACALlQZHBwsk6Svr6997qrcd999OX78+LqEvEmytW9D/pe3vyV7hl+XSvqy1NiYJxYaebzRkzNnilzXO5Atm16SevpSLzekUfbm1PJifvuBD+b4/J+mURTtR34VjWWqdiBzoztzXiYMAMCLwtLSUgYGBtLf35+FhYUsLi62LwEAAACAK9axit73vOc9+cAHPrAuIW+SnFqq59c+9nB+/1Ofy3IjSdmT6zZtzSs2bs2r+1+a67Zcn0Y2ZrncmKVyY55dKvO7n/hw/vgzH7vGQl4AAAAAAACAq9OxoLfoQLj6uWcWcvefzOZX/+wv8uSZpZRlT3p6NqTSszFFuSH1sjfLRW+eWyzyn2d/Oyfm/0cW60vtxwAAAAAAAAB0tY61bu6kDT09eemWLfmRHd+Y1w++Kq9+yStzqtGXh7705fzlYyfzx5/5aJ46/XSKcv3DZgAAuBxaNwMAAADQSV0Z9AIAwLVO0AsAAABAJ3WsdTMAAAAAAAAAnSHoBQAAAAAAAOgygl4AAAAAAACALiPoBQAAAAAAAOgygl4AAAAAAACALiPoBQAAAAAAAOgygl4AAAAAAACALiPoBQAAAAAAAOgygl4AAAAAAACALiPoBQAAAAAAAOgygl4AAAAAAACALiPoBQAAAAAAAOgygl4AAAAAAACALiPoBQAAAAAAAOgygl4AAAAAAACALvOiCHpv3PeObB37rvZhAAAAAAAAgBelF0XQO/AD35Set7yhfRgAAAAAAADgRelFEfQmlTQalfZBAAAAAAAAgBeljgW9PT0dO/o8RZkUxQsPesemaqnVzn+dmBhZuyi1ExNpjoxlqnYia6fPX3MxF9kLAAAAAAAA8AJ1LI299957c+edd6a3t7d9qgMqadTbx57fkX3VVKvVVKvjOZb5HB5tft55cLa1YixTB+YyuvNgVkbOdzlrXswE2AAAAAAAAPCV1rGg9/jx47n11lu/ImFvUSSNogO/ysiDmXy+APdy1gAAAAAAAACsow6ko02HDh3K9PR0du3a1fGwtygqaVxB6+ZLGpnIiZmZzNRqqdWmMtY+n0utGcnEibOtoKfWbt4xkRMXaBF9Thvp1Q3NatmpqRNnzx9Zu3/i3GraNXNnv0+r4nbs7NzUWDIyceLCraovdcbEVNuesUzVJrM7Q9k/s/K9L/G7AwAAAAAAAOuiY0FvWZbnhb3rdW/vLZM/kZf/kx9Oz9ZNSZKy6Flt3Vy54bps+H/+TCp/98fO3fSCjGVqZk+Otlo5V8eTA+f1Jr7YmpFMnJjJnqOjrbbQ1ew7srJnKPsPJLdVq6mOH8vQ/vHVcPicNtK7D6xphTyU4bnbUq3uy5GMZWpmf+bGm2tvy57sXll20e/TPGPtc3dP1nJPbmutW/s9nueM4Zm2PUeyb23b631HkrHx7J8bv8DvDgAAAAAAAKyX9UleL6Isy9x11105efJkdu3alR07drQvuSL1L59K5U1D2fKj70jlui2pF0lR9KS85aaUP/t/y9LLXpH6kwvt2y7fyPYMr1Sp1mqpTe7O0HDbd7/YmpG92TN0LHev3vO71nwO39Zq83xkJscynO0rOerYSrXs5Jrwtrnn6HTrrJHtGZ4/nMlWeDp78O4cW1l2se/TOuPc5645c+33eL4zVh7c/t3XenAu87snz60SBgAAAAAAANZVR4PeSqWS22+/Pdu2bcv09HQeeOCB9iVX5IkP/F6e+b3ZlN/5zen567emnk1pDFyf5R/bmzMvuSXF7344vb+9GoFeoWMZb1WlVqutatXzXM6ayzAykROTaZ01msPz7Qsu13p8n6s8Y/ZgdlaruS33aN0MAAAAAAAAHdKxoLdSqeSOO+7I3r17Mz09nUOHDqUsy/ZlV6Q4tZgz9/33nP7jh7P0lrfkiWe2pBwYyOJLq+mZ/v30fuhEsrjUvu3yzT6cuey+QLvmNS62ZnY6R+cvMH4pO4YzND+XB5NWRXD7gpbZhzM3tD/jrfB0ZOLA2erfi32fF2I9zmiZPbgzo4fnM3zBsl8AAAAAAADganQs6O1UyLuifO50yv/yB1l++It57rmNWTpdyYb/9t+z8c8+nsrycvvyF+hI9o0eTvbPtNop11I7rzT1Ymtmc3DneObWjJ+3td2RyRzO/szUaqndM5y5i1b0Hsm+1h27tVot9+To2dbNF/0+L8SVnHEkM8da7Z6nxta0oK5lZv/cRVpYAwAAAAAAAFejMjg4WCZJX19f+9xVue+++3L8+PGOhLxrlf39eebdP5zKswsZ+ODvpbK02L7kxWtkIidmhnN3dV9eYINlAAA6bGlpKQMDA+nv78/CwkIWF7+G/j0VAAAAgI7rWNDb09OToijah1lHY1O1TA4fzujOg1E3CwBwbRH0AgAAANBJHQt6O+WlP/OubPr6atLT26wULpOyUklZVFKWSVkkRdmTYrnIwn3/I8v3P9x+RBcbycSJmexfvcP3WMZV8wIAXJMEvQAAAAB0UtcFvdf9rz+WylvekEajJ42ikkajJ0VRSb3Rk0a9NVYvU9TLbLpvOn1/+tH2IwAAoOMEvQAAAAB0UtcFvQAA0A0EvQAAAAB0Uk/7AAAAAAAAAADXNkEvAAAAAAAAQJcR9AIAAAAAAAB0GUEvAAAAAAAAQJcR9AIAAAAAAAB0GUEvAAAAAAAAQJcR9AIAAAAAAAB0GUEvAAAAAAAAQJcR9AIAAAAAAAB0GUEvAAAAAAAAQJcR9AIAAAAAAAB0GUEvAAAAAAAAQJcR9AIAAAAAAAB0GUEvAAAAAAAAQJcR9AIAAAAAAAB0mcrg4GCZJH19fe1z15x3jHx//t4P/3xu6H9piqI5VpZJyqQoy1SSFK3PZZk89NmP51/8n+/L4099vv0oAADoqKWlpQwMDKS/vz8LCwtZXFxsXwIAAAAAV6yrKnq3Xf+NWf7CS/LoQ4089nAjjz3UyGMP1fPoJ+p5/KEiX3ywkUcfaOSLD9TzxQfrufHMW7J1w43txwAAAAAAAAB0ta4KepcXyxx/4IP5T3/8KykaSaNeptFIGo2k3npfFGUajTJHH/hPeeCRP0/RaD8FAAAAAAAAoLt1LOjt6Vn/o4uiSO2JT+eTtT9P0ShTFElRT+t9mUa9WA18T37pE3nyucdbvZ0vbGyqlhMTI+2DqU2NJSMTOVE7kfbpprFMXWhubCq1ExNpHwYAAAAAAABYT+ufxrbce++9ufPOO9Pb29s+dcXKspK93/S38w++/1+mUS+zcWuy8bo0q3uXmwFvvVGkaJT5m2/9JxmpfncuHvMmR2aOZWh4xzljY6O7c2zmSDJ7MDurO3Nw9pzpSxjL1IG5jO48mMveAgAAAAAAAHAFOhb0Hj9+PLfeeuu6hr1lUeahL/55/uRTH0y9XuY1317Jt/zkxrzunT2pbEwajTJFvdnS+S8f/eN84enPXKqgN3lwLvO7RzO2OjCW0d3HMnPknFWXZ+TBTAp5AQAAAAAAgK+AjgW9hw4dyvT0dHbt2rVuYW9RJJ/4wp/ljz/5e6k3GmlkOQOvLPL6Xcnb9lVy3c3Nds6NRpnZz/9RvvDUZ3LJkt7Z6Ryd353RlaR3bDS7j82kmfO2tWcemciJWi21Wi0nJravHrE6NzOTmVottdrU2eB4zZ5arZapsxOZOHGhcQAAAAAAAIDn17GgtyzL88Leq723tyjKfM/rfzw/8/Z/mnq9SL3eSL1eT1mp5yXbGnnbT5W58XXNsPcH3/j388aXfWf7EW1mM310PsPbm2nuatvm84xlamZ/5sarqVaruS17svucuT05Otqcq44nByZGzttTHT2c4clWcDw2nv1z483xajX7LvRIAAAAAAAAgIu4uuT1eZRlmbvuuisnT57Mrl27smPHuffhvlBFUWZh8bk8ffrLzft4640sL9dTr9dz5vRyvlxbyMKzZ7Jcb2Rh8emcWT5z6dbNSWanjyZ79mYkI9k+PJ+5B9tXJBnZnuH5w5lsBbKzB+/OsbVzGcr+mVaF7uTu5r2/I9sznDVtoGcP5u5jQxnesdIyejInVsuFAQAAAAAAAC5fR4PeSqWS22+/Pdu2bcv09HQeeOCB9iUvSFkkH/nsf81vzf7LFKsVvct54gun8z/+8+P5o195Jo/PNVLUK/mjR/595r788ZTPn/TmaPZk79je7MnRTF/RJbvHMt6qzq1Wq6k+X4nu7MHsrFZzW+7RuhkAAAAAAAB4wToW9FYqldxxxx3Zu3dvpqenc+jQoecPXZ9HWSYjN+3K6PafS6NRyennGvmr//Zkfv9fPpb5D/emXLghvdmceqPIt9z043lV/ze0H3EBs5k+muyf3J8cnc4Fc97ZhzM3tD/jrUB2ZOLA2dbNsw9nLrtb7ZrXaI2v3v87MpEDu9dU+CaZPbgzo4fPto4GAAAAAAAAuBwdC3rXO+RNq3Vz/4bBvGTzK1M0yvz5zEI+cmQxS196STbnxvRkUxqNMo16mes33JJNleuet3VzWu2b5zOfoxct5z2SfePHsnuy2Z75nhw927o5R7Jv9HCyf6bZurlWS21qbHV8uLWnNrMnR0f35UiSjE2trp3ZP5e7D17suQAAAAAAAADnqwwODpZJ0tfX1z53Ve67774cP3583ULeJPlrr/9/ZOPmG/LIl/8yP/yGf5J6sZyiKNNT2ZiyrKQsytVg98Nf+ld5xcZvzIcfOZQvnrq6ltEAAPBCLS0tZWBgIP39/VlYWMji4mL7EgAAAAC4Yh2r6H3Pe96TD3zgA+sW8iZJUSQ3923PG254R+qNpCw2JMWGFPWkqBcpGuVqRW914zfn+t5XZv2eDgAAAAAAAHBt6FjQWxRF+9BVK4oyt2zeke037kyj3gx06yvhbiNpFOXqc7dt/dbcuOlV7UcAAAAAAAAAdL2OBb2d8Jmn/jRPn34sRaMnjUaRRqNM2aikLNNs2VxW0lPpSVE2w97PPveRLCx/qf0YAAAAAAAAgK7WsTt6AQDga5k7egEAAADopK6q6AUAAAAAAABA0AsAAAAAAADQdQS9AAAAAAAAAF1G0AsAAAAAAADQZQS9AAAAAAAAAF1G0AsAAAAAAADQZQS9AAAAAAAAAF1G0AsAAAAAAADQZQS9AAAAAAAAAF1G0AsAAAAAAADQZQS9AAAAAAAAAF1G0AsAAAAAAADQZQS9AAAAAAAAAF1G0AsAAAAAAADQZQS9AAAAAAAAAF1G0AsAAAAAAADQZQS9AAAAAAAAAF2mMjg4WCZJX19f+9w15VUvS37hp4oMXl9JUklRJn/1mUr++b1lHn+6fTUAAHx1LS0tZWBgIP39/VlYWMji4mL7EgAAAAC4Yh2r6O3pWd+jbxxIvustlbzltT1587bmzx/dWcmBH+zJxt721ZdnbKqWWu3814mJkfal62AsU7UTufDRl5oDAAAAAAAAONf6prFr3HvvvbnzzjvT23uFKWy7MinKnizXk6XlSpbrlRRlT/7mnhvz0L9/VeZ+41X51H94VT7571+ZT/77V+ahqWoe+vVq7v3fX57NfZX205IkR/ZVU61WU62O51jmc3i0+Xnnwdn2pdcAYTAAAAAAAADQ1LGg9/jx47n11lvXL+zdcH3Km74/ufkHUrnl+5KX35rKy3dn46v3ZvPQj2fL0I9m69APpX/o3el/3WgGhnZnYOhd+fZ3viMbNqzD8wEAAAAAAACuER0Leg8dOpTp6ens2rVrXcLeysb+bHr5W7P5ppFsuekbsvWmN2frTTuyoa8/aZxqvopTSXG69flM0jiTSllvP+oyNKtnp6ZOpFabyliSjEzkxGp759bYSpXt2Nm5qbFkZOLExdtA7zi79ry5Fec9ayxTtcnszlD2z9RSm2o+HQAAAAAAAPja1LGgtyzL88Leq7q3tyyTYrEZ5Bank+JM67WYlIutuaXma/XzYnPNFRnK8NxtqVb35UjGMjWzJ0dbrZ2r48mB1ZB2KPsPJLdVq6mOH8vuyVruyW2tdccytH+8FQq3rR09nOy/5wKtmC/0rAezb2176X1H2jcBAAAAAAAAX0OuInl9fmVZ5q677srJkyeza9eu7Nixo33JC7AS9C6dDXCLM61QtzXWquI9O98KhFO2H3YZ5nN0unVX78j2DK9U09ZqqU3uztDwyu8yn8O3HcxskhyZybG1+47M5FiGs301zF2zdvZg7j42lNVjVlzyWQAAAAAAAAAdDnorlUpuv/32bNu2LdPT03nggQfal7wAxZoAd20F75rQdyXcbaz8bL2uJOc9z7GMV1tVttX1qKodyfbh9rEV6/0sAAAAAAAA4MWkY0FvpVLJHXfckb1792Z6ejqHDh1KWV5F4rraurmtLXOxUsXb9nPlfbHYftILN/tw5rJ7TbvmKzWUPXtbZ4zszZ6hY5lpz3DX7VkAAAAAAADAi1XHgt51DXmTVuvm1h28xWLSaA99F5NyJeA93frcCoOvuqT3SPaNHk72zzTbKddqqU2dvXn38s1nbvie5v6Z/Zkb35f2nPfizzqSmWOtls5X9GwAAAAAAADgxaIyODhYJklfX1/73FW57777cvz48XUKeZOvHxrIbx/6tvRtSJJGyqKRlI2krCdlsfq+LNeMF408u7Ccb/+5WhbOFO1HAgBAxywtLWVgYCD9/f1ZWFjI4uI6dJoBAAAAgJaOBb09PT0pivULVwe2JLu+cUMGtjaLkFez4zJJKq2a3crZ8SRlWcmjTxX5b3+5lEbj6sNmAAC4XIJeAAAAADqpY0EvAAB8LRP0AgAAANBJHbujFwAAAAAAAIDOEPQCAAAAAAAAdBlBLwAAAAAAAECXEfQCAAAAAAAAdBlBLwAAAAAAAECXEfQCAAAAAAAAdBlBLwAAAAAAAECXEfQCAAAAAAAAdBlBLwAAAAAAAECXEfQCAAAAAAAAdBlBLwAAAAAAAECXEfQCAAAAAAAAdBlBLwAAAAAAAECXEfQCAAAAAAAAdBlBLwAAAAAAAECXEfQCAAAAAAAAdBlBLwAAAAAAAECXEfQCAAAAAAAAdJnK4OBgmSR9fX3tc9eUynUD2fSt354ylZRFmZRlyiJn35dJ2Vjzviibc/V6Kg/8SVIU7UcCAEDHLC0tZWBgIP39/VlYWMji4mL7EgAAAAC4Yl0T9Pbe8oq87P2/kL5bXpmiUaaoFynrZRqNMqkXrbEyxXKRRqNI6mUa9TKn/vJjqfynf5HUl9qPBACAjhH0AgAAANBJHWvd3NOzvkeXZZLevlS2DKSy+br0bLk+lS0D6dk8kGwaSGXTQNJ33dn3mwZS6RtImd72oy5gJBMnaqnVWq8TExlpX3JRY5la2VerpVY7kYnzNl/N+QAAAAAAAADnWt80do177703d955Z3p7LydovQxl0lgu01gq0lgsUl9spL5YpLHYSGOp+bk5V0+xWKZ+ppH6UnPskkYmcqI2k+G7q6lWW6/bkr1j7QsvZT6HR5t7Rw8n++9ZE+Suy/kAAAAAAAAAZ3Us6D1+/HhuvfXW9Qt7y7IZ6p5ZCXSbIW99sUj9TKP5+UwjjcWyFfqWaZwpUiw1minxBY1k4p79mRuvZt+RNcOzB3Nw7ecXYPbg3Tk2tCd7R9KR8wEAAAAAAAA6FvQeOnQo09PT2bVr17qEvWWZZsC7tBLoNsPdYiXwXZlbalX5tip8i3pxiZx3b/YMHcvMpULXkYmcWG3LPJUXVIh7OecDAAAAAAAAvEAdC3rLsjwv7L2qe3vLMo2lRupn6m1h7kr17prxVuBbLDVSLD9P6+b5uTzYPrZqLFMze3K01Za5Op4cOP8C3nOMTBzI7vmjmZ5tDVzyfAAAAAAAAIAX7iqS1+dXlmXuuuuunDx5Mrt27cqOHTval1y2skyK5bNVu/XFlerdIsWae3vXVvzWzxRpLBcXLehNkgwN56LfamR7hjOU/TOtit7J3RkavtDqs2tm9s9lfOfBrOS8lzwfAAAAAAAA4Ap0NOitVCq5/fbbs23btkxPT+eBBx5oX3L5yrIV8pbNALd1X299sflauaN39X7eVsXvJSt6Z6dzdH53Ri/Zj/lYxqutit5qNdVzLttdMZ/DK1W/1X1ZXXFZ5wMAAAAAAAC8MB0LeiuVSu64447s3bs309PTOXToUMrykrW1l1SmdUfvYtFs17xYNqt6V+7rXW3nXKS+WE99sUh9qbh00JvZHLz7WHZP1jK1NowdmcjEWJLZhzOX3c/brvninud8AAAAAAAAgCtQGRwcLJOkr6+vfe6q/P2///fXLeRNkvL6l6X+zrGUlZ6UjTJFo0xZlMnK+0aRoihS1suURVI2ipSNMuXS6Qw+/H+lUtTbjzxrZCInZvZnaOXz/OGMrrRfbp87Nt5W1TuWqdqBzI3uzMHVfs1t2s9Yez4AAC9KS0tLGRgYSH9/fxYWFrK4uNi+BAAAAACuWMeC3vvuuy/Hjx9fl5D3Qvr6NuWVr3pVKj09+cEf/Yk8+8xT+cPf/50sL9dT+9wjKYpLVfICAEBnCXoBAAAA6KSOBb09PT0dDVtfOviy/NCPjqV3w4Y88cRT6empZGDg+pw6tZD/6zenUl9ebt8CAABfMYJeAAAAADqpY0Fvp/X09GTTps1JJWn+o1k1XJbJ4pnTHakiBgCAyyXoBQAAAKCTetoHukVRFDl9+lROnzqV06cWWj9P5czpU0JeAAAAAAAA4EWta4NeAAAAAAAAgK9Vgl4AAAAAAACALiPoBQAAAAAAAOgygl4AAAAAAACALiPoBQAAAAAAAOgygl4AAAAAAACALiPoBQAAAAAAAOgygl4AAAAAAACALlMZHBwsk6S/vz9bt25NT4/sFwAArlRRFDl16lQWFhYyMDCQ/v7+LCwsZHFxsX0pAAAAAFyx1aD3pptuypYtWwS9AABwFYqiyOnTp/P4448LegEAAADomNVUt6enR8gLAABXyb9XAwAAAPCV4L9AAQAAAAAAAHQZQS8AAAAAAABAlxH0AgAAAAAAAHQZQS8AAAAAAABAlxH0AgAAAAAAAHQZQS8AAAAAAABAlxH0AgAAAAAAAHSZyuDgYJkkN998c7Zs2dI+f814xY2N/MMfeTIv6S+SVFKUycOf78uvHL0uTzzX274cAAC+ak6fPp1HH300AwMD6e/vz8LCQhYXF9uXAQAAAMAV61hFb0/P+h59Q3+Rb3vDYr7ulY28sVrP172yke9/65m893tOZeMV57zvzuT99+f+Na/Jd7em3vi+/Nb9v5X3vXFl3cr7dmvmztnzQlzq/KZ3T96f37rUAgAAAAAAAOBrxvqmsWvcc889+bmf+7n1C3zLpCh7slxPlpYrWa5X0igq+eG39+VDv9iTD/+znhz/pZ780S9W8ke/WMmHfiH50D9NDh+oZNPG9sPWeiRTP/G2vO1tb8vbfmIqr33/ZN6dJA/9cn7kbT+SX36off0lXPae5w922/3O+NtyZ372Be0BAAAAAAAAXpzWKYU930c/+tG84x3vWL+wd8P1KW/6/uTmH0jllu9LXn5rKi/fnY2v3pvNQz+eLUM/mq1DP5T+oXen/3WjGRjanYGhd+Wt3/Ht6e29zOc/9Ol8Jq/N667RMPWhX/6VHG0fBAAAAAAAAL7mXGYC+sL92q/9Wj74wQ/m7W9/+7qEvZWN/dn08rdm800j2XLTN2TrTW/O1pt2ZENff9I41XwVp5LidOvzmaRxJpWy3n7Uxb37e/LO47/aqsi9QNXtG96X32q1eL5wG+W2PW88u/5sW+h3Z/L+9+edeU32/cb9uX+1V/Qlzl895zfyG7/Rqjg+Z/z+/Nb73rfm2e3f/VLfa+W8N+Z9v9X+XQEAAAAAAIBr0dWlr5dQluX6hr1lmRSLzSC3OJ0UZ1qvxaRcbM0tNV+rnxebay6pFbjef3/uf3/y/vHfaV/Q8prs++nkzlaL5+z7hedpo/zuTP7Gvnzm/WvbQv9W3vfG38n4296f4ysto1eft+b89x/Pa/b9bCuAfXcmf+Nd+dBKe+n3Jz/9vjeed/6deVfeec7zL+Yi5737Z7PvM+9vjr3tbbnonwEAAAAAAAD4qruK5PX5lWWZX//1X8/nP//5vP3tb8/w8HD7khdgJehdOhvgFmdaoW5rrFXFe3a+FQinbD9sjbV39H46P91exbvqkUzd+ct5KM27eH/1+Gvyuje0r1njja/La3M8f7gSmD7vnjXn/84f5vhKC+k3vi6vPSeMfmde87o3NMcfmcqvtM5/6Jd/NcfbTrygi533yU/nkXe+/yKVygAAAAAAAMC1pKNBb6VSyXvf+9688pWvzAc/+MF86lOfal/yAhRrAty1FbxrQt+VcLex8rP1ulTOu9ZDR/OhRy4Vxq54Y1732vaxTjqe97cqbd/2trVVwFfqAuc99Mv5kbe9LXfmF7RuBgAAAAAAgGtcx4LeSqWSn/qpn8quXbvywQ9+ML/2a7+WsrzcxPUCVls3t7VlLlaqeNt+rrwvFttPurg37sm7XvNIPv3J9okkeU3etadV7frGPXnXa9ZU617IQ5/OZ/LOfM9KYPrG9+Wn3/k8ey6kdU6zXXPb+Gv25Wdb57/xfT+9pnXzJ/PptYH1u7/n7NzFzmt56Jd/JD8x9Uhe+7oLzwMAAAAAAABffR0Letc15E1arZtbd/AWi0mjPfRdTMqVgPd063MrDL5kSe+aNsa/8a586Cd+JL/8UPuaJHkkn3lds9r1/t/Yl8+8fzyXzmx/J+M/MZXXvn/t2St7fid/eLz13OctnW2ek32/0Tzn/pU9v5Px9x/PO1vn/0I+tKZ180P55V89O3f/92TN3EXOe/fk6uff2PeZ/OqF/wgAAAAAAADANaAyODhYJsnNN9+cLVu2tM9fsX/1r/5VPvrRj65TyJu84dWb82//8VD6NiRJI2XRSMpGUtaTslh9X5ZrxotGFk43svf9jZxavPrvcG17dybv/+l8+qJBNQAAXymnT5/Oo48+moGBgfT392dhYSGLiy+g0wwAAAAAPI+OBb09PT0piqJ9+Ipdd11fvvtv7MwNr31tylYn55VX1rxffbXWPPrRj+RPjz2QRmP9vsu1SdALAHCtEPQCAAAA0GkdC3rX25n+V+Rz3/4PUtm8NSmKJJWkLFOpNBPdspXwVipJWZRpDpfJM1/K6z72S+lpLLUf+SIj6AUAuFYIegEAAADotK4JestUUvT0tQ8/z/27Tb3Fiz3kBQDgWiLoBQAAAKDTetoHrlWVlOktFi/wWnreFwAAAAAAAMCLSdcEvQAAAAAAAAA0CXoBAAAAAAAAuoygFwAAAAAAAKDLCHoBAAAAAAAAuoygFwAAAAAAAKDLrAa9RVGkKIpzZwEAgBfEv1cDAAAA8JVQGRwcLJOkv78/W7duTU+PIl8AALhSRVHk1KlTWVhYyMDAQPr7+7OwsJDFxcX2pQAAAABwxVaD3r6+vvY5AADgCi0tLQl6AQAAAOgY5bsAAAAAAAAAXUbQCwAAAAAAANBlBL0AAAAAAAAAXUbQCwAAAAAAANBlBL0AAAAAAAAAXUbQCwAAAAAAANBlBL0AAAAAAAAAXaYyODhYJklfX1/73DVl05Yt+Zvv+/v5ju//kfRVkpk//2w+ffKRfNeOW/Lv3v+/5bHa59Ko19u3AQDAV8XS0lIGBgbS39+fhYWFLC4uti8BAAAAgCvWNRW9g695fYbeviePnN6QP/zscj57qicLvdflI3Nfzvv+j1/M133zt7RvAQAAAAAAAHhR6pqg9+a3/0A+17g+H/vCUj79TD31no3p7etLo7Ix23fsyNu+d0/7FgAAAAAAAIAXpY4FvT0963t0/xvemsdONdK3sSeVnkp6eiqppJLHnn42Tz69kNNlb/uWyzCWqVottTWvqbH2NUnGplI7MZGR9nEAAAAAAACAr4KO3dF733335SMf+Uh+6Zd+KY1Go336BfuOyf+ab3j1S/O9r78xf/b55/Knn/pCnnjs0Sw8+Xgaz3wpT5x6Oo03f13KeiNFUUlRb6RslCnqSf0TH08+eKT9yFbQeyBzoztzcLYV6E4m49V9Obt6LFMntmdy58HMnrMXAAAuzh29AAAAAHTS+pbdrnH8+PHceuutufPOO9PbeyXVtud66lOz+fKTT6eoL2X0jS/Jj7zl5gxuTuqnF7LwzNPpuaWaLV/3zdn8xrdm8/ZvyuY3vDV9w9+UTcPfmPKW17cfd2FHZnIsw9m+tnR35EEhLwAAAAAAAHBN6VjQe+jQoUxPT2fXrl3rEvZ+8cO/nflHPp+PfLKWR596Jo99+ct56ktfyuJzT2Vx6Uwq29+UxmKRxlKR+plG6ouN5vvFIo3ly6woHhvN7vmjmV5JdUcmcmJmJjO1Wmq1qTS7Oo9k4sQFWj2PTOTEagvolbXJ2NSa1tCri8cyVTuRidVAuf0zAAAAAAAAwMV1LOgty/K8sPdq7u19du7P89if/3H+4lOfzh98/KEcOfqn+eIXalk89Vzylm9K0X9j6q2Qt7FYNF9nGmksNlLWy/bj1hjK/plWEDs6k+pq9e5Ypmb25OhoNdVqNdXx5MDESDI2nv1z482xajX7jlxibZIj+1pj1fEc231AmAsAAAAAAABctStPXi9DWZa56667cvLkyezatSs7duxoX3LZ6qeeTe2/TuVPf/Pf5L4TH8szxXLO3Hxzyu/9vuQNb059qRns1heLNM7U01hspH6mSONMkfrSpYLe+RweraY6ejjzu0dXK3Ezsj3Da0Pgyd0ZGt6RPDiX+d2TObE2sb3Y2rTu/a3VUqtNZvfZHQAAAAAAAABXrKNBb6VSye23355t27Zleno6DzzwQPuSF6RYWswzD340T26qZHnnd6fxDW9LY/P1zUB3sZH6mXoz7F0qUz/drOatn2mksXQZrZtnD+a2w8OrlbhNxzLeqtytVqup7juSzB7Mzmo1t+Wec1s3X2jtyEROTKY1PprD82uOBgAAAAAAALhCHQt6K5VK7rjjjuzduzfT09M5dOhQyvJSlbWXr1wum5W7iyutmhtpnDnbqrlxunlHb711Z29ZL9qPuKDZg3dnbv89zfbKsw9nLrvbgt+zZg/uzOjh+QxvH7n42h3DGZqfy4NJMrI3e4ZWJh7M3PxQVop+Mzaq2hcAAAAAAAC4bB0LejsV8iZJo77mHt41oW9jqWyGv4v1FEutIHixkcZS+wkXcySTh5P990xkJEeyb/Rwsn+m1Xq5ltrU2JpWzLXM7J/L3Qdnk4utPTKZw9mfmVottXuGM7da0Tubg3cfy+7JlbuBk2PnfhEAAAAAAACAi6oMDg6WSdLX19c+d1Xuu+++HD9+fN1D3iTJD92Wjd/43SmXixT1MkW99XPlc6M11vrcmP9Ibrz/X7efAgAAHbO0tJSBgYH09/dnYWEhi4uL7UsAAAAA4Ip1LOjt6elJUVxey+QXqrx5W8qXvDwp0gyRi2Tghhuz853fmw9/6IN5+sknW+NlyjLpOfVE+p4+2X4MAAB0jKAXAAAAgE7qWOvmToW8SVJ59GR6Hvpoej750fR+6v70zt+fG7/0cL5n6KV56ZOfTN9nP5ZNn/uzbKp9PJu/8HEhLwAAAAAAAPCi0rGK3q+Uv/u+f5Cve9Ob06jXU5ZlFp59NqdPn87Dn/jL/Jf//JvtywEA4CtCRS8AAAAAndT1QS8AAFyLBL0AAAAAdFLHWjcDAAAAAAAA0BmCXgAAAAAAAIAuI+gFAAAAAAAA6DKCXgAAAAAAAIAuI+gFAAAAAAAA6DKCXgAAAAAAAIAuI+gFAAAAAAAA6DKCXgAAAAAAAIAuI+gFAAAAAAAA6DKCXgAAAAAAAIAuI+gFAAAAAAAA6DKCXgAAAAAAAIAuI+gFAAAAAAAA6DKCXgAAAAAAAIAuI+gFAAAAAAAA6DKCXgAAAAAAAIAuI+gFAAAAAAAA6DKVwcHBMkn6+vra564pr3j/v03v9S9NmSQp03qTsmx9XBkqypRlmaTS+pnUn3gsT/zzv7fmNAAA6KylpaUMDAykv78/CwsLWVxcbF8CAAAAAFesY0FvT09PiqJoH75i3/Z7n8yP3bIxZSprUt1W0NvSDH1bUfDKeJnc/amFfPZvvfnswlVjmapNZvfq5/kcHt2Zg7PnLOoyY5mqHcjcV/P3GJtKbXJ3Mn84o7cl98zsydGvxvcZmciJr9azAYCveYJeAAAAADqpY62b77333tx5553p7e1tn7oiZaPMhjLZUJQ5s9jI0wuL6V/4fLYufCEbyyIbyjKnnj2dL3zx6SyeruepZ5by6JNn0psyRaP9tLXmc3i0mmq1mtHDyf57JjLSvoQXYCxTk7tzbLya6s6DmZ09mJ3Vr1TQOpap2olMrPwP+BV9NgAAAAAAAHzldCzoPX78eG699dZ1C3sb9TJFUeYLT5/J//mJ5/K784sZOfnvMvLf35sbPvsHKYoyf3DiU/mT//m5lEuNVJYbeeyppTQaZerLl1dZPHvw7hwb2pO9kt6rNJ+5B9vHAAAAAAAAgPXSsaD30KFDmZ6ezq5du9Yl7G3UixT1Rv74s6fz0OPLOXW6yIb6qbzsiY/kjX/58ynqjSwvNzL0upfnTYObsuOGDXn62cU0GmUalxn0thubqqVWa72mxlZGm1WjE1OrcydWS0gvNddqJbxyXm0qqyde6jmr29s/r7Hm3BMT2y86t/aZ5xrJxImz32H1K5yzd834RX/PlVbYQ9k/s3Zszfc+57tOrJlr//3Wfm6+n5o6sfo7nP83O/fZZ8cu/OzL+30AAAAAAADg2tSxoLcsy/PC3p6eK39cUS9TNIp85slGzpyuZ3mpkSe+8Z/kM2OP5Onv/73c8b//dv7kfz6Swa0bcuThhfzm3Jlsu2UgvZWk0Vhzke8ljEwcyO75o5lutfo9sq/Z0rlaHc+x3QfWhJBD2T8805wbP5ah/eNrAtSLzY1lamZPjrbaRFfHkwOtAy/+nMsxlqmZ/Zkbb55xW/asuXP44s88ayQTJ2ay5+ho6ztUs+/Iyt6z51ZHD2d4cm0Qe6Hf80j2VcdzrNUOe+d5PZMv9V2fz1CG525LtbovRy74Nzv32dXmL7HGlfw+AAAAAAAAcG268uT1MpRlmbvuuisnT57Mrl27smPHjvYll61RL1Kmkhs3lFk+08hffv503vEbj2Xnf3wy7/3dp/Iv/vG784v/6/dl60B/Pv4XtUx8+0vyhpdsyFK9SKN+qYreVgVorZaZ/XMZ33kwq/Hk2EqF52RbIDmfw5OtIPHITI5lONtXA8OLzI1sz/CaZ9Umd2douPX3uOhzLsPI9gzPH87KI2cP3p1ja+cu9szVNXuzZ+hY7m4PZUe2ZzjHMrOSl84ezN3HhnJ2+0V+z0u51Hd9XvM5upLA5wr+Zp34fQAAAAAAAOCrpKNBb6VSye23355t27Zleno6DzzwQPuSy1avl0lZyfe+dmve8tKebKg3Ui428trrevJDb7ouSU/KoswNm3ryo+/Ylv8yfzpPLZXpTVJfulTQ26oArVZXq0WTVpvfyWS8Wk21OprD8+fuujLHWue1XvuOdOg5a13gmd2u438zAAAAAAAAuLZ1LOitVCq54447snfv3kxPT+fQoUMpy8troXwhRb1IWSQ3X9+Xvz7yktzxjhvzD77rxvz0t7402166NWWRFEVSNsoM9FUysLGSDUnKImnUr+C5O4YzND+XB7NS9dq+4AWafThz2X1+6+SLPufBzM2vqTgdG71w5ersw5kb2p/xVp/hkYkDZ9dd7JlrzU7n6PwF1rT2jq65r/fA7jUVsVfiUt/1cn/fXOpvdgmd+H0AAAAAAADgq6RjQe96hrxJM6wtyzLvOPGDGfvD7fm5P/36HLj/TfnJE2/MT7wu+frrevJz//GR/NxvfjZ/7zc/m7935LP54IPPpCzKFFcS9B6ZzOHsz0ytlto9w5m76qrRI9k3ejjZP9NqOVxLbWrsEs+ZzcG7j2X3ZGvtaC7S5vhI9o2fXXdPjq5Zd5FnnmM2B3eOZ27NmuaS5t7hlefP7MnR0TUVz1fkUt/1cn/fS/1vcyQzx1qtqs/7PTvx+wAAAAAAAMBXR2VwcLBMkr6+vva5q3Lffffl+PHj6xLyJskrJv8073n99SmTpEzK5j9WlWXrc2usua5MmeRf/9mTKf/pO84u5towMpETM8O5e23LbACAF4mlpaUMDAykv78/CwsLWVxcbF8CAAAAAFesY0FvT09PiuJSd+O+MD3f+iMp+7acDXJb4fE5GXIrBV4Jg1ctnkrP/5xeM8C1YGyqlsnhwxndeTCz7ZMAAF1O0AsAAABAJ3Us6IXzjWTixEz2r96peyzjqnkBgBcpQS8AAAAAnSToBQCADhD0AgAAANBJPe0DAAAAAAAAAFzbBL0AAAAAAAAAXUbQCwAAAAAAANBlBL0AAAAAAAAAXUbQCwAAAAAAANBlBL0AAAAAAAAAXUbQCwAAAAAAANBlBL0AAAAAAAAAXUbQCwAAAAAAANBlBL0AAAAAAAAAXUbQCwAAAAAAANBlBL0AAAAAAAAAXUbQCwAAAAAAANBlBL0AAAAAAAAAXUbQCwAAAAAAANBlBL0AAAAAAAAAXaYyODhYJklfX1/73DVpy5YtecMbvy6LZ06n0WjkzW96U2Zn/zwvHRxMmWThuWfz3HMLuX5gIJ/85MOp1+vtRwAAQMctLS1lYGAg/f39WVhYyOLiYvsSAAAAALhiXRX0bt68Oe/47u/N3/zJn8z2N7w+PWWRJ595Ok8981xe9Ypb8vRzz+XR2heyZfPmbNm8KXf+o3+chz/xQBqNRvtRAADQUYJeAAAAADqpd+vWre9Pkt7e3va5a85rtm3LP7rzH+brtr8+LxsczMDAdbnh+utTveXm3DAwkOv7+3PLzS/Pq19ZzU033ZQnnngiH/+fH1fVCwDAV1yj0cimTZvS19eX5eVl/+dDAAAAANZVV93R+/TTT+eJJ57MUr3ImcWlLC4tpyiT5eVGnnl2IU8vnM6pM0t5/Ikn8+mTj+SRz34uxWX9B7WRTJyopVZrvU5MZKR9yfMay1TtRCZeyMaRiZxY3bN2/xWcBQAAAAAAAHzN6Kqgd2FhIV964st5/LFH09tTSaNR5MlTy6k9s5TPP3MmS2VPNm/Zkuu29ufRxx7Po49+McvLy+3HnGtkIidqMxm+u5pqtfW6Ldk71r6wA2YPZmd1Zw7Otk8AAAAAAAAAXFxXBb1nTp/Olx5/PDfccH3KJM8sNjLxO5/JHdOP5PaP9uS3Prchp4renFpeTu0LX8zCwkLKsmw/Zo2RTNyzP3Pj1ew7smZ49mAOrv0MAAAAAAAAcA3pqqA3ST7/+VqWl5aaLZsbZXorlQzf2Jf0bMi/emApn3+ukUZR5KUvG8zS0lL79nON7M2eoWOZuVSoOzKREystnWu1TK1W+jbbK09NnUitNpXV4R1n159Y23v5nHNW1l9mi+YL7gUAAAAAAAC+VnVd0Pv4Y4/lyaeeyclni/zT2eV8zze/Mj//7tfmZ75+Y/Zu25jrNiZJJY8/9lhOLyy0bz/f/FwebB9bNZapmWbFb7VaTXX0cIYn1wazQxmeuy3V6r40s+Kh7D+Q3NZam/33nL1zd2ZPjo62zhlPDjxvurviavYCAAAAAAAAL0ZdF/R++Ykv5Zlnn8uXF8v8h08u549qy+ntreTWV/bkm7acytj/94F87smlLDz7XE6fOd2+/XxDw9nRPrZiZHuGs6bid/Zg7j42lOHVDfM5Or32gt35HL7tYGbb145sz3CGsn+mVZU7uTtDZw+5tKvZCwAAAAAAALwodV3Q+/ijj2VpaTGLy41cVz+Thz/1WJ54bjH/r/tP5Rf/osjCwI359GcfSSrJqYVT7dvPNTudo/O7M9qRXsgj2T689vOxjFdbVbnVaqrnXAr8fK5mLwAAAAAAAPBi03VB7xNPfDmfr30xr954Ku95xWKefeZUeivJo2d6UmzanH/4XS/P8E39efqpp3Pq1PO1bp7NwbuPZffk2rt3m3fiTowlmX04c1kTBI9M5MDuS93pO5Q9e1ttldfe/9s654paLl/NXgAAAAAAAOBFqeuC3tOnT+fRLz6a/r4N+V++4yW559YtWXr2ify/v3Vjfvuvbc73vSrp29KXjZv70mg02ref78i+1t27rdbItVpq9yTTR5LkSPatnZvZk6OjK/fxXsh85obvaa3dn7nxlbXNc7J/5uwzzkmWL+Vq9gIAAAAAAAAvRpXBwcEySfr6+trnrlk/9Xf35+/87Z9Of39/5uY/k5cMbE3RsyGbNm1KWenNZz77mRyZ+neZ+f9Nt28FAICviKWlpQwMDKS/vz8LCwtZXFxsXwIAAAAAV6zrKnqTpFEv8sAnHsr8p0+mKJPHn3g6X/rS4/l8rZaTJ0/mS1/8UjZu7J7gGgAAAAAAAOCF6Mqg96mnnsjimaV84YtfzKOPPponnngyT3z5qTzx5Sfy9JNPpm9Db5595un2bQAAAAAAAAAvCl3Zurm3tzcbN25sHz7Hcr2eRr3ePgwAAF8RWjcDAAAA0EldWdHbaDRy5syZS76EvAAAAAAAAMCLVVcGvQAAAAAAAABfywS9AAAAAAAAAF1G0AsAAAAAAADQZQS9AAAAAAAAAF1G0AsAAAAAAADQZQS9AAAAAAAAAF3m/w+KfXKv5SIQvAAAAABJRU5ErkJggg==;" vertex="1" parent="Gm3EFjgsQVNfLWqenXtV-1">
          <mxGeometry x="-1937.0015384615385" y="222.00076923076927" width="1914" height="645" as="geometry" />
        </mxCell>
        <mxCell id="QjczPIoxMXy1nCOh0D4J-2" value="" style="shape=mxgraph.arrows.bent_right_arrow;html=1;verticalLabelPosition=bottom;verticalAlign=top;strokeWidth=2;strokeColor=#000000;fillColor=light-dark(#FFFFFF,#FFFFFF);" vertex="1" parent="Gm3EFjgsQVNfLWqenXtV-1">
          <mxGeometry x="873" y="97.47999999999999" width="30" height="30" as="geometry" />
        </mxCell>
        <mxCell id="ew3cbq59vU2utRHS9ORb-0" value="" style="shape=flexArrow;endArrow=classic;html=1;rounded=0;exitX=0.5;exitY=1;exitDx=0;exitDy=0;fillColor=light-dark(#FFFFFF,#FFFFFF);" edge="1" parent="Gm3EFjgsQVNfLWqenXtV-1" source="Gm3EFjgsQVNfLWqenXtV-13">
          <mxGeometry width="50" height="50" relative="1" as="geometry">
            <mxPoint x="326" y="581" as="sourcePoint" />
            <mxPoint x="185" y="972" as="targetPoint" />
          </mxGeometry>
        </mxCell>
        <mxCell id="gu33N9uD4gNfLCqHst0R-1" value="&lt;font style=&quot;font-size: 16px;&quot;&gt;ALERTE TOAST&lt;/font&gt;" style="rounded=0;whiteSpace=wrap;html=1;" vertex="1" parent="Gm3EFjgsQVNfLWqenXtV-1">
          <mxGeometry x="124.5" y="973" width="120" height="60" as="geometry" />
        </mxCell>
        <mxCell id="Qb_LsRttgRRLfFbtHM7i-1" value="&lt;span style=&quot;font-size: 16px;&quot;&gt;PANNEL RETRACTABLE&lt;/span&gt;" style="rounded=0;whiteSpace=wrap;html=1;" vertex="1" parent="Gm3EFjgsQVNfLWqenXtV-1">
          <mxGeometry x="377" y="973" width="120" height="60" as="geometry" />
        </mxCell>
        <mxCell id="Qb_LsRttgRRLfFbtHM7i-0" value="" style="shape=flexArrow;endArrow=classic;html=1;rounded=0;exitX=1;exitY=1;exitDx=0;exitDy=0;fillColor=light-dark(#FFFFFF,#FFFFFF);entryX=0.5;entryY=0;entryDx=0;entryDy=0;" edge="1" parent="Gm3EFjgsQVNfLWqenXtV-1" source="Gm3EFjgsQVNfLWqenXtV-9" target="Qb_LsRttgRRLfFbtHM7i-1">
          <mxGeometry width="50" height="50" relative="1" as="geometry">
            <mxPoint x="363" y="542" as="sourcePoint" />
            <mxPoint x="447" y="960" as="targetPoint" />
          </mxGeometry>
        </mxCell>
      </root>
    </mxGraphModel>
  </diagram>
</mxfile>
